<?xml version="1.0" standalone="no"?>
<!DOCTYPE svg PUBLIC "-//W3C//DTD SVG 1.1//EN" "http://www.w3.org/Graphics/SVG/1.1/DTD/svg11.dtd" >
<svg xmlns="http://www.w3.org/2000/svg" xmlns:xlink="http://www.w3.org/1999/xlink" version="1.1">
<metadata>
Created by FontForge 20170731 at Tue Mar 20 16:13:45 2012
 By Aleksey,,,
Copyright (c) 2011 by deFharo.com. All rights reserved.
</metadata>
<defs>
<font id="Fabada" horiz-adv-x="710" >
  <font-face 
    font-family="Fabada"
    font-weight="400"
    font-stretch="normal"
    units-per-em="1000"
    panose-1="2 15 5 5 0 0 0 2 0 3"
    ascent="800"
    descent="-200"
    x-height="536"
    cap-height="788"
    bbox="-147 -273 1670 1046.38"
    underline-thickness="50"
    underline-position="-150"
    unicode-range="U+0020-FB06"
  />
<missing-glyph horiz-adv-x="282" 
 />
    <glyph glyph-name="fi" unicode="fi" horiz-adv-x="654" 
d="M433 495q0 17 12 29t29 12t29 -12t12 -29v-267q0 -51 26.5 -97.5t69.5 -74.5q9 -5 14 -15t5 -20q0 -16 -11.5 -28.5t-28.5 -12.5q-14 0 -29.5 9.5t-30.5 24t-28 30.5t-22 30q-21 33 -33.5 71t-13.5 78v272zM433 672q0 15 10 27.5t31 12.5t31 -12.5t10 -27.5
q0 -14 -10 -26.5t-31 -12.5t-31 12.5t-10 26.5zM80 537q13 0 22.5 8.5t11.5 21.5q5 52 28 96.5t60 76.5t85 50t103 18q17 0 29 -12t12 -29t-12.5 -29t-29.5 -12q-55 0 -91.5 -20t-58.5 -46t-31 -51.5t-9 -36.5q0 -14 10.5 -24.5t24.5 -10.5h145q14 0 24.5 -10.5t10.5 -24.5
t-10.5 -24.5t-24.5 -10.5h-150q-14 0 -24.5 -10.5t-10.5 -24.5v-391q0 -17 -12 -29t-29 -12t-29 12t-12 29v391q0 14 -10.5 24.5t-24.5 10.5h-34q-14 0 -24.5 10.5t-10.5 24.5t10.5 24.5t24.5 10.5h37z" />
    <glyph glyph-name="fl" unicode="fl" horiz-adv-x="804" 
d="M122 432q0 13 -10 25q-10 10 -25 10h-36q-13 0 -25 10q-10 12 -10 25t10 25q12 10 25 10h38q16 0 26 12q9 12 12 29q9 59 35.5 101.5t64.5 71.5t82.5 43t90.5 14q17 0 29 -12t12 -29t-12 -29q-11 -12 -29 -12q-32 0 -61.5 -8.5t-55.5 -26.5q-49 -35 -72 -109
q-5 -16 5 -30q10 -15 26 -15h147q13 0 25 -10q10 -12 10 -25t-10 -25q-12 -10 -25 -10h-150q-13 0 -25 -10q-10 -12 -10 -25v-391q0 -17 -12 -29q-11 -12 -29 -12q-17 0 -29 12t-12 29v391zM477 766q0 17 12 29t29 12t29 -12t12 -29v-498q0 -53 17 -92t44.5 -64.5
t62.5 -37.5t72 -12q17 0 29 -12t12 -29t-12 -29t-29 -12q-51 0 -101 17.5t-89 53.5t-63.5 90t-24.5 127v498z" />
    <glyph glyph-name="s_t" unicode="st" horiz-adv-x="970" 
d="M729 268q0 -53 16.5 -92t44 -64.5t63 -37.5t72.5 -12q17 0 29 -12t12 -29t-12 -29t-29 -12q-51 0 -101 17.5t-89 53.5t-63.5 90t-24.5 127v163q0 15 -10.5 25t-24.5 10h-132h-183q-126 0 -126 -61q0 -65 132 -65q209 0 209 -167q0 -193 -221 -193q-170 0 -240 135
q-5 13 -5 21q0 17 11.5 28.5t29.5 11.5q20 0 31 -15t22 -28q63 -74 152 -74q138 0 138 109q0 92 -136 92q-206 0 -206 145q0 151 210 150h349v212q0 17 12 29t29 12t29 -12t12 -29v-176q0 -14 10.5 -24.5t24.5 -10.5h123q16 0 28 -16t10 -34t-12.5 -29t-25.5 -11h-123
q-14 0 -24.5 -10t-10.5 -25v-163z" />
    <glyph glyph-name=".notdef" horiz-adv-x="282" 
 />
    <glyph glyph-name=".null" horiz-adv-x="0" 
 />
    <glyph glyph-name="nonmarkingreturn" horiz-adv-x="282" 
 />
    <glyph glyph-name="space" unicode=" " horiz-adv-x="364" 
 />
    <glyph glyph-name="space" unicode="&#xa0;" horiz-adv-x="364" 
 />
    <glyph glyph-name="exclam" unicode="!" horiz-adv-x="262" 
d="M90 39q0 17 12 28t29 11t29 -11t12 -28t-12 -28t-29 -11t-29 11t-12 28zM166 273q0 -14 -10.5 -24.5t-24.5 -10.5t-24.5 10.5t-10.5 24.5v500q0 14 10.5 24.5t24.5 10.5t24.5 -10.5t10.5 -24.5v-500z" />
    <glyph glyph-name="quotedbl" unicode="&#x22;" horiz-adv-x="272" 
d="M47 629q-6 54 -9 83.5t-4.5 43t-1.5 16.5v3q0 14 11 23t25 9q13 0 23.5 -8.5t10.5 -24.5l-15 -145q-1 -11 -7 -15.5t-13 -4.5t-13 4.5t-7 15.5zM171 629q-6 54 -9 83.5t-4.5 43t-1.5 16.5v3q0 14 11 23t25 9q13 0 23.5 -8.5t10.5 -24.5l-15 -145q-1 -11 -7 -15.5
t-13 -4.5t-13 4.5t-7 15.5z" />
    <glyph glyph-name="numbersign" unicode="#" horiz-adv-x="679" 
d="M282 340q-13 0 -13 -12v-116q0 -13 13 -13h116q12 0 12 13v116q0 12 -12 12h-116zM575 422q17 0 29 -12t12 -29t-12 -29t-29 -12h-70q-13 0 -13 -12v-116q0 -13 13 -13h70q17 0 29 -12t12 -29t-12 -29t-29 -12h-70q-13 0 -13 -12v-64q0 -17 -12 -29t-29 -12t-29 12
t-12 29v64q0 12 -12 12h-116q-13 0 -13 -12v-64q0 -17 -12 -29t-29 -12t-29 12t-12 29v64q0 12 -12 12h-71q-17 0 -29 12t-12 29t12 29t29 12h71q12 0 12 13v116q0 12 -12 12h-71q-17 0 -29 12t-12 29t12 29t29 12h71q12 0 12 13v62q0 17 12 29t29 12t29 -12t12 -29v-62
q0 -13 13 -13h116q12 0 12 13v62q0 17 12 29t29 12t29 -12t12 -29v-62q0 -13 13 -13h70z" />
    <glyph glyph-name="dollar" unicode="$" horiz-adv-x="563" 
d="M247 552v28q0 14 10 24.5t25 10.5q14 0 24.5 -10.5t10.5 -24.5v-24q5 0 23 -2.5t48.5 -12.5t58.5 -28q39 -26 36 -50.5t-23.5 -31.5t-48.5 8q-14 8 -31 16.5t-32.5 12.5t-31 6t-39.5 0t-46 -8.5t-39.5 -20.5t-19.5 -34q-2 -23 12.5 -36t35.5 -20t44.5 -9.5t54 -6
t70.5 -14.5t69 -33t44 -57t9.5 -80t-23 -74.5t-44 -50.5t-59.5 -33t-68 -15v-24q0 -14 -10.5 -24.5t-24.5 -10.5q-15 0 -25 10.5t-10 24.5v27q-29 5 -58.5 16t-55.5 28t-47 39t-34 49q-6 11 -5 22.5t7 20.5t16 13.5t23 3.5q17 -2 27.5 -16.5t28 -35.5t51.5 -39t65.5 -21.5
t57.5 0.5t48.5 15t40 32.5t17.5 48.5t-9.5 45.5t-32 32t-92.5 22.5q-69 8 -93 16t-45.5 18.5t-35.5 25.5q-17 19 -25 43t-7 48t11 47t29 41q22 21 53 34t65 18z" />
    <glyph glyph-name="percent" unicode="%" horiz-adv-x="570" 
d="M49 383q0 -32 20 -52.5t48 -20.5q29 0 49 20.5t20 52.5v60q0 32 -20 52.5t-49 20.5q-28 0 -48 -20.5t-20 -52.5v-60zM117 268q-23 0 -43 9t-34.5 24.5t-23 36.5t-8.5 45v60q0 24 8.5 45t23 36t34.5 24t43 9t43 -9t35 -24t23.5 -36t8.5 -45v-60q0 -24 -8.5 -45
t-23.5 -36.5t-35 -24.5t-43 -9zM329 97q0 -32 20 -52.5t48 -20.5q29 0 49 20.5t20 52.5v60q0 32 -20 52.5t-49 20.5q-28 0 -48 -20.5t-20 -52.5v-60zM397 -18q-23 0 -43 9t-34.5 24.5t-23 36.5t-8.5 45v60q0 24 8.5 45t23 36t34.5 24t43 9t43 -9t35 -24t23.5 -36t8.5 -45
v-60q0 -24 -8.5 -45t-23.5 -36.5t-35 -24.5t-43 -9zM302 459q3 6 7.5 9t10.5 3q4 0 8 -2q7 -3 10.5 -9t-0.5 -16l-157 -370q-2 -5 -6.5 -8t-10.5 -3q-4 0 -8 1q-6 3 -9 7.5t-3 10.5q0 4 2 8z" />
    <glyph glyph-name="ampersand" unicode="&#x26;" horiz-adv-x="848" 
d="M646 268q0 -73 -24.5 -127t-63.5 -90t-89 -53.5t-101 -17.5t-101 17.5t-89 53.5t-63.5 90t-24.5 127v252q0 73 24 127t63.5 89.5t89.5 53t101 17.5q31 0 61.5 -6t59.5 -20q11 -5 17.5 -14.5t6.5 -22.5q0 -17 -12 -29t-29 -12q-7 0 -17 4q-41 18 -87 18q-38 0 -73 -12
t-62.5 -37t-44 -64t-16.5 -92v-43q0 -17 12 -29t29 -12h86q17 0 29 -12t12 -29t-12 -29t-29 -12h-86q-17 0 -29 -12t-12 -29v-45q0 -54 16.5 -92.5t44 -64t63 -37.5t72.5 -12t72.5 12t63 37t44 64t16.5 92v58q0 15 -10.5 25t-24.5 10h-44q-14 0 -24.5 10.5t-10.5 24.5
q0 15 10.5 25t24.5 10h44q14 0 24.5 10.5t10.5 24.5v49q0 17 12 29t29 12t29 -12t12 -29v-49q0 -14 10.5 -24.5t24.5 -10.5h100q14 0 24.5 -10t10.5 -25q0 -14 -10.5 -24.5t-24.5 -10.5h-100q-14 0 -24.5 -10t-10.5 -25v-57z" />
    <glyph glyph-name="quotesingle" unicode="'" horiz-adv-x="134" 
d="M47 629q-6 54 -9 83.5t-4.5 43t-1.5 16.5v3q0 14 11 23t25 9q13 0 23.5 -8.5t10.5 -24.5l-15 -145q-1 -11 -7 -15.5t-13 -4.5t-13 4.5t-7 15.5z" />
    <glyph glyph-name="parenleft" unicode="(" horiz-adv-x="472" 
d="M63 455q0 58 17 110.5t65 100.5q38 36 79 56q7 4 19 4q17 0 28.5 -11.5t11.5 -28.5q0 -26 -23 -37q-29 -15 -60 -47q-31 -34 -41 -69.5t-10 -77.5v-371q0 -42 10 -77.5t41 -68.5q31 -35 60 -48q23 -12 23 -37q0 -17 -11.5 -28.5t-28.5 -11.5q-10 0 -19 4q-41 19 -79 57
q-48 48 -65 100t-17 110v371z" />
    <glyph glyph-name="parenright" unicode=")" horiz-adv-x="472" 
d="M409 83q0 -58 -17 -110t-65 -100q-38 -38 -79 -57q-9 -4 -19 -4q-17 0 -28.5 11.5t-11.5 28.5q0 25 23 37q29 13 63 48q28 33 38 68.5t10 77.5v371q0 42 -10 77.5t-41 69.5q-31 32 -60 47q-23 11 -23 37q0 17 11.5 28.5t28.5 11.5q12 0 19 -4q41 -20 79 -56
q48 -48 65 -100.5t17 -110.5v-371z" />
    <glyph glyph-name="asterisk" unicode="*" horiz-adv-x="452" 
d="M47 652q-15 9 -15 27q0 11 5 19q5 9 13.5 13.5t16.5 4.5t15 -4l90 -52q7 -4 13 1t6 10v104q0 14 10.5 23t24.5 9t24.5 -9t10.5 -23v-104q0 -5 5.5 -10.5t13.5 -0.5l90 52q7 4 15 4q19 0 30 -18q5 -12 5 -19q0 -18 -15 -27l-90 -52q-7 -4 -7 -11t7 -11l90 -52
q15 -9 15 -27q0 -7 -5 -19q-11 -18 -30 -18q-8 0 -15 4l-90 52q-5 3 -12 -0.5t-7 -10.5v-104q0 -14 -10.5 -23t-24.5 -9t-24.5 9t-10.5 23v104q0 5 -7 9.5t-12 1.5l-90 -52q-7 -4 -15 -4t-16.5 4.5t-13.5 13.5t-5 19q0 18 15 27l90 52q6 3 6 11q0 6 -6 11z" />
    <glyph glyph-name="plus" unicode="+" horiz-adv-x="658" 
d="M329 27q-14 0 -24.5 10.5t-10.5 24.5v128q0 17 -12 29t-29 12h-128q-14 0 -24.5 10.5t-10.5 24.5q0 15 10.5 25t24.5 10h128q17 0 29 12t12 29v128q0 15 10.5 25t24.5 10q15 0 25 -10t10 -25v-128q0 -17 12 -29t29 -12h128q15 0 25 -10t10 -25q0 -14 -10 -24.5t-25 -10.5
h-128q-17 0 -29 -12t-12 -29v-128q0 -14 -10 -24.5t-25 -10.5z" />
    <glyph glyph-name="comma" unicode="," horiz-adv-x="219" 
d="M90 51q0 19 13 28.5t28 9.5q16 0 28.5 -10.5t12.5 -30.5q0 -60 -23.5 -119t-68.5 -101q-10 -10 -25 -10q-14 0 -25 9.5t-11 25.5q0 8 3 13t8 11q32 36 46 72.5t14 82.5v19z" />
    <glyph glyph-name="hyphen" unicode="-" horiz-adv-x="436" 
d="M104 226q-17 0 -29 12t-12 29t12 29t29 12h228q17 0 29 -12t12 -29t-12 -29t-29 -12h-228z" />
    <glyph glyph-name="period" unicode="." horiz-adv-x="201" 
d="M90 39q0 15 10 27t31 12t31 -12t10 -27q0 -14 -10 -26.5t-31 -12.5t-31 12t-10 27z" />
    <glyph glyph-name="slash" unicode="/" horiz-adv-x="418" 
d="M315 535q4 10 12.5 15.5t19.5 5.5q6 0 14 -3q12 -5 18.5 -16t-0.5 -29l-280 -661q-4 -10 -12.5 -15.5t-19.5 -5.5q-7 0 -14 3q-10 4 -15.5 12.5t-5.5 19.5q0 6 3 14z" />
    <glyph glyph-name="zero" unicode="0" horiz-adv-x="564" 
d="M145 207q0 -32 11 -58.5t29.5 -46t43.5 -30.5t53 -11t53 11t43.5 30.5t29.5 46t11 58.5v121q0 31 -11 58t-29.5 46.5t-43.5 30.5t-53 11t-53 -11t-43.5 -30.5t-29.5 -46.5t-11 -58v-121zM282 -21q-46 0 -86 18t-69.5 48.5t-46.5 72t-17 89.5v121q0 48 17 89.5t46.5 72
t69.5 48.5t86 18t86 -18t69.5 -48.5t46.5 -72t17 -89.5v-121q0 -48 -17 -89.5t-46.5 -72t-69.5 -48.5t-86 -18z" />
    <glyph glyph-name="one" unicode="1" horiz-adv-x="326" 
d="M263 21q0 -17 -12 -29t-29 -12t-29 12t-12 29v424q-52 -20 -107 -20q-17 0 -29.5 12t-12.5 29t12 29t29 12q33 0 65 9.5t58 29.5q10 9 26 9q17 0 29 -12t12 -29v-493z" />
    <glyph glyph-name="two" unicode="2" horiz-adv-x="558" 
d="M272 209q35 0 61.5 10.5t44 28t26.5 40t9 45.5q0 36 -12.5 62.5t-32.5 44t-45.5 25.5t-50.5 8q-49 0 -78 -23.5t-52 -60.5q-16 -25 -39 -25q-16 0 -28 11.5t-12 28.5q0 8 3 17q10 28 31 52.5t48.5 42.5t60 28.5t66.5 10.5q47 0 88 -16.5t71 -46t47 -70t17 -89.5
q0 -44 -16.5 -81.5t-46 -65t-70.5 -43.5t-90 -16h-98q-12 0 -20.5 -10t-8.5 -21q0 -12 10 -22t22 -10h276q20 0 30.5 -13t10.5 -29q0 -15 -10 -27.5t-31 -12.5h-276q-23 0 -43.5 9t-36 24.5t-24.5 36t-9 44.5q0 23 9 43.5t24.5 36t36 24.5t43.5 9h95z" />
    <glyph glyph-name="three" unicode="3" horiz-adv-x="444" 
d="M326 334q-1 -2 1 -4q28 -31 41 -67t13 -72q0 -41 -15 -79t-42.5 -67t-66.5 -47t-86 -18q-32 0 -64.5 9.5t-57.5 29.5q-17 13 -17 33q0 16 11 28.5t30 12.5q8 0 17 -5t20.5 -10.5t26 -10.5t34.5 -5q26 0 49 9.5t40.5 26.5t28 40t10.5 50q0 34 -11.5 56.5t-28 36.5
t-35.5 21t-33 10q-5 1 -7.5 4.5t-2.5 7.5q0 5 2.5 8.5t7.5 3.5q29 0 49.5 20.5t20.5 49.5t-21 49t-50 20q-17 0 -28.5 -6.5t-25.5 -6.5q-17 0 -29 12t-12 29q0 23 22 36q16 9 35 13.5t38 4.5q33 0 61.5 -13t48.5 -34t31.5 -49t11.5 -58q0 -35 -17 -69z" />
    <glyph glyph-name="four" unicode="4" horiz-adv-x="530" 
d="M148 168h173q7 0 12 4.5t5 12.5v112q0 17 11.5 29t28.5 12t29 -12t12 -29v-112q0 -8 5 -12.5t12 -4.5h21q17 0 29 -12t12 -29t-12 -29t-29 -12h-21q-7 0 -12 -5t-5 -12v-28q0 -17 -12 -29t-29 -12t-29 12t-12 29v28q0 7 -4.5 12t-12.5 5h-247q-15 0 -28 12t-13 29
q0 12 7 22l265 410q12 18 35 18q11 0 22 -6q9 -6 13.5 -15.5t4.5 -19.5q0 -12 -6 -22z" />
    <glyph glyph-name="five" unicode="5" horiz-adv-x="558" 
d="M453 554q21 0 31 -12.5t10 -27.5q0 -16 -10.5 -29t-30.5 -13h-302q-6 0 -6 -6v-52q0 -6 6 -6h121q44 0 84.5 -15t71 -42t49 -65t18.5 -83q0 -49 -17 -89.5t-47 -70t-71 -46t-88 -16.5q-34 0 -66.5 10t-60 28t-48.5 42.5t-31 53.5q-3 9 -3 17q0 17 12 28.5t28 11.5
q25 1 39 -25q23 -42 52 -63t78 -21q25 0 50.5 8t45.5 25.5t32.5 44t12.5 62.5q0 23 -9 45.5t-26.5 40t-44 28t-61.5 10.5h-178q-13 0 -22 8.5t-9 21.5v167q0 12 9 21t22 9h359z" />
    <glyph glyph-name="six" unicode="6" horiz-adv-x="634" 
d="M506 178q0 20 -10 40.5t-30.5 37.5t-51 27t-71.5 10q-35 0 -66.5 -9t-55.5 -26t-37.5 -38t-13.5 -42q0 -24 15.5 -45t40 -37t55.5 -24.5t62 -8.5q44 0 75 12t50.5 29.5t28.5 37.5t9 36zM588 178q0 -41 -18.5 -77t-51 -62.5t-77.5 -42t-97 -15.5q-66 0 -124.5 25.5
t-98.5 76.5q-27 35 -42.5 81t-15.5 104q0 73 24.5 127t63.5 90t89 53.5t101 17.5q64 0 120 -25q11 -5 18 -15t7 -23q0 -17 -12 -29t-29 -12q-9 0 -18 4q-41 18 -86 18q-35 0 -67.5 -10.5t-59.5 -32t-45 -55t-23 -78.5q9 10 25 23t40 25.5t54 20.5t69 8q58 0 105 -15.5
t80 -42t51 -62.5t18 -77z" />
    <glyph glyph-name="seven" unicode="7" horiz-adv-x="477" 
d="M261 270q0 53 -16.5 91.5t-43.5 64t-62.5 37.5t-73.5 12q-17 0 -29 12t-12 29q0 18 12.5 29.5t29.5 11.5q50 0 99.5 -17t89 -52.5t64 -89.5t24.5 -128v-40q0 -13 10 -12l71 7q11 0 16 -8t5 -18q0 -8 -5.5 -15t-15.5 -9l-70 -9q-11 -1 -11 -12v-133q0 -16 -11.5 -28.5
t-29.5 -12.5q-17 0 -29 12t-12 29v120q0 13 -10 12l-40 -4q-10 -1 -19.5 5.5t-9.5 20.5q0 8 5.5 15t16.5 9l46 6q6 1 8.5 4t2.5 8v53z" />
    <glyph glyph-name="eight" unicode="8" horiz-adv-x="566" 
d="M145 191q0 -26 10.5 -49.5t29 -41.5t44 -28.5t54.5 -10.5t54 10.5t44 28.5t29.5 41.5t10.5 49.5q0 48 -31.5 83t-79.5 45q-7 1 -7 8q0 6 6 8q25 8 38 27.5t13 41.5q0 31 -21 52.5t-56 21.5t-56 -21.5t-21 -52.5q0 -22 12.5 -41.5t37.5 -27.5q6 -2 6 -8q0 -7 -6 -8
q-49 -9 -80 -44.5t-31 -83.5zM135 348q-10 20 -10 55q0 32 11 60t32 48.5t50 32.5t65 12q35 0 64 -12t50 -32.5t32.5 -48.5t11.5 -60t-10 -55q33 -29 52.5 -69t19.5 -88q0 -45 -17.5 -83.5t-47.5 -67t-70 -45t-85 -16.5t-85 16.5t-70 45t-47.5 67t-17.5 83.5q0 48 19.5 88
t52.5 69z" />
    <glyph glyph-name="nine" unicode="9" horiz-adv-x="634" 
d="M128 359q0 -20 10 -40.5t30 -37t51 -27t72 -10.5q35 0 66.5 10t55 26.5t37.5 37t14 41.5q0 24 -15.5 45t-40.5 36.5t-55.5 24.5t-61.5 9q-44 0 -75 -12t-50.5 -29.5t-28.5 -37.5t-9 -36zM46 359q0 41 18.5 77t51 62.5t77 42t97.5 15.5q66 0 124.5 -25.5t98.5 -76.5
q27 -35 42.5 -81t15.5 -104q0 -73 -24.5 -127t-63.5 -90t-89 -53.5t-101 -17.5q-64 0 -120 25q-11 5 -18 15t-7 23q0 17 12 29t29 12q5 0 9 -1t9 -3q40 -18 86 -18q34 0 67 10.5t60 32t45 55t23 78.5q-9 -10 -25 -23t-39.5 -25t-54 -20.5t-69.5 -8.5q-58 0 -105 15.5t-80 42
t-51 62.5t-18 77z" />
    <glyph glyph-name="colon" unicode=":" horiz-adv-x="250" 
d="M153.778 42.999q0 16.5381 10.9756 29.7686q10.9746 13.2305 34.0234 13.2305q23.0479 0 34.0234 -13.2305q10.9746 -13.2305 10.9746 -29.7686q0 -15.4355 -10.9746 -29.2178q-10.9756 -13.7812 -34.0234 -13.7812q-23.0488 0 -34.0234 13.2305
q-10.9756 13.2305 -10.9756 29.7686zM153.778 395.999q0 16.5381 10.9756 29.7686q10.9746 13.2305 34.0234 13.2305q23.0479 0 34.0234 -13.2305q10.9746 -13.2305 10.9746 -29.7686q0 -15.4355 -10.9746 -29.2178q-10.9756 -13.7812 -34.0234 -13.7812
q-23.0488 0 -34.0234 13.2305q-10.9756 13.2305 -10.9756 29.7686z" />
    <glyph glyph-name="semicolon" unicode=";" horiz-adv-x="212" 
d="M90 51q0 19 13 28.5t28 9.5q16 0 28.5 -10.5t12.5 -30.5q0 -60 -23.5 -119t-68.5 -101q-10 -10 -25 -10q-14 0 -25 9.5t-11 25.5q0 8 3 13t8 11q32 36 46 72.5t14 82.5v19zM153.778 395.999q0 16.5381 10.9756 29.7686q10.9746 13.2305 34.0234 13.2305
q23.0479 0 34.0234 -13.2305q10.9746 -13.2305 10.9746 -29.7686q0 -15.4355 -10.9746 -29.2178q-10.9756 -13.7812 -34.0234 -13.7812q-23.0488 0 -34.0234 13.2305q-10.9756 13.2305 -10.9756 29.7686z" />
    <glyph glyph-name="less" unicode="&#x3c;" horiz-adv-x="579" 
d="M52 236q-20 9 -20 32t20 32l388 164q6 3 15 3q22 0 31 -20q3 -7 3 -14q0 -10 -5.5 -19t-15.5 -14l-312 -132l312 -132q10 -4 15.5 -13t5.5 -19q0 -8 -3 -14q-4 -9 -13 -14.5t-19 -6.5q-8 0 -14 2z" />
    <glyph glyph-name="equal" unicode="=" horiz-adv-x="550" 
d="M131 321q-17 0 -29 12t-12 29t12 29t29 12h288q17 0 29 -12t12 -29t-12 -29t-29 -12h-288zM131 135q-17 0 -29 12t-12 29t12 29t29 12h288q17 0 29 -12t12 -29t-12 -29t-29 -12h-288z" />
    <glyph glyph-name="greater" unicode="&#x3e;" horiz-adv-x="579" 
d="M527.003 236q19.999 9 19.999 32t-19.999 32l-387.976 164q-6 3 -15 3q-21.998 0 -30.998 -20q-2.99902 -7 -2.99902 -14q0 -10 5.49902 -19q5.5 -9 15.499 -14l311.981 -132l-311.981 -132q-9.99902 -4 -15.499 -13q-5.49902 -9 -5.49902 -19q0 -8 2.99902 -14
q4 -9 13 -14.5q8.99902 -5.5 18.998 -6.5q8 0 14 2z" />
    <glyph glyph-name="question" unicode="?" horiz-adv-x="530" 
d="M262 -232q0 -15 -10 -27t-31 -12t-31 12t-10 27t10 27t31 12t31 -12t10 -27zM221 474q-17 0 -29 12t-12 29t12 29t29 12q46 0 86 -18t69.5 -48.5t46.5 -72t17 -89.5v-103q0 -40 -12 -75.5t-33.5 -64.5t-51 -50t-64.5 -31q-17 -3 -17 -20v-73q0 -17 -12 -29t-29 -12
t-29 12t-12 29v127q0 17 12 29t30 12q28 0 52.5 11t43 30.5t29.5 46t11 58.5v103q0 31 -11 58t-30 46.5t-43.5 30.5t-52.5 11z" />
    <glyph glyph-name="at" unicode="@" horiz-adv-x="1088" 
d="M789 73q2 -2 3.5 -2.5t3.5 -1.5q1 -1 4 -1q60 0 96 44.5t36 131.5v26q0 79 -31.5 151t-100.5 132q-57 50 -121 72.5t-133 22.5q-207 0 -328 -180q-63 -95 -63 -210q0 -93 37 -171t115 -138q54 -42 114 -61t125 -19q109 0 218 67q7 4 14 4q14 0 24.5 -13.5t10.5 -28.5
q0 -49 -164 -93q-47 -12 -90 -12h-25q-85 0 -164 31t-149 98q-75 71 -109.5 156.5t-34.5 183.5q0 199 162 345q66 60 141 89t156 29h18q102 0 190.5 -42t162.5 -132q54 -66 79 -139t25 -152q0 -199 -135 -253q-17 -7 -36.5 -11t-47.5 -4q-21 0 -34 5.5t-23 12.5t-19.5 12.5
t-23.5 5.5q-7 0 -21 -7.5t-34 -16t-45.5 -16t-55.5 -7.5q-47 0 -92 18t-79.5 52t-55.5 81.5t-21 106.5q0 55 19 102.5t52 82.5t78.5 55t98.5 20q19 0 39 -2.5t40 -8.5q32 -10 49.5 -22t30.5 -12h4q7 0 11.5 4.5t9.5 10.5t11.5 10.5t16.5 4.5q14 0 26 -9.5t12 -29.5v-365
q0 -6 3 -7zM708 239q0 47 -14.5 82.5t-38.5 59t-54.5 35t-62.5 11.5t-63 -12t-55 -35.5t-39 -59t-15 -81.5q0 -47 14.5 -82t38.5 -58.5t55 -35t63 -11.5q31 0 62 11.5t55 35t39 58.5t15 82z" />
    <glyph glyph-name="A" unicode="A" 
d="M159 41q0 -17 -12 -29t-29 -12t-29 12t-12 29v479q0 73 24.5 127t63.5 90t89 53.5t101 17.5t101 -17.5t89.5 -53.5t63.5 -90t24 -127v-479q0 -17 -12 -29t-29 -12t-29 12t-12 29v290q0 10 -7 17t-18 7h-343q-10 0 -17 -7t-7 -17v-290zM551 519q0 54 -16.5 93t-44 64.5
t-63 37.5t-72.5 12q-38 0 -73 -12t-62.5 -37.5t-44 -64t-16.5 -92.5v-58q0 -11 7 -18t17 -7h343q25 0 25 25v57z" />
    <glyph glyph-name="B" unicode="B" horiz-adv-x="662" 
d="M373 90q37 0 64.5 11.5t45 30.5t26 43.5t8.5 51.5q0 26 -8.5 50.5t-26 43.5t-45 30.5t-74.5 11.5h-167q-10 0 -17 -7t-7 -17v-225q0 -10 7 -17t17 -7h177zM90 756q0 17 12 29t29 12h167q65 0 113.5 -21.5t80 -57t47 -80t15.5 -89.5q0 -73 -36 -134q-2 -2 -2 -7
q0 -6 5 -11q37 -35 57.5 -78.5t20.5 -91.5q0 -41 -14 -80t-42 -70t-70.5 -50t-99.5 -19h-242q-17 0 -29 12t-12 29v707zM373 445q30 0 57 -6q4 0 6 2q36 46 36 108q0 31 -10 61t-31.5 53.5t-54.5 37.5t-78 14h-102q-10 0 -17 -7t-7 -18v-220q0 -11 7 -18t17 -7h177z" />
    <glyph glyph-name="C" unicode="C" horiz-adv-x="681" 
d="M624 12q-79 -32 -161 -32q-74 0 -145.5 25.5t-128 76.5t-91.5 129t-35 183t35 182.5t91.5 129t128 76.5t145.5 25q17 0 29 -12t12 -29t-12 -29t-29 -12q-60 0 -117 -19.5t-101.5 -60.5t-72 -103.5t-27.5 -147.5q0 -86 27.5 -148.5t72.5 -103t102 -60.5t116 -20
q33 0 65.5 6t63.5 19q7 3 16 3q17 0 29 -12t12 -29q0 -27 -25 -37z" />
    <glyph glyph-name="D" unicode="D" horiz-adv-x="716" 
d="M245 799q103 0 180 -34.5t127.5 -90.5t75.5 -127t25 -143q0 -73 -25 -143.5t-75.5 -126t-127.5 -90t-180 -34.5h-114q-17 0 -29 12t-12 29v707q0 17 12 29t29 12h114zM193 717q-9 0 -15 -6.5t-6 -14.5v-584q0 -8 6 -14t14 -6h53q84 0 145.5 26.5t101.5 70.5t59.5 100
t19.5 115q0 58 -19.5 114.5t-59.5 100.5t-101.5 71t-145.5 27h-52z" />
    <glyph glyph-name="E" unicode="E" horiz-adv-x="532" 
d="M77 520q0 73 24 127t63.5 89.5t89.5 53t101 17.5q31 0 61.5 -6t59.5 -20q24 -11 24 -37q0 -17 -12 -29t-29 -12q-8 0 -17 4q-41 18 -87 18q-38 0 -73 -12t-62.5 -37t-44 -64t-16.5 -92v-43q0 -17 12 -29t29 -12h156q17 0 29 -12t12 -29t-12 -29t-29 -12h-156
q-17 0 -29 -12t-12 -29v-45q0 -54 16.5 -92.5t44 -64t62.5 -37.5t73 -12q45 0 86 18q9 4 18 4q17 0 29 -12t12 -29q0 -13 -7 -23t-18 -15q-54 -25 -120 -25q-51 0 -101 17.5t-89 53.5t-63.5 90t-24.5 127v252z" />
    <glyph glyph-name="F" unicode="F" horiz-adv-x="562" 
d="M435 445q17 0 29 -12t12 -29t-12 -29t-29 -12h-228q-14 0 -24.5 -10t-10.5 -25v-286q0 -17 -12 -29t-29 -12t-29 12t-12 29v714q0 17 12 29t29 12h366q17 0 29 -12t12 -29t-12 -29t-29 -12h-290q-14 0 -24.5 -10.5t-10.5 -24.5v-200q0 -14 10.5 -24.5t24.5 -10.5h228z
" />
    <glyph glyph-name="G" unicode="G" horiz-adv-x="895" 
d="M544 355q-17 0 -29 12t-12 29t12 29t29 12h278q17 0 29 -12t12 -29q0 -106 -35 -184t-91.5 -129.5t-128.5 -76.5t-145 -25q-74 0 -145.5 25t-128 76.5t-91.5 129.5t-35 183t34.5 182.5t91 129t128.5 76.5t146 25q17 0 29 -12t12 -29t-12 -29t-29 -12q-60 0 -117 -20
t-102 -60.5t-72 -103t-27 -147.5q0 -86 27.5 -148.5t72 -103t101.5 -60.5t117 -20q52 0 103 15.5t93.5 47.5t73 81t42.5 115q3 17 -1 23t-10.5 8t-11.5 2h-208z" />
    <glyph glyph-name="H" unicode="H" horiz-adv-x="736" 
d="M564 767q0 17 12 29t29 12t29 -12t12 -29v-726q0 -17 -12 -29t-29 -12t-29 12t-12 29v294q0 8 -6 14t-15 6h-351q-8 0 -14 -6t-6 -14v-294q0 -17 -12 -29t-29 -12t-29 12t-12 29v726q0 17 12 29t29 12t29 -12t12 -29v-309q0 -8 6 -14.5t14 -6.5h351q9 0 15 6.5t6 14.5
v309z" />
    <glyph glyph-name="I" unicode="I" horiz-adv-x="262" 
d="M90 767q0 17 12 29t29 12t29 -12t12 -29v-726q0 -17 -12 -29t-29 -12t-29 12t-12 29v726z" />
    <glyph glyph-name="J" unicode="J" horiz-adv-x="428" 
d="M351 269q0 -73 -24.5 -127t-63.5 -90t-89 -53.5t-101 -17.5q-17 0 -29 12t-12 29t12 29t29 12q37 0 72 12t62.5 37.5t44.5 64.5t17 92v498q0 17 12 29t29 12t29 -12t12 -29v-498z" />
    <glyph glyph-name="K" unicode="K" horiz-adv-x="709" 
d="M446 539q40 -11 76.5 -33.5t64 -57t43.5 -81t16 -105.5v-221q0 -17 -12 -29t-29 -12t-29 12t-12 29v221q0 53 -16.5 92t-44 64t-63 37t-72.5 12q-38 0 -73 -12t-62.5 -37t-44 -64t-16.5 -92v-221q0 -17 -12 -29t-29 -12t-29 12t-12 29v725q0 17 12 29t29 12t29 -12
t12 -29v-242q0 -10 7 -17.5t18 -7.5q5 0 13 5q37 22 84 36q14 3 24 16l169 235q12 17 34 17q13 0 23 -7q18 -12 18 -33q0 -13 -8 -24l-121 -167q-5 -8 -5 -15q0 -19 18 -23z" />
    <glyph glyph-name="L" unicode="L" horiz-adv-x="408" 
d="M77 269v498q0 17 12 29t29 12t29 -12t12 -29v-498q0 -53 17 -92t44.5 -64.5t62.5 -37.5t72 -12q17 0 29 -12t12 -29t-12 -29t-29 -12q-51 0 -101 17.5t-89 53.5t-63.5 90t-24.5 127z" />
    <glyph glyph-name="M" unicode="M" horiz-adv-x="1184" 
d="M159 41q0 -17 -12 -29t-29 -12t-29 12t-12 29v479q0 73 24.5 127t63.5 90t89 53.5t101 17.5q69 0 133.5 -31.5t103.5 -95.5q39 64 103.5 95.5t133.5 31.5q51 0 101 -17.5t89 -53.5t63.5 -90t24.5 -127v-479q0 -17 -12 -29t-29 -12t-29 12t-12 29v479q0 54 -16.5 92.5
t-44 64t-63 37.5t-72.5 12q-38 0 -73 -12t-62.5 -37.5t-44 -64t-16.5 -92.5v-165q0 -17 -12 -29t-29 -12t-29 12t-12 29v166q0 53 -16.5 92t-44 64t-63 37t-72.5 12q-38 0 -73 -12t-62.5 -37.5t-44 -64t-16.5 -92.5v-479z" />
    <glyph glyph-name="N" unicode="N" 
d="M159 41q0 -17 -12 -29t-29 -12t-29 12t-12 29v479q0 73 24.5 127t63.5 90t89 53.5t101 17.5t101 -17.5t89.5 -53t63.5 -89.5t24 -127v-480q0 -17 -12 -29t-29 -12t-29 12t-12 29v478q0 54 -16.5 93t-44 64.5t-63 37.5t-72.5 12q-38 0 -73 -12t-62.5 -37t-44 -64
t-16.5 -92v-480z" />
    <glyph glyph-name="O" unicode="O" horiz-adv-x="919" 
d="M142 393q0 -85 27.5 -147.5t72 -103t101.5 -60.5t117 -20q59 0 116 20t101.5 60.5t72 103t27.5 147.5t-27 148t-71.5 103.5t-101.5 60.5t-117 20t-117 -20t-102 -60.5t-72 -103.5t-27 -148zM460 -20q-74 0 -145.5 25t-128 76.5t-91.5 129t-35 182.5t34.5 183t91 129.5
t128.5 76.5t146 25t145.5 -25t128 -76.5t91 -129.5t34.5 -183t-35 -182.5t-91 -129t-128 -76.5t-145 -25z" />
    <glyph glyph-name="P" unicode="P" horiz-adv-x="692" 
d="M90 756q0 17 12 29t29 12h237q51 0 101 -17.5t89 -53.5t63.5 -90t24.5 -127t-24.5 -127t-63.5 -89.5t-89 -53t-101 -17.5q-80 0 -150 40q-10 7 -22 7q-24 0 -24 -29v-199q0 -17 -12 -29t-29 -12t-29 12t-12 29v715zM192 715q-8 -1 -14 -7t-6 -14v-185q0 -53 16.5 -92
t44 -64t62.5 -37t73 -12q37 0 72.5 12t63 37t44 64t16.5 92t-16.5 92t-44 64.5t-63 37.5t-72.5 12h-176z" />
    <glyph glyph-name="Q" unicode="Q" horiz-adv-x="922" 
d="M59 394q0 105 34.5 182.5t91 129t128.5 76.5t146 25q73 0 145 -25t128.5 -76.5t91.5 -129t35 -182.5q0 -69 -15 -124.5t-41 -100.5q-5 -12 -5 -18q0 -3 0.5 -5.5t1.5 -5.5q12 -39 12 -80q0 -9 -1 -19.5t-5 -20t-12 -15.5t-23 -6q-17 0 -29.5 12t-12.5 32v36
q-57 -51 -127.5 -75t-142.5 -24q-74 0 -145.5 25t-128 76.5t-91.5 129.5t-35 183zM459 725q-60 0 -117 -20t-102 -60.5t-72 -103t-27 -147.5q0 -86 27.5 -148.5t72 -103t101.5 -60.5t117 -20q63 0 123 21.5t106 69.5q6 6 6 17q0 7 -4.5 14t-10 13.5t-11 12.5t-7.5 12
q-3 7 -3 14q0 15 11.5 27.5t29.5 12.5q17 0 28 -10.5t21 -23.5q14 32 21.5 69.5t7.5 82.5q0 85 -27.5 147.5t-72.5 103t-102 60.5t-116 20z" />
    <glyph glyph-name="R" unicode="R" horiz-adv-x="709" 
d="M192 715q-8 0 -14 -6t-6 -14v-185q0 -53 16.5 -92t44 -64.5t62.5 -37.5t73 -12q37 0 72.5 12t63 37.5t44 64.5t16.5 92t-16.5 92t-44 64t-63 37t-72.5 12h-176zM453 223q13 -60 58 -98t102 -54q15 -2 24 -14.5t9 -25.5q0 -17 -12.5 -29t-27.5 -12q-14 0 -30.5 4.5t-33 12
t-31.5 16.5t-27 18q-38 28 -66.5 67t-41.5 85q-7 28 -38 31q-32 3 -60 12.5t-60 26.5q-12 6 -22 6q-24 0 -24 -28v-200q0 -17 -12 -29t-29 -12t-29 12t-12 29v715q0 17 12 29t29 12h237q63 0 114 -21.5t87.5 -60t56.5 -91t20 -114.5q0 -47 -11.5 -90t-35 -78.5t-58 -62
t-79.5 -41.5q-11 -3 -9 -15z" />
    <glyph glyph-name="S" unicode="S" horiz-adv-x="633" 
d="M374 681q-11 20 -30.5 32.5t-44.5 12.5q-35 0 -60 -25t-25 -60t25 -60t60 -25q60 0 112.5 -22.5t91.5 -61.5t61.5 -91.5t22.5 -112.5q0 -59 -22.5 -111.5t-61.5 -91.5t-91.5 -61.5t-112.5 -22.5q-44 0 -84.5 12.5t-75 35.5t-61.5 55t-43 71q-3 7 -3 16q0 17 12 29t29 12
q13 0 23 -7t15 -18q23 -55 74 -89.5t114 -34.5q43 0 80.5 16t65.5 44t44 65.5t16 79.5q0 43 -16 80.5t-44 65.5t-65.5 44t-80.5 16q-35 0 -65 13t-53 36t-36 53t-13 65q0 34 13 64.5t36 53.5t53 36t65 13q48 0 86.5 -24t60.5 -63q5 -12 5 -20q0 -17 -12 -29t-29 -12
q-12 0 -21.5 6t-14.5 15z" />
    <glyph glyph-name="T" unicode="T" horiz-adv-x="508" 
d="M295 41q0 -17 -12 -29t-29 -12t-29 12t-12 29v639q0 14 -10.5 24.5t-24.5 10.5h-129q-17 0 -29 12t-12 29t12 29t29 12h410q17 0 29 -12t12 -29t-12 -29t-29 -12h-129q-14 0 -24.5 -10.5t-10.5 -24.5v-639z" />
    <glyph glyph-name="U" unicode="U" 
d="M551 767q0 17 12 29t29 12t29 -12t12 -29v-499q0 -73 -24.5 -127t-63.5 -89.5t-89 -53t-101 -17.5t-101 17.5t-89.5 53t-63.5 89.5t-24 127v499q0 17 12 29t29 12t29 -12t12 -29v-497q0 -54 16.5 -93t44 -64.5t62.5 -37.5t73 -12q37 0 72.5 12t63 37t44 64t16.5 92v499z
" />
    <glyph glyph-name="V" unicode="V" horiz-adv-x="760" 
d="M35 750q-3 7 -3 16q0 17 11 29t29 12q12 0 22.5 -6.5t15.5 -18.5l269 -636l271 637q11 25 37 25q19 0 30 -13t11 -28q0 -9 -3 -16l-308 -726q-11 -25 -38 -25q-26 0 -37 25z" />
    <glyph glyph-name="W" unicode="W" horiz-adv-x="947" 
d="M39 749q-7 16 -0.5 31.5t22.5 22.5t31.5 0.5t22.5 -22.5l277 -650l37 87q6 13 0 27l-62 147q-6 14 -0.5 27t18.5 19q14 5 27.5 0t18.5 -19l42 -98l42 98q6 14 19.5 19t26.5 0q14 -6 19 -19t0 -27l-63 -147q-6 -14 0 -27l38 -87l278 651q7 16 22.5 22.5t31.5 -0.5
t22 -22.5t-1 -31.5l-309 -725q-7 -16 -22.5 -22.5t-31.5 0.5q-15 7 -22 24l-50 116l-49 -116q-7 -17 -23 -24q-15 -7 -30.5 -0.5t-22.5 22.5z" />
    <glyph glyph-name="X" unicode="X" horiz-adv-x="812" 
d="M36 739q-12 12 -12 28q0 17 12.5 29t29.5 12t29 -13l285 -303q5 -5 11 -8t14 -3q15 0 26 11l283 302q12 13 29 13t29.5 -12t12.5 -29t-11 -28l-290 -309q-10 -10 -10 -25q0 -11 10 -23l293 -312q11 -11 11 -27q0 -17 -12.5 -29.5t-29.5 -12.5q-16 0 -29 13l-286 304
q-11 11 -26 11q-16 0 -25 -11l-285 -304q-13 -13 -29 -13q-17 0 -29.5 12t-12.5 29q0 16 12 28l291 312q9 9 9 23t-9 25z" />
    <glyph glyph-name="Y" unicode="Y" horiz-adv-x="648" 
d="M520 766q0 17 12 29t29 12t29 -12t12 -29v-123q0 -61 -17 -108.5t-46 -82t-66.5 -56.5t-79.5 -32q-13 -3 -20.5 -13t-7.5 -23v-287q0 -17 -12 -29t-29 -12t-29 12t-12 29v287q0 13 -7.5 23t-20.5 13q-42 10 -80 32t-66.5 56.5t-45.5 82t-17 108.5v123q0 17 12 29t29 12
t29 -12t12 -29v-121q0 -54 16.5 -93t44 -64.5t62.5 -37.5t73 -12q37 0 72.5 12t63 37t44 64t16.5 92v123z" />
    <glyph glyph-name="Z" unicode="Z" horiz-adv-x="633" 
d="M66 11q-11 0 -22.5 9t-11.5 26q0 11 6 20l449 651h-414q-17 0 -28.5 12t-11.5 29t11.5 28t28.5 11h487q11 0 20 -6q15 -11 15 -29q0 -11 -6 -20l-449 -651h421q17 0 28.5 -11t11.5 -29q0 -17 -11.5 -28.5t-28.5 -11.5h-495z" />
    <glyph glyph-name="bracketleft" unicode="[" horiz-adv-x="563" 
d="M341 -137q17 0 29.5 -12t12.5 -29t-12.5 -29t-29.5 -12h-209q-17 0 -29.5 12t-12.5 29v809q0 17 12.5 28t29.5 11h209q17 0 29.5 -12t12.5 -29t-12.5 -29t-29.5 -12h-157q-12 0 -12 -11v-702q0 -12 12 -12h157z" />
    <glyph glyph-name="backslash" unicode="\" horiz-adv-x="418" 
d="M103.02 535q-4 10 -12.5 15.5q-8.49902 5.5 -19.498 5.5q-6 0 -13.999 -3q-12 -5 -18.499 -16q-6.5 -11 0.5 -29l279.982 -661q4 -10 12.499 -15.5q8.5 -5.5 19.499 -5.5q7 0 13.999 3q10 4 15.499 12.5q5.5 8.5 5.5 19.5q0 6 -3 14z" />
    <glyph glyph-name="bracketright" unicode="]" horiz-adv-x="563" 
d="M222 588q-17 0 -29.5 12t-12.5 29t12.5 29t29.5 12h209q17 0 29.5 -12t12.5 -29v-809q0 -17 -12.5 -28t-29.5 -11h-209q-17 0 -29.5 12t-12.5 29t12.5 29t29.5 12h157q12 0 12 11v702q0 12 -12 12h-157z" />
    <glyph glyph-name="asciicircum" unicode="^" horiz-adv-x="429" 
d="M119 606q-8 -8 -20 -8q-14 0 -25 11t-11 27q0 17 15 27l124 72q4 3 12 3t13 -3l124 -72q15 -10 15 -27q0 -16 -11 -27t-26 -11q-11 0 -19 8l-87 79q-5 3 -9 3q-5 0 -8 -3z" />
    <glyph glyph-name="underscore" unicode="_" horiz-adv-x="634" 
d="M73 -82q-17 0 -29 12t-12 29t12 29t29 12h488q17 0 29 -12t12 -29t-12 -29t-29 -12h-488z" />
    <glyph glyph-name="grave" unicode="`" horiz-adv-x="251" 
d="M161 625l-142 39q-10 3 -14.5 12t-4.5 19q0 13 10 24.5t24 11.5q5 0 11 -3l130 -66q13 -7 13 -18q0 -8 -7.5 -15t-13.5 -5.5z" />
    <glyph glyph-name="a" unicode="a" horiz-adv-x="725" 
d="M158 361q-16 -39 -16 -92q0 -54 16.5 -92.5t44 -64t63 -37.5t72.5 -12t72.5 12t62.5 37q28 26 44.5 64.5t16.5 92.5q0 53 -17 92q-16 39 -43.5 64t-63 37t-72.5 12q-38 0 -73 -12t-62.5 -37t-44.5 -64zM534 496q0 17 12 29t29 12t29 -12t12 -29v-267q0 -21 4.5 -43
t13.5 -43t22.5 -38.5t30.5 -28.5q8 -5 13 -13q9 -14 5.5 -30.5t-16 -25t-24.5 -8t-22 7.5q-22 15 -36.5 31t-25.5 37q-5 10 -12.5 11.5t-13.5 -6.5q-41 -51 -99 -75t-118 -24q-51 0 -101 17.5t-89 53.5t-63.5 90t-24.5 127t24 127t63.5 89.5t89.5 53t101 17.5q54 0 105 -19
t91 -57v16z" />
    <glyph glyph-name="b" unicode="b" horiz-adv-x="665" 
d="M77 766q0 17 12 29t29 12t29 -12t12 -29v-286q40 38 91 56.5t105 18.5q52 0 102 -17.5t89 -53t63 -89.5t24 -127t-24 -127t-63.5 -90t-89.5 -53.5t-101 -17.5t-101 17.5t-89 53.5t-63.5 90t-24.5 127v498zM159 270q0 -55 17 -94t44.5 -64.5t62.5 -37.5t72 -12t72.5 12
t63 37.5t44 64.5t16.5 92t-16.5 92t-44 64t-62.5 37t-73 12q-37 0 -72 -12t-62.5 -36.5t-44.5 -63t-17 -91.5z" />
    <glyph glyph-name="c" unicode="c" horiz-adv-x="529" 
d="M462 530q24 -11 24 -37q0 -17 -12 -29t-29 -12q-8 0 -17 4q-41 18 -87 18q-38 0 -73 -12t-62.5 -37t-44 -64t-16.5 -92q0 -54 16.5 -92.5t44 -64t62.5 -37.5t73 -12q45 0 86 18q9 4 18 4q17 0 29 -12t12 -29q0 -13 -7 -23t-18 -15q-54 -25 -120 -25q-51 0 -101 17.5
t-89 53.5t-63.5 90t-24.5 127t24 127t63.5 89.5t89.5 53t101 17.5q31 0 61.5 -6t59.5 -20z" />
    <glyph glyph-name="d" unicode="d" horiz-adv-x="665" 
d="M588 268q0 -73 -24.5 -127t-63.5 -90t-89 -53.5t-101 -17.5t-101 17.5t-89.5 53.5t-63.5 90t-24 127t24 127t63 89.5t89 53t102 17.5q54 0 105 -18.5t91 -56.5v286q0 17 12 29t29 12t29 -12t12 -29v-498zM506 270q0 53 -17 91.5t-44.5 63t-62.5 36.5t-72 12
q-38 0 -73 -12t-62.5 -37t-44 -64t-16.5 -92t16.5 -92t44 -64.5t63 -37.5t72.5 -12t72 12t62.5 37.5t44.5 64.5t17 94z" />
    <glyph glyph-name="e" unicode="e" horiz-adv-x="645" 
d="M340 473q-31 0 -62 -9t-55.5 -24.5t-40 -36.5t-15.5 -45q0 -21 14 -41.5t37.5 -37t55 -26.5t66.5 -10q41 0 71.5 10.5t51 27t30.5 37t10 40.5q0 16 -9 36t-28.5 37.5t-50.5 29.5t-75 12zM60 268q0 58 15.5 104t42.5 81q40 51 98.5 76.5t124.5 25.5q52 0 97 -15.5
t77.5 -42t51 -62.5t18.5 -77t-18 -77t-51 -62.5t-80 -42t-105 -15.5q-39 0 -69.5 8.5t-54 20.5t-39.5 25t-25 23q5 -45 23 -78.5t45 -55t59.5 -32t67.5 -10.5q45 0 86 18q5 2 9 3t9 1q17 0 29 -12t12 -29q0 -13 -7 -23t-18 -15q-56 -25 -120 -25q-51 0 -101 17.5t-89 53.5
t-63.5 90t-24.5 127z" />
    <glyph glyph-name="f" unicode="f" horiz-adv-x="449" 
d="M122 432q0 13 -10 25q-10 10 -25 10h-36q-13 0 -25 10q-10 12 -10 25t10 25q12 10 25 10h38q16 0 26 12q9 12 12 29q9 59 35.5 101.5t64.5 71.5t82.5 43t90.5 14q17 0 29 -12t12 -29t-12 -29q-11 -12 -29 -12q-32 0 -61.5 -8.5t-55.5 -26.5q-49 -35 -72 -109
q-5 -16 5 -30q10 -15 26 -15h147q13 0 25 -10q10 -12 10 -25t-10 -25q-12 -10 -25 -10h-150q-13 0 -25 -10q-10 -12 -10 -25v-391q0 -17 -12 -29q-11 -12 -29 -12q-17 0 -29 12t-12 29v391z" />
    <glyph glyph-name="g" unicode="g" horiz-adv-x="709" 
d="M341 -19q-51 0 -101 17.5t-89 53.5t-63.5 90t-24.5 127t24 127t63.5 89.5t89.5 53t101 17.5q52 0 102 -17.5t89 -53t63 -89.5t24 -127v-252q0 -73 -24 -127t-63.5 -90t-89.5 -53.5t-101 -17.5q-17 0 -29 12t-12 29t12 29t29 12q37 0 72.5 12t63 37.5t44 64.5t16.5 92v40
q-40 -38 -91 -57t-105 -19zM341 63q37 0 72.5 12t63 37.5t44 64t16.5 92.5q0 53 -16.5 92t-44 64t-63 37t-72.5 12t-72.5 -12t-63 -37t-44 -64t-16.5 -92q0 -54 17 -92.5t44.5 -64t62.5 -37.5t72 -12z" />
    <glyph glyph-name="h" unicode="h" horiz-adv-x="723" 
d="M172 531q0 -10 7 -17.5t18 -7.5q5 0 13 5q35 23 75.5 34t82.5 11q51 0 101 -17.5t89 -53t63.5 -89.5t24.5 -127v-228q0 -17 -12 -29t-29 -12t-29 12t-12 29v228q0 53 -16.5 92t-44 64t-63 37t-72.5 12q-38 0 -73 -12t-62.5 -37t-44 -64t-16.5 -92v-228q0 -17 -12 -29
t-29 -12t-29 12t-12 29v726q0 17 12 29t29 12t29 -12t12 -29v-236z" />
    <glyph glyph-name="i" unicode="i" horiz-adv-x="306" 
d="M77 496q0 17 12 29t29 12t29 -12t12 -29v-268q0 -51 26.5 -97.5t69.5 -74.5q10 -6 14.5 -15.5t4.5 -19.5q0 -16 -11.5 -28.5t-28.5 -12.5q-14 0 -29.5 9.5t-30.5 24t-28 30.5t-22 30q-21 33 -34 71t-13 78v273zM77 671q0 15 10 27.5t31 12.5t31 -12.5t10 -27.5
q0 -14 -10 -26.5t-31 -12.5t-31 12.5t-10 26.5z" />
    <glyph glyph-name="j" unicode="j" horiz-adv-x="262" 
d="M90 673q0 15 9.5 27t31.5 12q21 0 31 -12t10 -27t-10 -27t-31 -12q-22 0 -31.5 12t-9.5 27zM172 18q0 -73 -24 -127t-63.5 -90t-89.5 -53.5t-101 -17.5q-17 0 -29 12t-12 29t12 29t29 12q37 0 72.5 12t63 37.5t44 64.5t16.5 92v478q0 17 12 29t29 12t29 -12t12 -29v-478z
" />
    <glyph glyph-name="k" unicode="k" horiz-adv-x="704" 
d="M446 371q40 -11 76.5 -33.5t64 -57t43.5 -81t16 -105.5v-53q0 -17 -12 -29t-29 -12t-29 12t-12 29v53q0 53 -16.5 92t-44 64t-63 37t-72.5 12q-38 0 -73 -12t-62.5 -37t-44 -64t-16.5 -92v-53q0 -17 -12 -29t-29 -12t-29 12t-12 29v726q0 17 12 29t29 12t29 -12t12 -29
v-411q0 -10 7 -17.5t18 -7.5q5 0 13 5q37 22 84 36q14 3 24 16l105 152q12 17 34 17q18 0 29.5 -12.5t11.5 -27.5q0 -13 -8 -24l-57 -84q-5 -8 -5 -15q0 -19 18 -23z" />
    <glyph glyph-name="l" unicode="l" horiz-adv-x="428" 
d="M77 766q0 17 12 29t29 12t29 -12t12 -29v-498q0 -53 17 -92t44.5 -64.5t62.5 -37.5t72 -12q17 0 29 -12t12 -29t-12 -29t-29 -12q-51 0 -101 17.5t-89 53.5t-63.5 90t-24.5 127v498z" />
    <glyph glyph-name="m" unicode="m" horiz-adv-x="1185" 
d="M593 0q-17 0 -29 12t-12 29v228q0 53 -17 92t-44.5 64t-63 37t-72.5 12t-72 -12t-62.5 -37t-44.5 -64t-17 -92v-228q0 -17 -12 -29t-29 -12t-29 12t-12 29v228q0 73 24.5 127t63.5 89.5t89 53t101 17.5q69 0 134 -31.5t104 -95.5q19 32 45.5 56t57.5 39.5t65 23.5t69 8
q51 0 101 -17.5t89 -53t63.5 -89.5t24.5 -127v-228q0 -17 -12 -29t-29 -12t-29 12t-12 29v228q0 53 -17 92t-44.5 64t-62.5 37t-72 12t-72.5 -12t-63 -37t-44 -64t-16.5 -92v-228q0 -17 -12 -29t-29 -12z" />
    <glyph glyph-name="n" unicode="n" 
d="M633 41q0 -17 -12 -29t-29 -12t-28.5 12t-11.5 29v227q0 53 -17 92t-44.5 64.5t-63 37.5t-72.5 12t-72 -12t-62.5 -37.5t-44.5 -64.5t-17 -92v-227q0 -17 -12 -29t-29 -12t-29 12t-12 29v227q0 73 24.5 127t63.5 90t89 53.5t101 17.5t101 -17.5t89.5 -53.5t63.5 -90
t24 -127v-227z" />
    <glyph glyph-name="o" unicode="o" horiz-adv-x="676" 
d="M338 -20q-51 0 -101 17.5t-89 53.5t-63.5 90t-24.5 127t24 127t63.5 89.5t89.5 53t101 17.5q52 0 102 -17.5t89 -53t63 -89.5t24 -127t-24 -127t-63.5 -90t-89.5 -53.5t-101 -17.5zM338 62q37 0 72.5 12t63 37.5t44 64.5t16.5 92t-16.5 92t-44 64t-63 37t-72.5 12
t-72.5 -12t-63 -37t-44 -64t-16.5 -92t17 -92t44.5 -64.5t62.5 -37.5t72 -12z" />
    <glyph glyph-name="p" unicode="p" horiz-adv-x="665" 
d="M77 267q0 73 24.5 127t63.5 90t89 53.5t101 17.5t101 -17.5t89.5 -53.5t63.5 -90t24 -127t-24 -127t-63 -89.5t-89 -53t-102 -17.5q-54 0 -105 18.5t-91 56.5v-277q0 -17 -12 -29t-29 -12t-29 12t-12 29v489zM159 265q0 -53 17 -91.5t44.5 -63t62.5 -36.5t72 -12
q38 0 73 12t62.5 37t44 64t16.5 92t-16.5 92t-44 64.5t-63 37.5t-72.5 12t-72 -12t-62.5 -37.5t-44.5 -64.5t-17 -94z" />
    <glyph glyph-name="q" unicode="q" horiz-adv-x="665" 
d="M588 -222q0 -17 -12 -29t-29 -12t-29 12t-12 29v277q-40 -38 -91 -56.5t-105 -18.5q-52 0 -102 17.5t-89 53t-63 89.5t-24 127t24 127t63.5 90t89.5 53.5t101 17.5t101 -17.5t89 -53.5t63.5 -90t24.5 -127v-489zM506 265q0 55 -17 94t-44.5 64.5t-62.5 37.5t-72 12
t-72.5 -12t-63 -37.5t-44 -64.5t-16.5 -92t16.5 -92t44 -64t62.5 -37t73 -12q37 0 72 12t62.5 36.5t44.5 63t17 91.5z" />
    <glyph glyph-name="r" unicode="r" horiz-adv-x="524" 
d="M159 41q0 -17 -12 -29t-29 -12t-29 12t-12 29v228q0 73 24 127t63.5 89.5t89.5 53t101 17.5q66 0 122 -25q10 -5 16.5 -15t6.5 -22q0 -17 -12 -29t-29 -12q-10 0 -17 3q-41 18 -87 18q-38 0 -73 -12t-62.5 -37t-44 -64t-16.5 -92v-228z" />
    <glyph glyph-name="s" unicode="s" horiz-adv-x="575" 
d="M454 508q26 -18 26 -38t-11.5 -30.5t-28.5 -10.5q-16 0 -30 9q-58 38 -113 38q-126 0 -126 -71q0 -65 132 -65q209 0 209 -167q0 -193 -221 -193q-170 0 -240 135q-5 13 -5 21q0 17 11.5 28.5t29.5 11.5q20 0 31 -15t22 -28q63 -74 152 -74q138 0 138 109q0 92 -136 92
q-206 0 -206 145q0 151 210 150q88 -1 156 -47z" />
    <glyph glyph-name="t" unicode="t" horiz-adv-x="463" 
d="M194 268q0 -53 16.5 -92t44 -64.5t63 -37.5t72.5 -12q17 0 29 -12t12 -29t-12 -29t-29 -12q-51 0 -101 17.5t-89 53.5t-63.5 90t-24.5 127v163q0 15 -10.5 25t-24.5 10h-34q-14 0 -24.5 10.5t-10.5 24.5q0 15 10.5 25t24.5 10h34q14 0 24.5 10.5t10.5 24.5v196
q0 17 12 29t29 12t29 -12t12 -29v-196q0 -14 10.5 -24.5t24.5 -10.5h123q14 0 24.5 -10t10.5 -25q0 -14 -10.5 -24.5t-24.5 -10.5h-123q-14 0 -24.5 -10t-10.5 -25v-163z" />
    <glyph glyph-name="u" unicode="u" 
d="M633 496v-228q0 -73 -24 -127t-63.5 -90t-89.5 -53.5t-101 -17.5t-101 17.5t-89 53.5t-63.5 90t-24.5 127v228q0 17 12 29t29 12t29 -12t12 -29v-228q0 -53 17 -92t44.5 -64.5t62.5 -37.5t72 -12t72.5 12t63 37.5t44.5 64.5t17 92v228q0 17 11.5 29t28.5 12t29 -12
t12 -29z" />
    <glyph glyph-name="v" unicode="v" horiz-adv-x="531" 
d="M35 479q-3 7 -3 16q0 12 6.5 22.5t17.5 15.5q7 3 16 3q12 0 22.5 -6.5t15.5 -18.5l156 -366l155 366q5 12 15.5 18.5t22.5 6.5q8 0 16 -3q24 -11 24 -37q0 -10 -3 -17l-193 -455q-11 -24 -37 -24q-27 0 -38 24z" />
    <glyph glyph-name="w" unicode="w" horiz-adv-x="1185" 
d="M593 397q17 0 29 -12t12 -29v-88q0 -53 16.5 -92t44 -64t63 -37t72.5 -12t72 12t62.5 37t44.5 64t17 92v228q0 17 12 29t29 12t29 -12t12 -29v-228q0 -73 -24.5 -127t-63.5 -89.5t-89 -53t-101 -17.5q-35 0 -69 8t-65 23.5t-57.5 39.5t-45.5 56q-39 -64 -104 -95.5
t-134 -31.5q-51 0 -101 17.5t-89 53t-63.5 89.5t-24.5 127v228q0 17 12 29t29 12t29 -12t12 -29v-228q0 -53 17 -92t44.5 -64t62.5 -37t72 -12t72.5 12t63 37t44.5 64t17 92v88q0 17 12 29t29 12z" />
    <glyph glyph-name="x" unicode="x" horiz-adv-x="584" 
d="M482 524q13 13 30 13t28.5 -12t11.5 -28q0 -18 -11 -29l-171 -183q-6 -8 -6 -17q0 -10 6 -16l171 -183q11 -11 11 -29q0 -15 -11.5 -27.5t-28.5 -12.5q-18 0 -30 14l-165 176q-7 7 -18 7t-18 -7l-164 -176q-12 -14 -30 -14q-17 0 -29 12t-12 28q0 17 12 29l170 183
q7 7 7 16t-7 17l-170 183q-12 12 -12 29t12 28.5t29 11.5t30 -13l164 -177q8 -8 18 -8t18 8z" />
    <glyph glyph-name="y" unicode="y" horiz-adv-x="723" 
d="M551 497q0 17 12 29t29 12t29 -12t12 -29v-480q0 -73 -24.5 -127t-63.5 -89.5t-89 -53t-101 -17.5q-31 0 -61.5 6t-59.5 20q-24 11 -24 37q0 17 12 29t29 12q9 0 17 -4q40 -18 87 -18q37 0 72.5 12t63 37t44 64t16.5 92v46q-40 -38 -91 -57t-105 -19q-51 0 -101 17.5
t-89.5 53t-63.5 89.5t-24 127v223q0 17 12 29t29 12t29 -12t12 -29v-221q0 -54 16.5 -93t44 -64.5t62.5 -37.5t73 -12q37 0 72.5 12t63 37t44 64t16.5 92v223z" />
    <glyph glyph-name="z" unicode="z" horiz-adv-x="564" 
d="M64 496q0 17 11.5 28.5t28.5 11.5h364q14 0 26 -10q6 -5 11 -15q3 -6 3 -15q0 -14 -10 -25q-76 -88 -159.5 -184.5t-160.5 -184.5q-20 -23 11 -23h303q17 0 28.5 -11.5t11.5 -28.5t-11.5 -28.5t-28.5 -11.5h-421q-14 0 -25 11q-14 11 -14 29q0 16 10 26q77 89 159 184.5
t160 184.5q20 22 -10 22h-247q-17 0 -28.5 11.5t-11.5 28.5z" />
    <glyph glyph-name="braceleft" unicode="{" horiz-adv-x="430" 
d="M84 228q-19 0 -28.5 12.5t-9.5 28.5t9.5 29t28.5 13h25q11 0 11 11v133q0 57 17.5 109.5t64.5 99.5q10 10 22.5 20.5t25.5 19.5t26 15t23 6q17 0 28 -11.5t11 -27.5q0 -12 -6 -21.5t-16 -14.5q-17 -8 -31.5 -19.5t-29.5 -28.5q-31 -34 -41.5 -69.5t-10.5 -77.5v-372
q0 -40 10.5 -76.5t40.5 -69.5t62 -49q22 -10 22 -35q0 -17 -11 -28t-28 -11q-9 0 -18 4q-42 19 -79 56q-47 47 -64.5 99.5t-17.5 109.5v133q0 12 -11 12h-25z" />
    <glyph glyph-name="bar" unicode="|" horiz-adv-x="430" 
d="M250 -28q0 -14 -10.5 -24.5t-24.5 -10.5t-24.5 10.5t-10.5 24.5v842q0 14 10.5 24.5t24.5 10.5t24.5 -10.5t10.5 -24.5v-842z" />
    <glyph glyph-name="braceright" unicode="}" horiz-adv-x="430" 
d="M321 227q-11 0 -11 -12v-133q0 -57 -17.5 -109.5t-64.5 -99.5q-37 -37 -79 -56q-9 -4 -18 -4q-17 0 -28 11t-11 28q0 25 22 35q32 16 62 49t40.5 69.5t10.5 76.5v372q0 42 -10.5 77.5t-41.5 69.5q-15 17 -29.5 28.5t-31.5 19.5q-10 5 -16 14.5t-6 21.5q0 16 11 27.5
t28 11.5q10 0 23 -6t26 -15t25.5 -19.5t22.5 -20.5q47 -47 64.5 -99.5t17.5 -109.5v-133q0 -11 11 -11h25q19 0 28.5 -13t9.5 -29t-9.5 -28.5t-28.5 -12.5h-25z" />
    <glyph glyph-name="asciitilde" unicode="~" horiz-adv-x="403" 
d="M221 5l-69 39q-11 6 -19 6q-14 0 -23 -9t-11 -23q-2 -13 -11.5 -21.5t-22.5 -8.5q-14 0 -23 9.5t-9 22.5q0 20 8.5 37.5t22.5 30t32 20t37 7.5q29 0 51 -13l69 -39q10 -6 19 -6q14 0 23 9t11 23q2 13 11.5 21.5t22.5 8.5q14 0 23 -9.5t9 -22.5q0 -20 -8.5 -37.5
t-22.5 -30t-32 -20t-37 -7.5q-29 0 -51 13zM221 5l-69 39q-11 6 -19 6q-14 0 -23 -9t-11 -23q-2 -13 -11.5 -21.5t-22.5 -8.5q-14 0 -23 9.5t-9 22.5q0 20 8.5 37.5t22.5 30t32 20t37 7.5q29 0 51 -13l69 -39q10 -6 19 -6q14 0 23 9t11 23q2 13 11.5 21.5t22.5 8.5
q14 0 23 -9.5t9 -22.5q0 -20 -8.5 -37.5t-22.5 -30t-32 -20t-37 -7.5q-29 0 -51 13z" />
    <glyph glyph-name="exclamdown" unicode="&#xa1;" horiz-adv-x="262" 
d="M90 507q0 17 12 28t29 11t29 -11t12 -28t-12 -28t-29 -11t-29 11t-12 28zM166 -228q0 -14 -10.5 -24.5t-24.5 -10.5t-24.5 10.5t-10.5 24.5v500q0 14 10.5 24.5t24.5 10.5t24.5 -10.5t10.5 -24.5v-500z" />
    <glyph glyph-name="cent" unicode="&#xa2;" horiz-adv-x="532" 
d="M302 592q0 14 10.5 24.5t24.5 10.5t24.5 -10.5t10.5 -24.5v-26q0 -11 11 -13q20 -2 39.5 -8t38.5 -14q25 -10 25 -38q0 -17 -12 -29t-29 -12q-8 0 -17 4q-41 18 -87 18q-38 0 -73 -12t-62.5 -37t-44 -64t-16.5 -92t16.5 -92t44 -64.5t62.5 -37.5t73 -12q48 0 87 19
q7 3 17 3q17 0 29 -12t12 -29q0 -26 -24 -37q-41 -17 -79 -23q-11 -2 -11 -12v-26q0 -14 -10.5 -24.5t-24.5 -10.5t-24.5 10.5t-10.5 24.5v27q0 11 -10 12q-45 7 -86 28.5t-73 56.5t-51 85t-19 114t19 114t50.5 85t73 56t86.5 28q10 1 10 13v27z" />
    <glyph glyph-name="sterling" unicode="&#xa3;" horiz-adv-x="474" 
d="M406 57q-32 -32 -67.5 -44.5t-78.5 -12.5h-182q-16 0 -23 10t-7 22t8 22t22 10h61q21 0 39 7.5t31.5 21t21.5 31t8 37.5q0 27 -12 48.5t-32 37.5q-10 7 -22 7h-95q-14 0 -22 10t-8 22t7 22t23 10h20q3 0 3 3q-22 37 -22 80v11q2 31 15 58t34 46.5t48.5 31t58.5 11.5h9
q45 0 81.5 -26t53.5 -68q1 -3 1.5 -5.5t0.5 -5.5q0 -12 -8.5 -21.5t-23.5 -9.5q-16 0 -26 19q-13 25 -33 41t-49 16h-4q-18 0 -35 -6.5t-30 -18.5t-21.5 -28.5t-9.5 -35.5q0 -54 19 -73t33 -19h139q16 0 23 -10t7 -22t-8 -22t-22 -10h-54q-2 0 -2 -3q23 -44 23 -84
q0 -26 -8.5 -51t-24.5 -47q-1 -1 -1 -3t4 -2q52 0 89 34q9 8 16 16t12 16q4 6 7.5 11.5t8.5 10.5q8 8 20 8q13 0 20.5 -8t7.5 -18t-4 -19.5t-9 -17.5q-6 -11 -14 -20.5t-17 -19.5z" />
    <glyph glyph-name="currency" unicode="&#xa4;" horiz-adv-x="648" 
d="M324 473q-38 0 -73 -12t-62.5 -37t-44 -64t-16.5 -92t16.5 -92t44 -64.5t62.5 -37.5t73 -12q37 0 72.5 12t63 37.5t44 64.5t16.5 92t-16.5 92t-44 64t-63 37t-72.5 12zM54 493q-8 8 -8 18t8 18q8 7 18 7q9 0 17 -7l36 -36q4 -4 9 -4q4 0 9 3q38 32 85.5 47.5t95.5 15.5
q46 0 90 -13.5t82 -41.5q3 -3 8 -3t9 4l27 28q8 7 18 7t18 -7q7 -8 7 -18t-7 -18l-28 -27q-4 -5 -4 -10l2 -6q26 -35 41 -80t15 -102t-15 -102.5t-41 -79.5q-2 -6 -2 -7q0 -5 4 -9l28 -28q7 -8 7 -17q0 -10 -7 -18q-8 -8 -18 -8t-18 8l-27 28q-5 3 -9 3q-2 0 -8 -2
q-38 -29 -82 -42.5t-90 -13.5q-48 0 -95.5 15.5t-85.5 47.5q-5 4 -9 4q-5 0 -9 -4l-36 -36q-8 -8 -17 -8q-10 0 -18 8t-8 18q0 9 8 17l39 39q4 4 4 9l-2 6q-23 34 -36 76t-13 96t13 96t36 75l2 6q0 5 -5 10z" />
    <glyph glyph-name="yen" unicode="&#xa5;" horiz-adv-x="463" 
d="M266 15q0 -15 -10 -25t-25 -10q-14 0 -24 10t-10 25v152q0 6 -4 11q-3 3 -7 13q-1 4 -6 4h-103q-25 0 -25 25q0 11 7 18.5t18 7.5h69q6 0 9 4.5t1 9.5l-16 36q-2 6 -9 6h-54q-25 0 -25 25q0 11 7 18.5t18 7.5h22q6 0 9 4.5t1 9.5l-60 138q-3 7 -3 15q0 14 10 24.5
t25 10.5q21 0 31 -19l112 -259q3 -7 8 -7q6 0 9 7l110 257q4 9 12 15t19 6q14 0 24.5 -10.5t10.5 -24.5q0 -8 -4 -15l-58 -138q-2 -5 1 -9.5t8 -4.5h21q11 0 18.5 -7.5t7.5 -18.5t-7.5 -18t-18.5 -7h-51q-9 0 -10 -6l-15 -36q-2 -5 1 -9.5t8 -4.5h67q11 0 18.5 -7.5
t7.5 -18.5t-7.5 -18t-18.5 -7h-100q-5 0 -6 -4q-2 -4 -4 -7t-4 -7q-5 -8 -5 -14v-148z" />
    <glyph glyph-name="brokenbar" unicode="&#xa6;" horiz-adv-x="250" 
d="M160 349q0 -14 -10.5 -24.5t-24.5 -10.5t-24.5 10.5t-10.5 24.5v405q0 14 10.5 24.5t24.5 10.5t24.5 -10.5t10.5 -24.5v-405zM160 -226q0 -14 -10.5 -24.5t-24.5 -10.5t-24.5 10.5t-10.5 24.5v405q0 14 10.5 24.5t24.5 10.5t24.5 -10.5t10.5 -24.5v-405z" />
    <glyph glyph-name="section" unicode="&#xa7;" horiz-adv-x="458" 
d="M202 360q-19 3 -36 8t-30 15q-36 28 -36 72q0 23 11.5 41.5t30.5 31t43.5 19.5t50.5 7q31 0 61 -10t53 -30q8 -5 8 -16q0 -13 -11 -22q-8 -6 -18 -6q-11 0 -15 4q-3 3 -6 5.5t-6 4.5q-26 18 -68 18q-28 0 -50.5 -11t-22.5 -36q0 -14 8.5 -22.5t20.5 -13.5t25 -7t23 -3
q24 -2 49.5 -6.5t46.5 -16t34 -31t13 -50.5q0 -36 -24 -62.5t-59 -39.5q29 -10 48.5 -30.5t19.5 -59.5q0 -26 -12.5 -47t-33 -35.5t-47 -22.5t-54.5 -8q-39 0 -76 16.5t-62 53.5q-4 7 -4 15q0 9 6 17q9 11 22 11q9 0 17 -8l6 -9q8 -11 17 -18.5t20 -13.5q11 -7 27.5 -10.5
t33.5 -3.5q16 0 31 3t27 10.5t19 19t7 28.5q0 25 -23.5 36t-55 17t-63 10.5t-47.5 16.5q-37 28 -37 72q0 21 9.5 38t26 29.5t37.5 20t45 9.5zM134 273q-6 -9 -1 -17t17 -14t29.5 -9t35.5 -3t35.5 3t32 9.5t25 16.5t13.5 24q5 23 -14 33.5t-48 10.5q-18 0 -37 -3.5t-36 -10.5
t-31 -17t-21 -23z" />
    <glyph glyph-name="dieresis" unicode="&#xa8;" horiz-adv-x="242" 
d="M0 677q0 15 10 27t31 12t31 -12t10 -27t-10 -27t-31 -12t-31 12t-10 27zM160 677q0 15 10 27t31 12t31 -12t10 -27t-10 -27t-31 -12t-31 12t-10 27z" />
    <glyph glyph-name="copyright" unicode="&#xa9;" horiz-adv-x="682" 
d="M341 31q42 0 83 14t73 43.5t51.5 74t19.5 105.5t-19.5 105.5t-51.5 73.5t-73 43t-83 14q-43 0 -83.5 -14t-72.5 -43t-51.5 -73.5t-19.5 -105.5t19.5 -105.5t51.5 -74t73 -43.5t83 -14zM63 268q0 73 24 127t63.5 89.5t89.5 53t101 17.5t101 -17.5t89 -53t63.5 -89.5
t24.5 -127t-24.5 -127t-63.5 -90t-89 -53.5t-101 -17.5t-101 17.5t-89 53.5t-63.5 90t-24.5 127zM398 157q3 1 5.5 1.5t5.5 0.5q10 0 17 -7t7 -17q0 -14 -14 -22q-35 -15 -72 -15q-30 0 -59.5 10t-52.5 31t-37.5 53t-14.5 76q0 43 14 75t37.5 53t53 31t59.5 10q38 0 71 -15
q15 -8 15 -22q0 -10 -7 -17t-17 -7q-2 0 -10 2q-27 11 -52 11q-22 0 -42.5 -7t-36.5 -22t-26 -38t-10 -54q0 -32 10 -55t26 -38t36.5 -22t42.5 -7q26 0 51 11z" />
    <glyph glyph-name="ordfeminine" unicode="&#xaa;" horiz-adv-x="341" 
d="M50 458.809q-8 -19.5332 -8 -46.0791q0 -27.0459 8.25 -46.3291q8.25 -19.2822 22 -32.0547q13.75 -12.7715 31.5 -18.7812q17.75 -6.01074 36.25 -6.01074t36.25 6.01074q17.75 6.00977 31.25 18.5312q14 13.0225 22.25 32.3047q8.25 19.2832 8.25 46.3291
q0 26.5459 -8.5 46.0791q-8 19.5332 -21.75 32.0547t-31.5 18.5312q-17.75 6.01074 -36.25 6.01074q-19 0 -36.5 -6.01074q-17.5 -6.00977 -31.25 -18.5312t-22.25 -32.0547zM238 526.424q0 8.51465 6 14.5244q6 6.01074 14.5 6.01074t14.5 -6.01074q6 -6.00977 6 -14.5244
v-133.729q0 -10.5176 2.25 -21.5361t6.75 -21.5371q4.5 -10.5176 11.25 -19.2832q6.75 -8.76465 15.25 -14.2744q4 -2.50391 6.5 -6.51074q4.5 -7.01172 2.75 -15.2764q-1.75 -8.26367 -8 -12.5205q-6.25 -4.25781 -12.25 -4.00684q-6 0.25 -11 3.75586
q-11 7.5127 -18.25 15.5264t-12.75 18.5322q-2.5 5.00781 -6.25 5.75977q-3.75 0.750977 -6.75 -3.25586q-20.5 -25.5439 -49.5 -37.5645t-59 -12.0205q-25.5 0 -50.5 8.76562q-25 8.76465 -44.5 26.7959q-19.5 18.0303 -31.75 45.0762q-12.25 27.0469 -12.25 63.6084
q0 36.5625 12 63.6084q12 27.0469 31.75 44.8271t44.75 26.5449t50.5 8.76465q27 0 52.5 -9.51562q25.5 -9.5166 45.5 -28.5488v8.01367z" />
    <glyph glyph-name="guillemotleft" unicode="&#xab;" horiz-adv-x="361" 
d="M115.006 386q7 14 0.5 27.5t-20.499 18.5t-27.498 -1t-17.499 -20l-37.998 -138q-1.99902 -7 0 -14l37.998 -139q4 -14 17.499 -19.5t27.498 -0.5t20.499 18.5t-0.5 27.5l-52.9971 104q-9.99902 16 0 32zM258.006 386q7 14 0.5 27.5t-20.499 18.5t-27.498 -1t-17.499 -20
l-37.998 -138q-1.99902 -7 0 -14l37.998 -139q4 -14 17.499 -19.5t27.498 -0.5t20.499 18.5t-0.5 27.5l-52.9971 104q-9.99902 16 0 32z" />
    <glyph glyph-name="logicalnot" unicode="&#xac;" horiz-adv-x="777" 
d="M125 231q-14 0 -24.5 10t-10.5 25q0 14 10.5 24.5t24.5 10.5h527q14 0 24.5 -10.5t10.5 -24.5v-187q0 -14 -10.5 -24.5t-24.5 -10.5t-24.5 10.5t-10.5 24.5v139q0 13 -12 13h-480z" />
    <glyph glyph-name="uni00AD" unicode="&#xad;" horiz-adv-x="436" 
d="M104 226q-17 0 -29 12t-12 29t12 29t29 12h228q17 0 29 -12t12 -29t-12 -29t-29 -12h-228z" />
    <glyph glyph-name="registered" unicode="&#xae;" horiz-adv-x="326" 
d="M163 401q22 0 44 7.5t38.5 23t27 39.5t10.5 56t-10.5 55.5t-27 39t-38.5 23t-44 7.5q-23 0 -44.5 -7.5t-38.5 -23t-27.5 -39t-10.5 -55.5t10.5 -56t27.5 -39.5t38.5 -23t44.5 -7.5zM24 527q0 36 12 63t31.5 45t44.5 26.5t51 8.5q25 0 50 -8.5t45 -26.5t32 -45t12 -63
q0 -37 -12 -64t-32 -45t-45 -26.5t-50 -8.5q-26 0 -50.5 8.5t-44.5 26.5t-32 45t-12 64zM128 596q-5 0 -5 -4v-40q0 -23 13.5 -34t29.5 -11t29 11t13 34t-13 33.5t-29 10.5h-38zM184 490q4 -16 18 -25q5 -4 11 -6t10 -4q3 -2 3 -6l-2 -6q-3 -4 -8 -4q-6 2 -13 5t-12 6
q-19 14 -23 33q-2 6 -9 7t-12.5 3t-12.5 5q-6 2 -5 2q-6 0 -6 -6v-42q0 -9 -8 -9q-9 0 -9 9v153q0 9 9 9h51q27 0 43.5 -17.5t16.5 -44.5q0 -20 -10 -36t-30 -23z" />
    <glyph glyph-name="macron" unicode="&#xaf;" horiz-adv-x="407" 
d="M46 671q0 15 10.5 25t24.5 10h245q15 0 25 -10t10 -25q0 -14 -10 -24.5t-25 -10.5h-245q-14 0 -24.5 10.5t-10.5 24.5z" />
    <glyph glyph-name="degree" unicode="&#xb0;" horiz-adv-x="310" 
d="M140 393.018q-25.5 0 -50.5 8.73438q-25 8.73535 -44.5 26.7041q-19.5 17.9697 -31.75 44.9238q-12.25 26.9531 -12.25 63.3916q0 36.4375 12 63.3906q12 26.9541 31.75 44.6738t44.75 26.4551q25 8.73438 50.5 8.73438q26 0 51 -8.73438q25 -8.73535 44.5 -26.4551
t31.5 -44.6738q12 -26.9531 12 -63.3906q0 -36.4385 -12 -63.3916q-12 -26.9541 -31.75 -44.9238q-19.75 -17.9688 -44.75 -26.7041q-25 -8.73438 -50.5 -8.73438zM140 433.947q18.5 0 36.25 5.98926q17.75 5.99023 31.5 18.7178q13.75 12.7285 22 32.1953t8.25 45.9219
q0 26.4541 -8.25 45.9209t-22 31.9453t-31.5 18.4688q-17.75 5.98926 -36.25 5.98926t-36.25 -5.98926q-17.75 -5.99023 -31.5 -18.4688t-22 -31.9453t-8.25 -45.9209q0 -26.4551 8.5 -45.9219t22.25 -32.1953q13.75 -12.7275 31.25 -18.7178q17.5 -5.98926 36 -5.98926z
" />
    <glyph glyph-name="plusminus" unicode="&#xb1;" horiz-adv-x="508" 
d="M90 24q0 11 7 18t17 7h280q10 0 17 -7t7 -18q0 -10 -7 -17t-17 -7h-280q-10 0 -17 7t-7 17zM254 114q-10 0 -17 7.5t-7 16.5v88q0 12 -8 20t-20 8h-87q-10 0 -17 7t-7 17t7 17t17 7h87q12 0 20 8t8 20v88q0 10 7 16.5t17 6.5t17 -6.5t7 -16.5v-88q0 -12 8 -20t20 -8h88
q10 0 17 -7t7 -17t-7 -17t-17 -7h-88q-12 0 -20 -8t-8 -20v-88q0 -9 -7 -16.5t-17 -7.5z" />
    <glyph glyph-name="twosuperior" unicode="&#xb2;" horiz-adv-x="264" 
d="M122 509.321q17.5 0 30.75 5.24121t22 13.9756q8.75 8.73535 13.25 19.9658q4.5 11.2314 4.5 22.7119q0 17.9688 -6.25 31.1963t-16.25 21.9619q-10 8.73535 -22.75 12.7285t-25.25 3.99316q-24.5 0 -39 -11.7295q-14.5 -11.7305 -26 -30.1982
q-8 -12.4785 -19.5 -12.4785q-8 0 -14 5.73926q-6 5.74023 -6 14.2256q0 3.99414 1.5 8.48633q5 13.9756 15.5 26.2051q10.5 12.2285 24.25 21.2129q13.75 8.98535 30 14.2266q16.25 5.24023 33.25 5.24023q23.5 0 44 -8.23535q20.5 -8.23633 35.5 -22.9609t23.5 -34.9404
q8.5 -20.2148 8.5 -44.6729q0 -21.9629 -8.25 -40.6807t-23 -32.4443t-35.25 -21.7129t-45 -7.98633h-49q-6 0 -10.25 -4.99121q-4.25 -4.99219 -4.25 -10.4824q0 -5.99023 5 -10.9814t11 -4.99121h138q10 0 15.25 -6.48926q5.25 -6.48828 5.25 -14.4746
q0 -7.4873 -5 -13.7266t-15.5 -6.23926h-138q-11.5 0 -21.75 4.49219t-18 12.2285q-7.75 7.7373 -12.25 17.9697t-4.5 22.2119q0 11.4805 4.5 21.7129t12.25 17.9688q7.75 7.7373 18 12.2295t21.75 4.49219h47.5z" />
    <glyph glyph-name="threesuperior" unicode="&#xb3;" horiz-adv-x="222" 
d="M162.542 568.715q-0.498047 -0.998047 0.499023 -1.99707q13.9609 -15.4736 20.4424 -33.4424q6.48145 -17.9697 6.48145 -35.9385q0 -20.4648 -7.47852 -39.4326q-7.47949 -18.9678 -21.1904 -33.4424q-13.7119 -14.4756 -33.1562 -23.46
q-19.4453 -8.98438 -42.8799 -8.98438q-15.9551 0 -32.1592 4.74121q-16.2041 4.74219 -28.6689 14.7246q-8.47656 6.48926 -8.47656 16.4717q0 7.98633 5.48438 14.2266q5.48438 6.23926 14.958 6.23926q3.98926 0 8.47656 -2.49609t10.2207 -5.24121
q5.73438 -2.74512 12.9639 -5.24121q7.22949 -2.49512 17.2012 -2.49512q12.9639 0 24.4316 4.74121q11.4678 4.74219 20.1934 13.2275q8.72461 8.48535 13.96 19.9658t5.23535 24.958q0 16.9707 -5.7334 28.2012q-5.73438 11.2305 -13.9609 18.2188t-17.7002 10.4824
t-16.4541 4.99121q-2.49219 0.499023 -3.73926 2.24609q-1.24609 1.74707 -1.24609 3.74316q0 2.49609 1.24609 4.24316q1.24707 1.74707 3.73926 1.74707q14.46 0 24.6807 10.2324q10.2217 10.2324 10.2217 24.708q0 14.4746 -10.4707 24.458
q-10.4707 9.98242 -24.9297 9.98242q-8.47656 0 -14.21 -3.24414q-5.73438 -3.24414 -12.7148 -3.24414q-8.47559 0 -14.459 5.98926q-5.9834 5.99023 -5.9834 14.4756q0 11.4805 10.9697 17.9688q7.97754 4.49219 17.4512 6.73926q9.47266 2.24609 18.9463 2.24609
q16.4531 0 30.6631 -6.48926q14.2109 -6.48926 24.1826 -16.9707q9.97168 -10.4824 15.7051 -24.458q5.73438 -13.9766 5.73438 -28.9512q0 -17.4697 -8.47656 -34.4404z" />
    <glyph glyph-name="acute" unicode="&#xb4;" horiz-adv-x="369" 
d="M322 727q6 3 13 3q13 0 23.5 -10.5t10.5 -26.5q0 -11 -6 -20t-17 -12l-139 -35q-13 -3 -20 2.5t-7 15.5q0 13 13 19z" />
    <glyph glyph-name="mu" unicode="&#xb5;" horiz-adv-x="736" 
d="M569 23q-9 14 -23 14q-6 0 -14 -5q-36 -26 -78.5 -38t-85.5 -12q-46 0 -90.5 13.5t-82.5 42.5q-8 6 -15.5 3t-7.5 -13v-248q0 -17 -12 -29t-29 -12t-29 12t-12 29v717q0 17 12 29t29 12t29 -12t12 -29v-228q0 -53 16.5 -92t44 -64t62.5 -37t73 -12q37 0 72 12t62.5 37
t44.5 63.5t17 91.5v229q0 17 12 29t29 12t29 -12t12 -29v-455q0 -17 -12 -29t-29 -12q-26 0 -36 22z" />
    <glyph glyph-name="paragraph" unicode="&#xb6;" horiz-adv-x="567" 
d="M433 730q9 -23 9 -40v-591q0 -42 -28 -70.5t-70 -28.5t-69.5 28.5t-27.5 70.5v332q0 2 -1 3.5t-3 1.5q-37 0 -69.5 13.5t-57 37t-39 55.5t-14.5 70q0 37 14.5 69.5t40 56t58.5 37t71 13.5h230q11 0 19 -7.5t8 -18.5t-8 -18.5t-19 -7.5h-43q-2 -1 -1 -6zM386 690
q0 17 -12 30t-30 13t-30 -13t-12 -30v-591q0 -18 12 -31t30 -13t30 13t12 31v591z" />
    <glyph glyph-name="periodcentered" unicode="&#xb7;" horiz-adv-x="262" 
d="M148 266q0 15 10 27t31 12t31 -12t10 -27q0 -14 -10 -26.5t-31 -12.5t-31 12t-10 27z" />
    <glyph glyph-name="cedilla" unicode="&#xb8;" horiz-adv-x="292" 
d="M174 -99q0 -8 9 -12q46 -24 46 -75q0 -17 -6.5 -32t-18 -27t-27.5 -19t-35 -7q-11 0 -24.5 4t-25.5 11.5t-20.5 18.5t-8.5 25q0 12 8.5 20.5t20.5 8.5q9 0 14.5 -4.5t10.5 -11t10.5 -9.5t14.5 -3q24 2 27 25q0 13 -9 18.5t-19.5 10t-19.5 11t-9 21.5v130q0 13 9 22t22 9
t22 -9t9 -22v-104z" />
    <glyph glyph-name="onesuperior" unicode="&#xb9;" horiz-adv-x="164" 
d="M132.271 401.5q0 -8.5 -6.03516 -14.5t-14.585 -6t-14.585 6t-6.03516 14.5v212q-26.1523 -10 -53.8135 -10q-8.5498 0 -14.8359 6q-6.28711 6 -6.28711 14.5t6.03516 14.5t14.585 6q16.5967 0 32.6904 4.75t29.1699 14.75q5.0293 4.5 13.0762 4.5q8.5498 0 14.585 -6
t6.03516 -14.5v-246.5z" />
    <glyph glyph-name="ordmasculine" unicode="&#xba;" horiz-adv-x="342" 
d="M171 270.018q-25.5 0 -50.5 8.73438q-25 8.73535 -44.5 26.7041q-19.5 17.9697 -31.75 44.9238q-12.25 26.9531 -12.25 63.3916q0 36.4375 12 63.3906q12 26.9541 31.75 44.6738t44.75 26.4551q25 8.73438 50.5 8.73438q26 0 51 -8.73438q25 -8.73535 44.5 -26.4551
t31.5 -44.6738q12 -26.9531 12 -63.3906q0 -36.4385 -12 -63.3916q-12 -26.9541 -31.75 -44.9238q-19.75 -17.9688 -44.75 -26.7041q-25 -8.73438 -50.5 -8.73438zM171 310.947q18.5 0 36.25 5.98926q17.75 5.99023 31.5 18.7178q13.75 12.7285 22 32.1953t8.25 45.9219
q0 26.4541 -8.25 45.9209t-22 31.9453t-31.5 18.4688q-17.75 5.98926 -36.25 5.98926t-36.25 -5.98926q-17.75 -5.99023 -31.5 -18.4688t-22 -31.9453t-8.25 -45.9209q0 -26.4551 8.5 -45.9219t22.25 -32.1953q13.75 -12.7275 31.25 -18.7178q17.5 -5.98926 36 -5.98926z
" />
    <glyph glyph-name="guillemotright" unicode="&#xbb;" horiz-adv-x="359" 
d="M97 386q-7 14 -0.5 27.5t20.5 18.5t27.5 -1t17.5 -20l38 -138q2 -7 0 -14l-38 -139q-4 -14 -17.5 -19.5t-27.5 -0.5t-20.5 18.5t0.5 27.5l53 104q10 16 0 32zM238 386q-7 14 -0.5 27.5t20.5 18.5t27.5 -1t17.5 -20l38 -138q2 -7 0 -14l-38 -139q-4 -14 -17.5 -19.5
t-27.5 -0.5t-20.5 18.5t0.5 27.5l53 104q10 16 0 32z" />
    <glyph glyph-name="onequarter" unicode="&#xbc;" horiz-adv-x="508" 
d="M274.5 461.174q2 4.99316 6.25 7.74023q4.25 2.74609 9.75 2.74609q3 0 7 -1.49805q6 -2.49609 9.25 -7.99023q3.25 -5.49316 -0.25 -14.4824l-140 -330.096q-2 -4.99414 -6.25 -7.74121q-4.25 -2.74609 -9.75 -2.74609q-3.5 0 -7 1.49805q-5 1.99707 -7.75 6.24219
t-2.75 9.73828q0 2.99609 1.5 6.99121zM270 85.1436h86.5q3.5 0 6 2.25391t2.5 6.26074v56.0957q0 8.51465 5.75 14.5244q5.75 6.01074 14.25 6.01074t14.5 -6.01074q6 -6.00977 6 -14.5244v-56.0957q0 -4.00684 2.5 -6.26074t6 -2.25391h10.5q8.5 0 14.5 -6.01074
q6 -6.00977 6 -14.5244t-6 -14.5244q-6 -6.01074 -14.5 -6.01074h-10.5q-3.5 0 -6 -2.50391q-2.5 -2.50488 -2.5 -6.01074v-14.0234q0 -8.51465 -6 -14.5254q-6 -6.00977 -14.5 -6.00977t-14.5 6.00977q-6 6.01074 -6 14.5254v14.0234q0 3.50586 -2.25 6.01074
q-2.25 2.50391 -6.25 2.50391h-123.5q-7.5 0 -14 6.01074q-6.5 6.00977 -6.5 14.5244q0 6.01074 3.5 11.0186l132.5 205.351q6 9.01562 17.5 9.01562q5.5 0 11 -3.00488q4.5 -3.00586 6.75 -7.76367t2.25 -9.7666q0 -6.01074 -3 -11.0186zM117.271 267.536
q0 -8.5293 -6.03516 -14.5498t-14.585 -6.02051t-14.585 6.02051t-6.03516 14.5498v212.725q-26.1523 -10.0342 -53.8135 -10.0342q-8.5498 0 -14.8359 6.02051q-6.28711 6.02051 -6.28711 14.5498q0 8.52832 6.03516 14.5488t14.585 6.02051q16.5967 0 32.6904 4.7666
q16.0938 4.76562 29.1699 14.8008q5.0293 4.51465 13.0762 4.51465q8.5498 0 14.585 -6.02051t6.03516 -14.5488v-247.343z" />
    <glyph glyph-name="onehalf" unicode="&#xbd;" horiz-adv-x="502" 
d="M117.271 267.536q0 -8.5293 -6.03516 -14.5498t-14.585 -6.02051t-14.585 6.02051t-6.03516 14.5498v212.725q-26.1523 -10.0342 -53.8135 -10.0342q-8.5498 0 -14.8359 6.02051q-6.28711 6.02051 -6.28711 14.5498q0 8.52832 6.03516 14.5488t14.585 6.02051
q16.5967 0 32.6904 4.7666q16.0938 4.76562 29.1699 14.8008q5.0293 4.51465 13.0762 4.51465q8.5498 0 14.585 -6.02051t6.03516 -14.5488v-247.343zM257.5 461.174q2 4.99316 6.25 7.74023q4.25 2.74609 9.75 2.74609q3 0 7 -1.49805q6 -2.49609 9.25 -7.99023
q3.25 -5.49316 -0.25 -14.4824l-140 -330.096q-2 -4.99414 -6.25 -7.74121q-4.25 -2.74609 -9.75 -2.74609q-3.5 0 -7 1.49805q-5 1.99707 -7.75 6.24219t-2.75 9.73828q0 2.99609 1.5 6.99121zM328 113.679q17.5 0 30.75 5.25879t22 14.0244q8.75 8.76465 13.25 20.0342
q4.5 11.2686 4.5 22.7881q0 18.0312 -6.25 31.3037t-16.25 22.0381q-10 8.76465 -22.75 12.7715t-25.25 4.00684q-24.5 0 -39 -11.7705q-14.5 -11.7695 -26 -30.3018q-8 -12.5215 -19.5 -12.5215q-8 0 -14 5.76074q-6 5.75977 -6 14.2744q0 4.00586 1.5 8.51367
q5 14.0244 15.5 26.2949q10.5 12.2715 24.25 21.2871q13.75 9.01465 30 14.2734q16.25 5.25977 33.25 5.25977q23.5 0 44 -8.26465q20.5 -8.26367 35.5 -23.0391t23.5 -35.0596q8.5 -20.2852 8.5 -44.8271q0 -22.0371 -8.25 -40.8193t-23 -32.5557t-35.25 -21.7871
t-45 -8.01367h-49q-6 0 -10.25 -5.00879q-4.25 -5.00781 -4.25 -10.5176q0 -6.00977 5 -11.0186t11 -5.00879h138q10 0 15.25 -6.51074q5.25 -6.51172 5.25 -14.5254q0 -7.5127 -5 -13.7734t-15.5 -6.26074h-138q-11.5 0 -21.75 4.50781t-18 12.2715
q-7.75 7.7627 -12.25 18.0303t-4.5 22.2881q0 11.5195 4.5 21.7871t12.25 18.0312q7.75 7.7627 18 12.2705t21.75 4.50781h47.5z" />
    <glyph glyph-name="threequarters" unicode="&#xbe;" horiz-adv-x="552" 
d="M318.5 461.174q2 4.99316 6.25 7.74023q4.25 2.74609 9.75 2.74609q3 0 7 -1.49805q6 -2.49609 9.25 -7.99023q3.25 -5.49316 -0.25 -14.4824l-140 -330.096q-2 -4.99414 -6.25 -7.74121q-4.25 -2.74609 -9.75 -2.74609q-3.5 0 -7 1.49805q-5 1.99707 -7.75 6.24219
t-2.75 9.73828q0 2.99609 1.5 6.99121zM149.393 443.877q-0.503906 -1.00586 0.504883 -2.01074q14.1191 -15.5811 20.6748 -33.6758t6.55566 -36.1895q0 -20.6074 -7.56445 -39.707q-7.56348 -19.0996 -21.4316 -33.6758q-13.8672 -14.5762 -33.5342 -23.623
q-19.666 -9.04785 -43.3672 -9.04785q-16.1367 0 -32.5254 4.77539q-16.3887 4.77441 -28.9961 14.8271q-8.57227 6.53418 -8.57227 16.5869q0 8.04199 5.54688 14.3242q5.54688 6.2832 15.1279 6.2832q4.03418 0 8.57324 -2.51367q4.53809 -2.5127 10.3369 -5.27734
q5.7998 -2.76367 13.1113 -5.27734q7.3125 -2.5127 17.3975 -2.5127q13.1113 0 24.709 4.77441q11.5986 4.77539 20.4238 13.3193q8.82422 8.54492 14.1191 20.1055t5.29492 25.1309q0 17.0898 -5.79883 28.3984q-5.79883 11.3096 -14.1201 18.3457
q-8.32031 7.03711 -17.9014 10.5557q-9.58105 3.51758 -16.6406 5.02539q-2.52148 0.50293 -3.78223 2.2627q-1.26074 1.75879 -1.26074 3.76953q0 2.5127 1.26074 4.27246q1.26074 1.75879 3.78223 1.75879q14.623 0 24.9609 10.3037t10.3379 24.8799t-10.5898 24.6289
t-25.2139 10.0527q-8.57227 0 -14.3711 -3.26758q-5.7998 -3.2666 -12.8594 -3.2666q-8.57227 0 -14.624 6.03125q-6.05078 6.03125 -6.05078 14.5762q0 11.5605 11.0938 18.0947q8.06836 4.52344 17.6494 6.78516t19.1621 2.26172q16.6416 0 31.0127 -6.53418
q14.3721 -6.53418 24.457 -17.0889q10.0859 -10.5557 15.8848 -24.6289q5.7998 -14.0732 5.7998 -29.1523q0 -17.5918 -8.57324 -34.6807zM314 85.1436h86.5q3.5 0 6 2.25391t2.5 6.26074v56.0957q0 8.51465 5.75 14.5244q5.75 6.01074 14.25 6.01074t14.5 -6.01074
q6 -6.00977 6 -14.5244v-56.0957q0 -4.00684 2.5 -6.26074t6 -2.25391h10.5q8.5 0 14.5 -6.01074q6 -6.00977 6 -14.5244t-6 -14.5244q-6 -6.01074 -14.5 -6.01074h-10.5q-3.5 0 -6 -2.50391q-2.5 -2.50488 -2.5 -6.01074v-14.0234q0 -8.51465 -6 -14.5254
q-6 -6.00977 -14.5 -6.00977t-14.5 6.00977q-6 6.01074 -6 14.5254v14.0234q0 3.50586 -2.25 6.01074q-2.25 2.50391 -6.25 2.50391h-123.5q-7.5 0 -14 6.01074q-6.5 6.00977 -6.5 14.5244q0 6.01074 3.5 11.0186l132.5 205.351q6 9.01562 17.5 9.01562q5.5 0 11 -3.00488
q4.5 -3.00586 6.75 -7.76367t2.25 -9.7666q0 -6.01074 -3 -11.0186z" />
    <glyph glyph-name="questiondown" unicode="&#xbf;" horiz-adv-x="533" 
d="M255.016 767.986q0 14.999 10 26.998q9.99902 11.999 30.998 11.999q20.998 0 30.998 -11.999q9.99902 -11.999 9.99902 -26.998q0 -15 -9.99902 -26.999q-10 -11.999 -30.998 -11.999q-20.999 0 -30.998 11.999q-10 11.999 -10 26.999zM296.014 62.0293
q16.999 0 28.998 -12q11.999 -11.999 11.999 -28.998t-11.999 -28.998t-28.998 -11.999q-45.9971 0 -85.9951 17.999q-39.9971 17.998 -69.4951 48.4971q-29.499 30.498 -46.498 71.9951q-16.998 41.498 -16.998 89.4941v102.994q0 39.998 11.999 75.4951
q11.999 35.498 33.498 64.4961q21.498 28.999 50.9961 49.9971q29.499 20.999 64.4961 30.998q16.999 3 16.999 19.999v72.9951q0 16.999 12 28.999q11.999 11.999 28.998 11.999t28.998 -11.999q11.999 -12 11.999 -28.999v-126.992q0 -16.999 -11.999 -28.998
t-29.998 -11.999q-27.998 0 -52.4971 -10.999q-24.498 -11 -42.9971 -30.498q-18.499 -19.499 -29.498 -45.998q-11 -26.498 -11 -58.4961v-102.994q0 -30.998 11 -57.9961q10.999 -26.998 29.998 -46.4971t43.4971 -30.498q24.499 -10.999 52.4971 -10.999z" />
    <glyph glyph-name="Agrave" unicode="&#xc0;" 
d="M159 41q0 -17 -12 -29t-29 -12t-29 12t-12 29v479q0 73 24.5 127t63.5 90t89 53.5t101 17.5t101 -17.5t89.5 -53.5t63.5 -90t24 -127v-479q0 -17 -12 -29t-29 -12t-29 12t-12 29v290q0 10 -7 17t-18 7h-343q-10 0 -17 -7t-7 -17v-290zM551 519q0 54 -16.5 93t-44 64.5
t-63 37.5t-72.5 12q-38 0 -73 -12t-62.5 -37.5t-44 -64t-16.5 -92.5v-58q0 -11 7 -18t17 -7h343q25 0 25 25v57zM307 852l-142 39q-10 3 -14.5 12t-4.5 19q0 13 10 24.5t24 11.5q5 0 11 -3l130 -66q13 -7 13 -18q0 -8 -7.5 -15t-13.5 -5.5z" />
    <glyph glyph-name="Aacute" unicode="&#xc1;" 
d="M159 41q0 -17 -12 -29t-29 -12t-29 12t-12 29v479q0 73 24.5 127t63.5 90t89 53.5t101 17.5t101 -17.5t89.5 -53.5t63.5 -90t24 -127v-479q0 -17 -12 -29t-29 -12t-29 12t-12 29v290q0 10 -7 17t-18 7h-343q-10 0 -17 -7t-7 -17v-290zM551 519q0 54 -16.5 93t-44 64.5
t-63 37.5t-72.5 12q-38 0 -73 -12t-62.5 -37.5t-44 -64t-16.5 -92.5v-58q0 -11 7 -18t17 -7h343q25 0 25 25v57zM492 953q6 3 13 3q13 0 23.5 -10.5t10.5 -26.5q0 -11 -6 -20t-17 -12l-139 -35q-13 -3 -20 2.5t-7 15.5q0 13 13 19z" />
    <glyph glyph-name="Acircumflex" unicode="&#xc2;" 
d="M159 41q0 -17 -12 -29t-29 -12t-29 12t-12 29v479q0 73 24.5 127t63.5 90t89 53.5t101 17.5t101 -17.5t89.5 -53.5t63.5 -90t24 -127v-479q0 -17 -12 -29t-29 -12t-29 12t-12 29v290q0 10 -7 17t-18 7h-343q-10 0 -17 -7t-7 -17v-290zM551 519q0 54 -16.5 93t-44 64.5
t-63 37.5t-72.5 12q-38 0 -73 -12t-62.5 -37.5t-44 -64t-16.5 -92.5v-58q0 -11 7 -18t17 -7h343q25 0 25 25v57zM460 852q-23 14 -50 20.5t-54 6.5q-57 0 -105 -27q-5 -3 -12 -3q-25 0 -25 25q0 11 9 20q26 23 58.5 39t74.5 16t73 -16.5t59 -38.5q10 -7 10 -20
q0 -25 -25 -25q-7 0 -13 3z" />
    <glyph glyph-name="Atilde" unicode="&#xc3;" 
d="M159 41q0 -17 -12 -29t-29 -12t-29 12t-12 29v479q0 73 24.5 127t63.5 90t89 53.5t101 17.5t101 -17.5t89.5 -53.5t63.5 -90t24 -127v-479q0 -17 -12 -29t-29 -12t-29 12t-12 29v290q0 10 -7 17t-18 7h-343q-10 0 -17 -7t-7 -17v-290zM551 519q0 54 -16.5 93t-44 64.5
t-63 37.5t-72.5 12q-38 0 -73 -12t-62.5 -37.5t-44 -64t-16.5 -92.5v-58q0 -11 7 -18t17 -7h343q25 0 25 25v57zM374 864l-69 39q-11 6 -19 6q-14 0 -23 -9t-11 -23q-2 -13 -11.5 -21.5t-22.5 -8.5q-14 0 -23 9.5t-9 22.5q0 20 8.5 37.5t22.5 30t32 20t37 7.5q29 0 51 -13
l69 -39q10 -6 19 -6q14 0 23 9t11 23q2 13 11.5 21.5t22.5 8.5q14 0 23 -9.5t9 -22.5q0 -20 -8.5 -37.5t-22.5 -30t-32 -20t-37 -7.5q-29 0 -51 13zM374 864l-69 39q-11 6 -19 6q-14 0 -23 -9t-11 -23q-2 -13 -11.5 -21.5t-22.5 -8.5q-14 0 -23 9.5t-9 22.5q0 20 8.5 37.5
t22.5 30t32 20t37 7.5q29 0 51 -13l69 -39q10 -6 19 -6q14 0 23 9t11 23q2 13 11.5 21.5t22.5 8.5q14 0 23 -9.5t9 -22.5q0 -20 -8.5 -37.5t-22.5 -30t-32 -20t-37 -7.5q-29 0 -51 13z" />
    <glyph glyph-name="Adieresis" unicode="&#xc4;" 
d="M159 41q0 -17 -12 -29t-29 -12t-29 12t-12 29v479q0 73 24.5 127t63.5 90t89 53.5t101 17.5t101 -17.5t89.5 -53.5t63.5 -90t24 -127v-479q0 -17 -12 -29t-29 -12t-29 12t-12 29v290q0 10 -7 17t-18 7h-343q-10 0 -17 -7t-7 -17v-290zM551 519q0 54 -16.5 93t-44 64.5
t-63 37.5t-72.5 12q-38 0 -73 -12t-62.5 -37.5t-44 -64t-16.5 -92.5v-58q0 -11 7 -18t17 -7h343q25 0 25 25v57zM234 888q0 15 10 27t31 12t31 -12t10 -27t-10 -27t-31 -12t-31 12t-10 27zM394 888q0 15 10 27t31 12t31 -12t10 -27t-10 -27t-31 -12t-31 12t-10 27z" />
    <glyph glyph-name="Aring" unicode="&#xc5;" 
d="M159 41q0 -17 -12 -29t-29 -12t-29 12t-12 29v479q0 73 24.5 127t63.5 90t89 53.5t101 17.5t101 -17.5t89.5 -53.5t63.5 -90t24 -127v-479q0 -17 -12 -29t-29 -12t-29 12t-12 29v290q0 10 -7 17t-18 7h-343q-10 0 -17 -7t-7 -17v-290zM551 519q0 54 -16.5 93t-44 64.5
t-63 37.5t-72.5 12q-38 0 -73 -12t-62.5 -37.5t-44 -64t-16.5 -92.5v-58q0 -11 7 -18t17 -7h343q25 0 25 25v57zM354 849q-23 0 -40.5 7.5t-29 20.5t-17.5 29t-6 33q0 16 6 32.5t17.5 29t29 20.5t40.5 8q24 0 41.5 -8t29.5 -20.5t17.5 -29t5.5 -32.5q0 -17 -5.5 -33
t-17.5 -28.5t-29.5 -20.5t-41.5 -8zM288 939q0 -24 15.5 -43.5t50.5 -19.5t51.5 19.5t16.5 43.5q0 23 -16.5 43t-51.5 20t-50.5 -20t-15.5 -43z" />
    <glyph glyph-name="AE" unicode="&#xc6;" horiz-adv-x="1020" 
d="M159 41q0 -17 -12 -29t-29 -12t-29 12t-12 29v479q0 73 24.5 127t63.5 90t89 53.5t101 17.5q69 0 133.5 -31.5t103.5 -96.5q39 65 103.5 96.5t133.5 31.5q31 0 61.5 -6t59.5 -20q24 -11 24 -37q0 -17 -12 -29t-29 -12q-8 0 -17 4q-41 18 -87 18q-38 0 -73 -12t-62.5 -37
t-44 -64t-16.5 -92v-43q0 -17 12 -29t29 -12h156q17 0 29 -12t12 -29t-12 -29t-29 -12h-156q-17 0 -29 -12t-12 -29v-45q0 -54 16.5 -92.5t44 -64t62.5 -37.5t73 -12q46 0 87 18q9 4 17 4q17 0 29 -12t12 -29q0 -13 -7 -23t-18 -15q-54 -25 -120 -25q-54 0 -105 19t-91 57
v-16q0 -17 -12 -29t-29 -12t-29 12t-12 29v290q0 10 -7 17t-18 7h-343q-10 0 -17 -7t-7 -17v-290zM551 519q0 54 -16.5 93t-44 64.5t-63 37.5t-72.5 12q-38 0 -73 -12t-62.5 -37t-44 -64t-16.5 -92v-59q0 -11 7 -18t17 -7h343q25 0 25 25v57z" />
    <glyph glyph-name="Ccedilla" unicode="&#xc7;" horiz-adv-x="681" 
d="M624 12q-79 -32 -161 -32q-74 0 -145.5 25.5t-128 76.5t-91.5 129t-35 183t35 182.5t91.5 129t128 76.5t145.5 25q17 0 29 -12t12 -29t-12 -29t-29 -12q-60 0 -117 -19.5t-101.5 -60.5t-72 -103.5t-27.5 -147.5q0 -86 27.5 -148.5t72.5 -103t102 -60.5t116 -20
q33 0 65.5 6t63.5 19q7 3 16 3q17 0 29 -12t12 -29q0 -27 -25 -37zM494 -99q0 -8 9 -12q46 -24 46 -75q0 -17 -6.5 -32t-18 -27t-27.5 -19t-35 -7q-11 0 -24.5 4t-25.5 11.5t-20.5 18.5t-8.5 25q0 12 8.5 20.5t20.5 8.5q9 0 14.5 -4.5t10.5 -11t10.5 -9.5t14.5 -3
q24 2 27 25q0 13 -9 18.5t-19.5 10t-19.5 11t-9 21.5v130q0 13 9 22t22 9t22 -9t9 -22v-104z" />
    <glyph glyph-name="Egrave" unicode="&#xc8;" horiz-adv-x="532" 
d="M77 520q0 73 24 127t63.5 89.5t89.5 53t101 17.5q31 0 61.5 -6t59.5 -20q24 -11 24 -37q0 -17 -12 -29t-29 -12q-8 0 -17 4q-41 18 -87 18q-38 0 -73 -12t-62.5 -37t-44 -64t-16.5 -92v-43q0 -17 12 -29t29 -12h156q17 0 29 -12t12 -29t-12 -29t-29 -12h-156
q-17 0 -29 -12t-12 -29v-45q0 -54 16.5 -92.5t44 -64t62.5 -37.5t73 -12q45 0 86 18q9 4 18 4q17 0 29 -12t12 -29q0 -13 -7 -23t-18 -15q-54 -25 -120 -25q-51 0 -101 17.5t-89 53.5t-63.5 90t-24.5 127v252zM310 852l-142 39q-10 3 -14.5 12t-4.5 19q0 13 10 24.5t24 11.5
q5 0 11 -3l130 -66q13 -7 13 -18q0 -8 -7.5 -15t-13.5 -5.5z" />
    <glyph glyph-name="Eacute" unicode="&#xc9;" horiz-adv-x="532" 
d="M77 520q0 73 24 127t63.5 89.5t89.5 53t101 17.5q31 0 61.5 -6t59.5 -20q24 -11 24 -37q0 -17 -12 -29t-29 -12q-8 0 -17 4q-41 18 -87 18q-38 0 -73 -12t-62.5 -37t-44 -64t-16.5 -92v-43q0 -17 12 -29t29 -12h156q17 0 29 -12t12 -29t-12 -29t-29 -12h-156
q-17 0 -29 -12t-12 -29v-45q0 -54 16.5 -92.5t44 -64t62.5 -37.5t73 -12q45 0 86 18q9 4 18 4q17 0 29 -12t12 -29q0 -13 -7 -23t-18 -15q-54 -25 -120 -25q-51 0 -101 17.5t-89 53.5t-63.5 90t-24.5 127v252zM452 953q6 3 13 3q13 0 23.5 -10.5t10.5 -26.5q0 -11 -6 -20
t-17 -12l-139 -35q-13 -3 -20 2.5t-7 15.5q0 13 13 19z" />
    <glyph glyph-name="Ecircumflex" unicode="&#xca;" horiz-adv-x="532" 
d="M77 520q0 73 24 127t63.5 89.5t89.5 53t101 17.5q31 0 61.5 -6t59.5 -20q24 -11 24 -37q0 -17 -12 -29t-29 -12q-8 0 -17 4q-41 18 -87 18q-38 0 -73 -12t-62.5 -37t-44 -64t-16.5 -92v-43q0 -17 12 -29t29 -12h156q17 0 29 -12t12 -29t-12 -29t-29 -12h-156
q-17 0 -29 -12t-12 -29v-45q0 -54 16.5 -92.5t44 -64t62.5 -37.5t73 -12q45 0 86 18q9 4 18 4q17 0 29 -12t12 -29q0 -13 -7 -23t-18 -15q-54 -25 -120 -25q-51 0 -101 17.5t-89 53.5t-63.5 90t-24.5 127v252zM451 851q-23 14 -50 20.5t-54 6.5q-57 0 -105 -27q-5 -3 -12 -3
q-25 0 -25 25q0 11 9 20q26 23 58.5 39t74.5 16t73 -16.5t59 -38.5q10 -7 10 -20q0 -25 -25 -25q-7 0 -13 3z" />
    <glyph glyph-name="Edieresis" unicode="&#xcb;" horiz-adv-x="532" 
d="M77 520q0 73 24 127t63.5 89.5t89.5 53t101 17.5q31 0 61.5 -6t59.5 -20q24 -11 24 -37q0 -17 -12 -29t-29 -12q-8 0 -17 4q-41 18 -87 18q-38 0 -73 -12t-62.5 -37t-44 -64t-16.5 -92v-43q0 -17 12 -29t29 -12h156q17 0 29 -12t12 -29t-12 -29t-29 -12h-156
q-17 0 -29 -12t-12 -29v-45q0 -54 16.5 -92.5t44 -64t62.5 -37.5t73 -12q45 0 86 18q9 4 18 4q17 0 29 -12t12 -29q0 -13 -7 -23t-18 -15q-54 -25 -120 -25q-51 0 -101 17.5t-89 53.5t-63.5 90t-24.5 127v252zM215 887q0 15 10 27t31 12t31 -12t10 -27t-10 -27t-31 -12
t-31 12t-10 27zM375 887q0 15 10 27t31 12t31 -12t10 -27t-10 -27t-31 -12t-31 12t-10 27z" />
    <glyph glyph-name="Igrave" unicode="&#xcc;" horiz-adv-x="262" 
d="M90 767q0 17 12 29t29 12t29 -12t12 -29v-726q0 -17 -12 -29t-29 -12t-29 12t-12 29v726zM118 852l-142 39q-10 3 -14.5 12t-4.5 19q0 13 10 24.5t24 11.5q5 0 11 -3l130 -66q13 -7 13 -18q0 -8 -7.5 -15t-13.5 -5.5z" />
    <glyph glyph-name="Iacute" unicode="&#xcd;" horiz-adv-x="262" 
d="M90 767q0 17 12 29t29 12t29 -12t12 -29v-726q0 -17 -12 -29t-29 -12t-29 12t-12 29v726zM253 953q6 3 13 3q13 0 23.5 -10.5t10.5 -26.5q0 -11 -6 -20t-17 -12l-139 -35q-13 -3 -20 2.5t-7 15.5q0 13 13 19z" />
    <glyph glyph-name="Icircumflex" unicode="&#xce;" horiz-adv-x="262" 
d="M90 767q0 17 12 29t29 12t29 -12t12 -29v-726q0 -17 -12 -29t-29 -12t-29 12t-12 29v726zM235 852q-23 14 -50 20.5t-54 6.5q-57 0 -105 -27q-5 -3 -12 -3q-25 0 -25 25q0 11 9 20q26 23 58.5 39t74.5 16t73 -16.5t59 -38.5q10 -7 10 -20q0 -25 -25 -25q-7 0 -13 3z" />
    <glyph glyph-name="Idieresis" unicode="&#xcf;" horiz-adv-x="262" 
d="M90 767q0 17 12 29t29 12t29 -12t12 -29v-726q0 -17 -12 -29t-29 -12t-29 12t-12 29v726zM10 888q0 15 10 27t31 12t31 -12t10 -27t-10 -27t-31 -12t-31 12t-10 27zM170 888q0 15 10 27t31 12t31 -12t10 -27t-10 -27t-31 -12t-31 12t-10 27z" />
    <glyph glyph-name="Eth" unicode="&#xd0;" horiz-adv-x="743" 
d="M273 789q103 0 180 -34.5t127 -90.5t75 -127t25 -143q0 -73 -25 -143.5t-75 -126t-127 -90t-180 -34.5h-114q-17 0 -29 12t-12 29v294q0 10 -7 17t-18 7h-26q-14 0 -24.5 10.5t-10.5 24.5q0 15 10.5 25t24.5 10h26q25 0 25 25v294q0 17 12 29t29 12h114zM220 707
q-8 0 -14 -6.5t-6 -14.5v-232q0 -11 7 -18t17 -7h107q14 0 24.5 -10t10.5 -25q0 -14 -10.5 -24.5t-24.5 -10.5h-107q-11 0 -17.5 -7t-6.5 -17v-233q0 -8 6 -14t14 -6h53q84 0 145.5 26.5t101 70.5t59 100t19.5 115q0 58 -19.5 114.5t-59.5 100.5t-101 71t-145 27h-53z" />
    <glyph glyph-name="Ntilde" unicode="&#xd1;" 
d="M159 41q0 -17 -12 -29t-29 -12t-29 12t-12 29v479q0 73 24.5 127t63.5 90t89 53.5t101 17.5t101 -17.5t89.5 -53t63.5 -89.5t24 -127v-480q0 -17 -12 -29t-29 -12t-29 12t-12 29v478q0 54 -16.5 93t-44 64.5t-63 37.5t-72.5 12q-38 0 -73 -12t-62.5 -37t-44 -64
t-16.5 -92v-480zM376 866l-69 39q-11 6 -19 6q-14 0 -23 -9t-11 -23q-2 -13 -11.5 -21.5t-22.5 -8.5q-14 0 -23 9.5t-9 22.5q0 20 8.5 37.5t22.5 30t32 20t37 7.5q29 0 51 -13l69 -39q10 -6 19 -6q14 0 23 9t11 23q2 13 11.5 21.5t22.5 8.5q14 0 23 -9.5t9 -22.5
q0 -20 -8.5 -37.5t-22.5 -30t-32 -20t-37 -7.5q-29 0 -51 13zM376 866l-69 39q-11 6 -19 6q-14 0 -23 -9t-11 -23q-2 -13 -11.5 -21.5t-22.5 -8.5q-14 0 -23 9.5t-9 22.5q0 20 8.5 37.5t22.5 30t32 20t37 7.5q29 0 51 -13l69 -39q10 -6 19 -6q14 0 23 9t11 23
q2 13 11.5 21.5t22.5 8.5q14 0 23 -9.5t9 -22.5q0 -20 -8.5 -37.5t-22.5 -30t-32 -20t-37 -7.5q-29 0 -51 13z" />
    <glyph glyph-name="Ograve" unicode="&#xd2;" horiz-adv-x="919" 
d="M142 393q0 -85 27.5 -147.5t72 -103t101.5 -60.5t117 -20q59 0 116 20t101.5 60.5t72 103t27.5 147.5t-27 148t-71.5 103.5t-101.5 60.5t-117 20t-117 -20t-102 -60.5t-72 -103.5t-27 -148zM460 -20q-74 0 -145.5 25t-128 76.5t-91.5 129t-35 182.5t34.5 183t91 129.5
t128.5 76.5t146 25t145.5 -25t128 -76.5t91 -129.5t34.5 -183t-35 -182.5t-91 -129t-128 -76.5t-145 -25zM428 852l-142 39q-10 3 -14.5 12t-4.5 19q0 13 10 24.5t24 11.5q5 0 11 -3l130 -66q13 -7 13 -18q0 -8 -7.5 -15t-13.5 -5.5z" />
    <glyph glyph-name="Oacute" unicode="&#xd3;" horiz-adv-x="919" 
d="M142 393q0 -85 27.5 -147.5t72 -103t101.5 -60.5t117 -20q59 0 116 20t101.5 60.5t72 103t27.5 147.5t-27 148t-71.5 103.5t-101.5 60.5t-117 20t-117 -20t-102 -60.5t-72 -103.5t-27 -148zM460 -20q-74 0 -145.5 25t-128 76.5t-91.5 129t-35 182.5t34.5 183t91 129.5
t128.5 76.5t146 25t145.5 -25t128 -76.5t91 -129.5t34.5 -183t-35 -182.5t-91 -129t-128 -76.5t-145 -25zM602 952q6 3 13 3q13 0 23.5 -10.5t10.5 -26.5q0 -11 -6 -20t-17 -12l-139 -35q-13 -3 -20 2.5t-7 15.5q0 13 13 19z" />
    <glyph glyph-name="Ocircumflex" unicode="&#xd4;" horiz-adv-x="919" 
d="M142 393q0 -85 27.5 -147.5t72 -103t101.5 -60.5t117 -20q59 0 116 20t101.5 60.5t72 103t27.5 147.5t-27 148t-71.5 103.5t-101.5 60.5t-117 20t-117 -20t-102 -60.5t-72 -103.5t-27 -148zM460 -20q-74 0 -145.5 25t-128 76.5t-91.5 129t-35 182.5t34.5 183t91 129.5
t128.5 76.5t146 25t145.5 -25t128 -76.5t91 -129.5t34.5 -183t-35 -182.5t-91 -129t-128 -76.5t-145 -25zM565 851q-23 14 -50 20.5t-54 6.5q-57 0 -105 -27q-5 -3 -12 -3q-25 0 -25 25q0 11 9 20q26 23 58.5 39t74.5 16t73 -16.5t59 -38.5q10 -7 10 -20q0 -25 -25 -25
q-7 0 -13 3z" />
    <glyph glyph-name="Otilde" unicode="&#xd5;" horiz-adv-x="919" 
d="M142 393q0 -85 27.5 -147.5t72 -103t101.5 -60.5t117 -20q59 0 116 20t101.5 60.5t72 103t27.5 147.5t-27 148t-71.5 103.5t-101.5 60.5t-117 20t-117 -20t-102 -60.5t-72 -103.5t-27 -148zM460 -20q-74 0 -145.5 25t-128 76.5t-91.5 129t-35 182.5t34.5 183t91 129.5
t128.5 76.5t146 25t145.5 -25t128 -76.5t91 -129.5t34.5 -183t-35 -182.5t-91 -129t-128 -76.5t-145 -25zM482 866l-69 39q-11 6 -19 6q-14 0 -23 -9t-11 -23q-2 -13 -11.5 -21.5t-22.5 -8.5q-14 0 -23 9.5t-9 22.5q0 20 8.5 37.5t22.5 30t32 20t37 7.5q29 0 51 -13l69 -39
q10 -6 19 -6q14 0 23 9t11 23q2 13 11.5 21.5t22.5 8.5q14 0 23 -9.5t9 -22.5q0 -20 -8.5 -37.5t-22.5 -30t-32 -20t-37 -7.5q-29 0 -51 13zM482 866l-69 39q-11 6 -19 6q-14 0 -23 -9t-11 -23q-2 -13 -11.5 -21.5t-22.5 -8.5q-14 0 -23 9.5t-9 22.5q0 20 8.5 37.5t22.5 30
t32 20t37 7.5q29 0 51 -13l69 -39q10 -6 19 -6q14 0 23 9t11 23q2 13 11.5 21.5t22.5 8.5q14 0 23 -9.5t9 -22.5q0 -20 -8.5 -37.5t-22.5 -30t-32 -20t-37 -7.5q-29 0 -51 13z" />
    <glyph glyph-name="Odieresis" unicode="&#xd6;" horiz-adv-x="919" 
d="M142 393q0 -85 27.5 -147.5t72 -103t101.5 -60.5t117 -20q59 0 116 20t101.5 60.5t72 103t27.5 147.5t-27 148t-71.5 103.5t-101.5 60.5t-117 20t-117 -20t-102 -60.5t-72 -103.5t-27 -148zM460 -20q-74 0 -145.5 25t-128 76.5t-91.5 129t-35 182.5t34.5 183t91 129.5
t128.5 76.5t146 25t145.5 -25t128 -76.5t91 -129.5t34.5 -183t-35 -182.5t-91 -129t-128 -76.5t-145 -25zM337 888q0 15 10 27t31 12t31 -12t10 -27t-10 -27t-31 -12t-31 12t-10 27zM497 888q0 15 10 27t31 12t31 -12t10 -27t-10 -27t-31 -12t-31 12t-10 27z" />
    <glyph glyph-name="multiply" unicode="&#xd7;" horiz-adv-x="539" 
d="M439 103q-10 -10 -25 -10t-25 10l-91 91q-12 12 -29 12t-29 -12l-90 -91q-10 -10 -25 -10t-25 10t-10 25t10 25l91 90q12 12 12 29t-12 29l-91 91q-10 10 -10 25q0 14 10 24.5t25 10.5q14 0 25 -10l90 -91q12 -12 29 -12t29 12l91 91q11 10 25 10t24.5 -10.5t10.5 -24.5
t-10 -25l-91 -91q-12 -12 -12 -29t12 -29q8 -8 23.5 -23t30.5 -30l37 -37q10 -11 10 -25t-10 -25z" />
    <glyph glyph-name="Oslash" unicode="&#xd8;" horiz-adv-x="926" 
d="M280 115q42 -27 88.5 -40t94.5 -13q59 0 116 20t102 60.5t72.5 103t27.5 148.5q0 54 -12 99t-32 81q-5 9 -16 9q-12 0 -18 -8l-426 -425q-6 -6 -6 -16q0 -13 9 -19zM463 725q-60 0 -117 -20t-102 -60.5t-72 -103t-27 -147.5q0 -55 11.5 -100t31.5 -81q4 -9 16 -9
q11 0 19 8l425 425q7 7 7 17q0 12 -10 18q-42 27 -88 40t-94 13zM63 394q0 105 34.5 182.5t91 129t128.5 76.5t146 25q66 0 128.5 -19.5t116.5 -58.5q7 -6 16 -6q11 0 18 7l45 45q12 12 29 12t29 -12t12 -29t-12 -29l-48 -47q-7 -7 -7 -18q0 -6 3 -12q32 -48 51 -109.5
t19 -136.5q0 -105 -35 -183t-91.5 -129.5t-128.5 -76.5t-145 -25q-66 0 -128.5 19.5t-116.5 58.5q-8 6 -17 6q-10 0 -17 -7l-45 -45q-12 -12 -29 -12t-29 12t-12 29q0 9 2.5 15t9.5 13.5t18 18t29 29.5q8 8 8 18q0 8 -4 12q-32 48 -50.5 109.5t-18.5 137.5z" />
    <glyph glyph-name="Ugrave" unicode="&#xd9;" 
d="M551 767q0 17 12 29t29 12t29 -12t12 -29v-499q0 -73 -24.5 -127t-63.5 -89.5t-89 -53t-101 -17.5t-101 17.5t-89.5 53t-63.5 89.5t-24 127v499q0 17 12 29t29 12t29 -12t12 -29v-497q0 -54 16.5 -93t44 -64.5t62.5 -37.5t73 -12q37 0 72.5 12t63 37t44 64t16.5 92v499z
M351 852l-142 39q-10 3 -14.5 12t-4.5 19q0 13 10 24.5t24 11.5q5 0 11 -3l130 -66q13 -7 13 -18q0 -8 -7.5 -15t-13.5 -5.5z" />
    <glyph glyph-name="Uacute" unicode="&#xda;" 
d="M551 767q0 17 12 29t29 12t29 -12t12 -29v-499q0 -73 -24.5 -127t-63.5 -89.5t-89 -53t-101 -17.5t-101 17.5t-89.5 53t-63.5 89.5t-24 127v499q0 17 12 29t29 12t29 -12t12 -29v-497q0 -54 16.5 -93t44 -64.5t62.5 -37.5t73 -12q37 0 72.5 12t63 37t44 64t16.5 92v499z
M484 953q6 3 13 3q13 0 23.5 -10.5t10.5 -26.5q0 -11 -6 -20t-17 -12l-139 -35q-13 -3 -20 2.5t-7 15.5q0 13 13 19z" />
    <glyph glyph-name="Ucircumflex" unicode="&#xdb;" 
d="M551 767q0 17 12 29t29 12t29 -12t12 -29v-499q0 -73 -24.5 -127t-63.5 -89.5t-89 -53t-101 -17.5t-101 17.5t-89.5 53t-63.5 89.5t-24 127v499q0 17 12 29t29 12t29 -12t12 -29v-497q0 -54 16.5 -93t44 -64.5t62.5 -37.5t73 -12q37 0 72.5 12t63 37t44 64t16.5 92v499z
M460 852q-23 14 -50 20.5t-54 6.5q-57 0 -105 -27q-5 -3 -12 -3q-25 0 -25 25q0 11 9 20q26 23 58.5 39t74.5 16t73 -16.5t59 -38.5q10 -7 10 -20q0 -25 -25 -25q-7 0 -13 3z" />
    <glyph glyph-name="Udieresis" unicode="&#xdc;" 
d="M551 767q0 17 12 29t29 12t29 -12t12 -29v-499q0 -73 -24.5 -127t-63.5 -89.5t-89 -53t-101 -17.5t-101 17.5t-89.5 53t-63.5 89.5t-24 127v499q0 17 12 29t29 12t29 -12t12 -29v-497q0 -54 16.5 -93t44 -64.5t62.5 -37.5t73 -12q37 0 72.5 12t63 37t44 64t16.5 92v499z
M235 888q0 15 10 27t31 12t31 -12t10 -27t-10 -27t-31 -12t-31 12t-10 27zM395 888q0 15 10 27t31 12t31 -12t10 -27t-10 -27t-31 -12t-31 12t-10 27z" />
    <glyph glyph-name="Yacute" unicode="&#xdd;" horiz-adv-x="648" 
d="M520 766q0 17 12 29t29 12t29 -12t12 -29v-123q0 -61 -17 -108.5t-46 -82t-66.5 -56.5t-79.5 -32q-13 -3 -20.5 -13t-7.5 -23v-287q0 -17 -12 -29t-29 -12t-29 12t-12 29v287q0 13 -7.5 23t-20.5 13q-42 10 -80 32t-66.5 56.5t-45.5 82t-17 108.5v123q0 17 12 29t29 12
t29 -12t12 -29v-121q0 -54 16.5 -93t44 -64.5t62.5 -37.5t73 -12q37 0 72.5 12t63 37t44 64t16.5 92v123zM447 952q6 3 13 3q13 0 23.5 -10.5t10.5 -26.5q0 -11 -6 -20t-17 -12l-139 -35q-13 -3 -20 2.5t-7 15.5q0 13 13 19z" />
    <glyph glyph-name="Thorn" unicode="&#xde;" horiz-adv-x="549" 
d="M90 743q0 19 12 32.5t29 13.5t29 -13.5t12 -32.5v-105q0 -11 7 -18t17 -7h62q47 0 88.5 -17t72.5 -46t49 -69.5t18 -86.5t-18 -86t-49 -69.5t-72.5 -46.5t-88.5 -17h-62q-10 0 -17 -7t-7 -17v-105q0 -20 -12 -33t-29 -13t-29 13t-12 33v697zM172 282q0 -11 7 -18t17 -7
h62q31 0 58 11t46.5 29.5t30.5 43.5t11 53t-11 53t-30.5 43.5t-46.5 29.5t-58 11h-62q-10 0 -17 -7t-7 -17v-225z" />
    <glyph glyph-name="germandbls" unicode="&#xdf;" horiz-adv-x="594" 
d="M77 270q0 59 20.5 111t56 91t83.5 61.5t104 22.5q33 0 61 -12.5t48 -33.5t31.5 -48.5t11.5 -57.5q0 -35 -17 -69q0 -3 0.5 -3.5t0.5 -1.5q29 -31 41.5 -67t12.5 -72q0 -41 -15 -79t-42.5 -67t-66 -47t-86.5 -18q-19 0 -43 5t-45 14t-35.5 22.5t-14.5 31.5q0 16 10.5 28
t29.5 12q8 0 17.5 -5t21 -10.5t26 -10.5t33.5 -5q26 0 49.5 10t41 27t27.5 40t10 49q0 34 -11.5 56.5t-28 36.5t-35 21t-33.5 10q-5 1 -7 4.5t-2 7.5q0 12 9 12q29 0 49.5 20.5t20.5 49.5t-20 50t-50 21q-38 0 -71 -17t-58 -45.5t-39 -66t-14 -78.5v-491q0 -17 -12 -29
t-29 -12t-29 12t-12 29v491z" />
    <glyph glyph-name="agrave" unicode="&#xe0;" horiz-adv-x="706" 
d="M158 361q-16 -39 -16 -92q0 -54 16.5 -92.5t44 -64t63 -37.5t72.5 -12t72.5 12t62.5 37q28 26 44.5 64.5t16.5 92.5q0 53 -17 92q-16 39 -43.5 64t-63 37t-72.5 12q-38 0 -73 -12t-62.5 -37t-44.5 -64zM534 496q0 17 12 29t29 12t29 -12t12 -29v-267q0 -21 4.5 -43
t13.5 -43t22.5 -38.5t30.5 -28.5q8 -5 13 -13q9 -14 5.5 -30.5t-16 -25t-24.5 -8t-22 7.5q-22 15 -36.5 31t-25.5 37q-5 10 -12.5 11.5t-13.5 -6.5q-41 -51 -99 -75t-118 -24q-51 0 -101 17.5t-89 53.5t-63.5 90t-24.5 127t24 127t63.5 89.5t89.5 53t101 17.5q54 0 105 -19
t91 -57v16zM342 625l-142 39q-10 3 -14.5 12t-4.5 19q0 13 10 24.5t24 11.5q5 0 11 -3l130 -66q13 -7 13 -18q0 -8 -7.5 -15t-13.5 -5.5z" />
    <glyph glyph-name="aacute" unicode="&#xe1;" horiz-adv-x="706" 
d="M158 361q-16 -39 -16 -92q0 -54 16.5 -92.5t44 -64t63 -37.5t72.5 -12t72.5 12t62.5 37q28 26 44.5 64.5t16.5 92.5q0 53 -17 92q-16 39 -43.5 64t-63 37t-72.5 12q-38 0 -73 -12t-62.5 -37t-44.5 -64zM534 496q0 17 12 29t29 12t29 -12t12 -29v-267q0 -21 4.5 -43
t13.5 -43t22.5 -38.5t30.5 -28.5q8 -5 13 -13q9 -14 5.5 -30.5t-16 -25t-24.5 -8t-22 7.5q-22 15 -36.5 31t-25.5 37q-5 10 -12.5 11.5t-13.5 -6.5q-41 -51 -99 -75t-118 -24q-51 0 -101 17.5t-89 53.5t-63.5 90t-24.5 127t24 127t63.5 89.5t89.5 53t101 17.5q54 0 105 -19
t91 -57v16zM456 727q6 3 13 3q13 0 23.5 -10.5t10.5 -26.5q0 -11 -6 -20t-17 -12l-139 -35q-13 -3 -20 2.5t-7 15.5q0 13 13 19z" />
    <glyph glyph-name="acircumflex" unicode="&#xe2;" horiz-adv-x="706" 
d="M158 361q-16 -39 -16 -92q0 -54 16.5 -92.5t44 -64t63 -37.5t72.5 -12t72.5 12t62.5 37q28 26 44.5 64.5t16.5 92.5q0 53 -17 92q-16 39 -43.5 64t-63 37t-72.5 12q-38 0 -73 -12t-62.5 -37t-44.5 -64zM534 496q0 17 12 29t29 12t29 -12t12 -29v-267q0 -21 4.5 -43
t13.5 -43t22.5 -38.5t30.5 -28.5q8 -5 13 -13q9 -14 5.5 -30.5t-16 -25t-24.5 -8t-22 7.5q-22 15 -36.5 31t-25.5 37q-5 10 -12.5 11.5t-13.5 -6.5q-41 -51 -99 -75t-118 -24q-51 0 -101 17.5t-89 53.5t-63.5 90t-24.5 127t24 127t63.5 89.5t89.5 53t101 17.5q54 0 105 -19
t91 -57v16zM445 631q-23 14 -50 20.5t-54 6.5q-57 0 -105 -27q-5 -3 -12 -3q-25 0 -25 25q0 11 9 20q26 23 58.5 39t74.5 16t73 -16.5t59 -38.5q10 -7 10 -20q0 -25 -25 -25q-7 0 -13 3z" />
    <glyph glyph-name="atilde" unicode="&#xe3;" horiz-adv-x="706" 
d="M158 361q-16 -39 -16 -92q0 -54 16.5 -92.5t44 -64t63 -37.5t72.5 -12t72.5 12t62.5 37q28 26 44.5 64.5t16.5 92.5q0 53 -17 92q-16 39 -43.5 64t-63 37t-72.5 12q-38 0 -73 -12t-62.5 -37t-44.5 -64zM534 496q0 17 12 29t29 12t29 -12t12 -29v-267q0 -21 4.5 -43
t13.5 -43t22.5 -38.5t30.5 -28.5q8 -5 13 -13q9 -14 5.5 -30.5t-16 -25t-24.5 -8t-22 7.5q-22 15 -36.5 31t-25.5 37q-5 10 -12.5 11.5t-13.5 -6.5q-41 -51 -99 -75t-118 -24q-51 0 -101 17.5t-89 53.5t-63.5 90t-24.5 127t24 127t63.5 89.5t89.5 53t101 17.5q54 0 105 -19
t91 -57v16zM382 629l-69 39q-11 6 -19 6q-14 0 -23 -9t-11 -23q-2 -13 -11.5 -21.5t-22.5 -8.5q-14 0 -23 9.5t-9 22.5q0 20 8.5 37.5t22.5 30t32 20t37 7.5q29 0 51 -13l69 -39q10 -6 19 -6q14 0 23 9t11 23q2 13 11.5 21.5t22.5 8.5q14 0 23 -9.5t9 -22.5
q0 -20 -8.5 -37.5t-22.5 -30t-32 -20t-37 -7.5q-29 0 -51 13zM382 629l-69 39q-11 6 -19 6q-14 0 -23 -9t-11 -23q-2 -13 -11.5 -21.5t-22.5 -8.5q-14 0 -23 9.5t-9 22.5q0 20 8.5 37.5t22.5 30t32 20t37 7.5q29 0 51 -13l69 -39q10 -6 19 -6q14 0 23 9t11 23
q2 13 11.5 21.5t22.5 8.5q14 0 23 -9.5t9 -22.5q0 -20 -8.5 -37.5t-22.5 -30t-32 -20t-37 -7.5q-29 0 -51 13z" />
    <glyph glyph-name="adieresis" unicode="&#xe4;" horiz-adv-x="706" 
d="M158 361q-16 -39 -16 -92q0 -54 16.5 -92.5t44 -64t63 -37.5t72.5 -12t72.5 12t62.5 37q28 26 44.5 64.5t16.5 92.5q0 53 -17 92q-16 39 -43.5 64t-63 37t-72.5 12q-38 0 -73 -12t-62.5 -37t-44.5 -64zM534 496q0 17 12 29t29 12t29 -12t12 -29v-267q0 -21 4.5 -43
t13.5 -43t22.5 -38.5t30.5 -28.5q8 -5 13 -13q9 -14 5.5 -30.5t-16 -25t-24.5 -8t-22 7.5q-22 15 -36.5 31t-25.5 37q-5 10 -12.5 11.5t-13.5 -6.5q-41 -51 -99 -75t-118 -24q-51 0 -101 17.5t-89 53.5t-63.5 90t-24.5 127t24 127t63.5 89.5t89.5 53t101 17.5q54 0 105 -19
t91 -57v16zM215 677q0 15 10 27t31 12t31 -12t10 -27t-10 -27t-31 -12t-31 12t-10 27zM375 677q0 15 10 27t31 12t31 -12t10 -27t-10 -27t-31 -12t-31 12t-10 27z" />
    <glyph glyph-name="aring" unicode="&#xe5;" horiz-adv-x="706" 
d="M158 361q-16 -39 -16 -92q0 -54 16.5 -92.5t44 -64t63 -37.5t72.5 -12t72.5 12t62.5 37q28 26 44.5 64.5t16.5 92.5q0 53 -17 92q-16 39 -43.5 64t-63 37t-72.5 12q-38 0 -73 -12t-62.5 -37t-44.5 -64zM534 496q0 17 12 29t29 12t29 -12t12 -29v-267q0 -21 4.5 -43
t13.5 -43t22.5 -38.5t30.5 -28.5q8 -5 13 -13q9 -14 5.5 -30.5t-16 -25t-24.5 -8t-22 7.5q-22 15 -36.5 31t-25.5 37q-5 10 -12.5 11.5t-13.5 -6.5q-41 -51 -99 -75t-118 -24q-51 0 -101 17.5t-89 53.5t-63.5 90t-24.5 127t24 127t63.5 89.5t89.5 53t101 17.5q54 0 105 -19
t91 -57v16zM336 587q-23 0 -40.5 7.5t-29 20.5t-17.5 29t-6 33q0 16 6 32.5t17.5 29t29 20.5t40.5 8q24 0 41.5 -8t29.5 -20.5t17.5 -29t5.5 -32.5q0 -17 -5.5 -33t-17.5 -28.5t-29.5 -20.5t-41.5 -8zM270 677q0 -24 15.5 -43.5t50.5 -19.5t51.5 19.5t16.5 43.5
q0 23 -16.5 43t-51.5 20t-50.5 -20t-15.5 -43z" />
    <glyph glyph-name="ae" unicode="&#xe6;" horiz-adv-x="824" 
d="M252 246q-54 0 -80.5 -23.5t-26.5 -60.5q2 -45 29 -71q19 -16 36.5 -22.5t40.5 -6.5q54 0 87 35.5t33 92.5v49q0 7 -4 7h-8h-107zM453 345v-49q0 -7 4 -7h8h107q54 0 80.5 23.5t26.5 60.5q-2 45 -29 71q-19 16 -36.5 22.5t-40.5 6.5q-54 0 -87 -35.5t-33 -92.5zM371 345
q0 64 -29.5 96t-83.5 32q-40 0 -71.5 -13t-61.5 -35q-11 -8 -21 -8q-17 0 -29 12t-12 29q0 14 11 28q73 69 184 69q54 0 93 -20.5t64 -55.5q26 35 66.5 55.5t91.5 20.5q39 0 70 -12t61 -38t43.5 -59.5t13.5 -72.5q0 -41 -15.5 -72t-42 -52t-60.5 -31.5t-71 -10.5h-107
q-12 0 -12 -13v-4q0 -63 29.5 -95.5t83.5 -32.5q40 0 71.5 13t61.5 35q11 8 21 8q17 0 29 -12t12 -29q0 -14 -11 -28q-74 -69 -184 -69q-54 0 -93 20.5t-64 55.5q-26 -35 -66.5 -55.5t-91.5 -20.5q-39 0 -70 12t-61 38t-43.5 59.5t-13.5 72.5q0 41 15.5 72t42 52t60.5 31.5
t71 10.5h107q12 0 12 13v4z" />
    <glyph glyph-name="ccedilla" unicode="&#xe7;" horiz-adv-x="532" 
d="M428 82q7 4 17 4q17 0 29 -12t12 -29q0 -26 -24 -37q-29 -14 -59.5 -20t-61.5 -6q-9 0 -18.5 0.5t-18.5 1.5q-5 2 -5 -4q0 -21 8.5 -33t21.5 -17q26 -10 43.5 -34t17.5 -62q0 -26 -8.5 -45.5t-23 -32.5t-32.5 -19.5t-36 -6.5q-23 0 -44 9q-14 8 -14 23q0 25 25 25
q2 0 10 -2q13 -5 23 -5q20 0 35 12.5t15 41.5q0 20 -8 32t-21 17q-26 11 -44 35t-18 62v6q0 10 -8 13q-37 13 -69.5 36.5t-56.5 57t-38 78t-14 99.5q0 73 24 127t63.5 89.5t89.5 53t101 17.5q66 0 120 -25q11 -5 18 -15t7 -23q0 -17 -12 -29t-29 -12q-10 0 -17 4
q-41 18 -87 18q-38 0 -73 -12t-62.5 -37t-44 -64t-16.5 -92q0 -54 16.5 -92.5t44 -64t62.5 -37.5t73 -12q46 0 87 18z" />
    <glyph glyph-name="egrave" unicode="&#xe8;" horiz-adv-x="651" 
d="M313 473q-31 0 -62 -9t-55.5 -24.5t-40 -36.5t-15.5 -45q0 -21 14 -41.5t37.5 -37t55 -26.5t66.5 -10q41 0 71.5 10.5t51 27t30.5 37t10 40.5q0 16 -9 36t-28.5 37.5t-50.5 29.5t-75 12zM33 268q0 58 15.5 104t42.5 81q40 51 98.5 76.5t124.5 25.5q52 0 97 -15.5
t77.5 -42t51 -62.5t18.5 -77t-18 -77t-51 -62.5t-80 -42t-105 -15.5q-39 0 -69.5 8.5t-54 20.5t-39.5 25t-25 23q5 -45 23 -78.5t45 -55t59.5 -32t67.5 -10.5q45 0 86 18q5 2 9 3t9 1q17 0 29 -12t12 -29q0 -13 -7 -23t-18 -15q-56 -25 -120 -25q-51 0 -101 17.5t-89 53.5
t-63.5 90t-24.5 127zM327 625l-142 39q-10 3 -14.5 12t-4.5 19q0 13 10 24.5t24 11.5q5 0 11 -3l130 -66q13 -7 13 -18q0 -8 -7.5 -15t-13.5 -5.5z" />
    <glyph glyph-name="eacute" unicode="&#xe9;" horiz-adv-x="651" 
d="M313 473q-31 0 -62 -9t-55.5 -24.5t-40 -36.5t-15.5 -45q0 -21 14 -41.5t37.5 -37t55 -26.5t66.5 -10q41 0 71.5 10.5t51 27t30.5 37t10 40.5q0 16 -9 36t-28.5 37.5t-50.5 29.5t-75 12zM33 268q0 58 15.5 104t42.5 81q40 51 98.5 76.5t124.5 25.5q52 0 97 -15.5
t77.5 -42t51 -62.5t18.5 -77t-18 -77t-51 -62.5t-80 -42t-105 -15.5q-39 0 -69.5 8.5t-54 20.5t-39.5 25t-25 23q5 -45 23 -78.5t45 -55t59.5 -32t67.5 -10.5q45 0 86 18q5 2 9 3t9 1q17 0 29 -12t12 -29q0 -13 -7 -23t-18 -15q-56 -25 -120 -25q-51 0 -101 17.5t-89 53.5
t-63.5 90t-24.5 127zM469 727q6 3 13 3q13 0 23.5 -10.5t10.5 -26.5q0 -11 -6 -20t-17 -12l-139 -35q-13 -3 -20 2.5t-7 15.5q0 13 13 19z" />
    <glyph glyph-name="ecircumflex" unicode="&#xea;" horiz-adv-x="651" 
d="M313 473q-31 0 -62 -9t-55.5 -24.5t-40 -36.5t-15.5 -45q0 -21 14 -41.5t37.5 -37t55 -26.5t66.5 -10q41 0 71.5 10.5t51 27t30.5 37t10 40.5q0 16 -9 36t-28.5 37.5t-50.5 29.5t-75 12zM33 268q0 58 15.5 104t42.5 81q40 51 98.5 76.5t124.5 25.5q52 0 97 -15.5
t77.5 -42t51 -62.5t18.5 -77t-18 -77t-51 -62.5t-80 -42t-105 -15.5q-39 0 -69.5 8.5t-54 20.5t-39.5 25t-25 23q5 -45 23 -78.5t45 -55t59.5 -32t67.5 -10.5q45 0 86 18q5 2 9 3t9 1q17 0 29 -12t12 -29q0 -13 -7 -23t-18 -15q-56 -25 -120 -25q-51 0 -101 17.5t-89 53.5
t-63.5 90t-24.5 127zM452 639q-23 14 -50 20.5t-54 6.5q-57 0 -105 -27q-5 -3 -12 -3q-25 0 -25 25q0 11 9 20q26 23 58.5 39t74.5 16t73 -16.5t59 -38.5q10 -7 10 -20q0 -25 -25 -25q-7 0 -13 3z" />
    <glyph glyph-name="edieresis" unicode="&#xeb;" horiz-adv-x="651" 
d="M313 473q-31 0 -62 -9t-55.5 -24.5t-40 -36.5t-15.5 -45q0 -21 14 -41.5t37.5 -37t55 -26.5t66.5 -10q41 0 71.5 10.5t51 27t30.5 37t10 40.5q0 16 -9 36t-28.5 37.5t-50.5 29.5t-75 12zM33 268q0 58 15.5 104t42.5 81q40 51 98.5 76.5t124.5 25.5q52 0 97 -15.5
t77.5 -42t51 -62.5t18.5 -77t-18 -77t-51 -62.5t-80 -42t-105 -15.5q-39 0 -69.5 8.5t-54 20.5t-39.5 25t-25 23q5 -45 23 -78.5t45 -55t59.5 -32t67.5 -10.5q45 0 86 18q5 2 9 3t9 1q17 0 29 -12t12 -29q0 -13 -7 -23t-18 -15q-56 -25 -120 -25q-51 0 -101 17.5t-89 53.5
t-63.5 90t-24.5 127zM225 677q0 15 10 27t31 12t31 -12t10 -27t-10 -27t-31 -12t-31 12t-10 27zM385 677q0 15 10 27t31 12t31 -12t10 -27t-10 -27t-31 -12t-31 12t-10 27z" />
    <glyph glyph-name="igrave" unicode="&#xec;" horiz-adv-x="306" 
d="M77 496q0 17 12 29t29 12t29 -12t12 -29v-268q0 -51 26.5 -97.5t69.5 -74.5q10 -6 14.5 -15.5t4.5 -19.5q0 -16 -11.5 -28.5t-28.5 -12.5q-14 0 -29.5 9.5t-30.5 24t-28 30.5t-22 30q-21 33 -34 71t-13 78v273zM98 625l-142 39q-10 3 -14.5 12t-4.5 19q0 13 10 24.5
t24 11.5q5 0 11 -3l130 -66q13 -7 13 -18q0 -8 -7.5 -15t-13.5 -5.5z" />
    <glyph glyph-name="iacute" unicode="&#xed;" horiz-adv-x="306" 
d="M77 496q0 17 12 29t29 12t29 -12t12 -29v-268q0 -51 26.5 -97.5t69.5 -74.5q10 -6 14.5 -15.5t4.5 -19.5q0 -16 -11.5 -28.5t-28.5 -12.5q-14 0 -29.5 9.5t-30.5 24t-28 30.5t-22 30q-21 33 -34 71t-13 78v273zM253 727q6 3 13 3q13 0 23.5 -10.5t10.5 -26.5
q0 -11 -6 -20t-17 -12l-139 -35q-13 -3 -20 2.5t-7 15.5q0 13 13 19z" />
    <glyph glyph-name="icircumflex" unicode="&#xee;" horiz-adv-x="306" 
d="M77 496q0 17 12 29t29 12t29 -12t12 -29v-268q0 -51 26.5 -97.5t69.5 -74.5q10 -6 14.5 -15.5t4.5 -19.5q0 -16 -11.5 -28.5t-28.5 -12.5q-14 0 -29.5 9.5t-30.5 24t-28 30.5t-22 30q-21 33 -34 71t-13 78v273zM229 639q-23 14 -50 20.5t-54 6.5q-57 0 -105 -27
q-5 -3 -12 -3q-25 0 -25 25q0 11 9 20q26 23 58.5 39t74.5 16t73 -16.5t59 -38.5q10 -7 10 -20q0 -25 -25 -25q-7 0 -13 3z" />
    <glyph glyph-name="idieresis" unicode="&#xef;" horiz-adv-x="306" 
d="M77 496q0 17 12 29t29 12t29 -12t12 -29v-268q0 -51 26.5 -97.5t69.5 -74.5q10 -6 14.5 -15.5t4.5 -19.5q0 -16 -11.5 -28.5t-28.5 -12.5q-14 0 -29.5 9.5t-30.5 24t-28 30.5t-22 30q-21 33 -34 71t-13 78v273zM3 677q0 15 10 27t31 12t31 -12t10 -27t-10 -27t-31 -12
t-31 12t-10 27zM163 677q0 15 10 27t31 12t31 -12t10 -27t-10 -27t-31 -12t-31 12t-10 27z" />
    <glyph glyph-name="eth" unicode="&#xf0;" horiz-adv-x="696" 
d="M341 474q-38 0 -73 -12t-62.5 -37t-44 -64t-16.5 -92t16.5 -92t44 -64.5t62.5 -37.5t73 -12q37 0 72.5 12t63 37.5t44 64.5t16.5 92t-16.5 92t-44 64t-63 37t-72.5 12zM485 665q-7 -8 -13.5 -15t-14.5 -14q-7 -7 -18 -7q-10 0 -17 7q-8 8 -8 17q0 12 10.5 22t18.5 18
q-26 19 -54.5 26t-59.5 7h-13l-6 -1q-5 0 -11 3q-14 5 -21 16t-7 23q0 14 9.5 26t27.5 14q7 1 14 1.5t15 0.5q45 0 89.5 -15.5t78.5 -38.5q7 7 13 13.5t14 13.5q7 7 18 7q10 0 17 -7q8 -8 8 -16q0 -11 -9.5 -21.5t-18.5 -18.5q-2 -1 -2.5 -2t-1.5 -2q37 -36 56.5 -83
t19.5 -99v-271q0 -62 -20 -114.5t-56.5 -91t-87.5 -60.5t-114 -22t-114 22t-87.5 60.5t-56.5 91t-20 114.5t20 114.5t56.5 91t87.5 60t114 21.5q70 0 136 -32q10 -5 19.5 -12.5t17.5 -11.5q9 -4 12 -4q8 0 9.5 7.5t1.5 16.5v17q0 76 -52 128z" />
    <glyph glyph-name="ntilde" unicode="&#xf1;" horiz-adv-x="723" 
d="M633 41q0 -17 -12 -29t-29 -12t-28.5 12t-11.5 29v227q0 53 -17 92t-44.5 64.5t-63 37.5t-72.5 12t-72 -12t-62.5 -37.5t-44.5 -64.5t-17 -92v-227q0 -17 -12 -29t-29 -12t-29 12t-12 29v227q0 73 24.5 127t63.5 90t89 53.5t101 17.5t101 -17.5t89.5 -53.5t63.5 -90
t24 -127v-227zM383 629l-69 39q-11 6 -19 6q-14 0 -23 -9t-11 -23q-2 -13 -11.5 -21.5t-22.5 -8.5q-14 0 -23 9.5t-9 22.5q0 20 8.5 37.5t22.5 30t32 20t37 7.5q29 0 51 -13l69 -39q10 -6 19 -6q14 0 23 9t11 23q2 13 11.5 21.5t22.5 8.5q14 0 23 -9.5t9 -22.5
q0 -20 -8.5 -37.5t-22.5 -30t-32 -20t-37 -7.5q-29 0 -51 13zM383 629l-69 39q-11 6 -19 6q-14 0 -23 -9t-11 -23q-2 -13 -11.5 -21.5t-22.5 -8.5q-14 0 -23 9.5t-9 22.5q0 20 8.5 37.5t22.5 30t32 20t37 7.5q29 0 51 -13l69 -39q10 -6 19 -6q14 0 23 9t11 23
q2 13 11.5 21.5t22.5 8.5q14 0 23 -9.5t9 -22.5q0 -20 -8.5 -37.5t-22.5 -30t-32 -20t-37 -7.5q-29 0 -51 13z" />
    <glyph glyph-name="ograve" unicode="&#xf2;" horiz-adv-x="676" 
d="M338 -20q-51 0 -101 17.5t-89 53.5t-63.5 90t-24.5 127t24 127t63.5 89.5t89.5 53t101 17.5q52 0 102 -17.5t89 -53t63 -89.5t24 -127t-24 -127t-63.5 -90t-89.5 -53.5t-101 -17.5zM338 62q37 0 72.5 12t63 37.5t44 64.5t16.5 92t-16.5 92t-44 64t-63 37t-72.5 12
t-72.5 -12t-63 -37t-44 -64t-16.5 -92t17 -92t44.5 -64.5t62.5 -37.5t72 -12zM327 625l-142 39q-10 3 -14.5 12t-4.5 19q0 13 10 24.5t24 11.5q5 0 11 -3l130 -66q13 -7 13 -18q0 -8 -7.5 -15t-13.5 -5.5z" />
    <glyph glyph-name="oacute" unicode="&#xf3;" horiz-adv-x="676" 
d="M338 -20q-51 0 -101 17.5t-89 53.5t-63.5 90t-24.5 127t24 127t63.5 89.5t89.5 53t101 17.5q52 0 102 -17.5t89 -53t63 -89.5t24 -127t-24 -127t-63.5 -90t-89.5 -53.5t-101 -17.5zM338 62q37 0 72.5 12t63 37.5t44 64.5t16.5 92t-16.5 92t-44 64t-63 37t-72.5 12
t-72.5 -12t-63 -37t-44 -64t-16.5 -92t17 -92t44.5 -64.5t62.5 -37.5t72 -12zM464 727q6 3 13 3q13 0 23.5 -10.5t10.5 -26.5q0 -11 -6 -20t-17 -12l-139 -35q-13 -3 -20 2.5t-7 15.5q0 13 13 19z" />
    <glyph glyph-name="ocircumflex" unicode="&#xf4;" horiz-adv-x="676" 
d="M338 -20q-51 0 -101 17.5t-89 53.5t-63.5 90t-24.5 127t24 127t63.5 89.5t89.5 53t101 17.5q52 0 102 -17.5t89 -53t63 -89.5t24 -127t-24 -127t-63.5 -90t-89.5 -53.5t-101 -17.5zM338 62q37 0 72.5 12t63 37.5t44 64.5t16.5 92t-16.5 92t-44 64t-63 37t-72.5 12
t-72.5 -12t-63 -37t-44 -64t-16.5 -92t17 -92t44.5 -64.5t62.5 -37.5t72 -12zM443 632q-23 14 -50 20.5t-54 6.5q-57 0 -105 -27q-5 -3 -12 -3q-25 0 -25 25q0 11 9 20q26 23 58.5 39t74.5 16t73 -16.5t59 -38.5q10 -7 10 -20q0 -25 -25 -25q-7 0 -13 3z" />
    <glyph glyph-name="otilde" unicode="&#xf5;" horiz-adv-x="676" 
d="M338 -20q-51 0 -101 17.5t-89 53.5t-63.5 90t-24.5 127t24 127t63.5 89.5t89.5 53t101 17.5q52 0 102 -17.5t89 -53t63 -89.5t24 -127t-24 -127t-63.5 -90t-89.5 -53.5t-101 -17.5zM338 62q37 0 72.5 12t63 37.5t44 64.5t16.5 92t-16.5 92t-44 64t-63 37t-72.5 12
t-72.5 -12t-63 -37t-44 -64t-16.5 -92t17 -92t44.5 -64.5t62.5 -37.5t72 -12zM369 629l-69 39q-11 6 -19 6q-14 0 -23 -9t-11 -23q-2 -13 -11.5 -21.5t-22.5 -8.5q-14 0 -23 9.5t-9 22.5q0 20 8.5 37.5t22.5 30t32 20t37 7.5q29 0 51 -13l69 -39q10 -6 19 -6q14 0 23 9
t11 23q2 13 11.5 21.5t22.5 8.5q14 0 23 -9.5t9 -22.5q0 -20 -8.5 -37.5t-22.5 -30t-32 -20t-37 -7.5q-29 0 -51 13zM369 629l-69 39q-11 6 -19 6q-14 0 -23 -9t-11 -23q-2 -13 -11.5 -21.5t-22.5 -8.5q-14 0 -23 9.5t-9 22.5q0 20 8.5 37.5t22.5 30t32 20t37 7.5
q29 0 51 -13l69 -39q10 -6 19 -6q14 0 23 9t11 23q2 13 11.5 21.5t22.5 8.5q14 0 23 -9.5t9 -22.5q0 -20 -8.5 -37.5t-22.5 -30t-32 -20t-37 -7.5q-29 0 -51 13z" />
    <glyph glyph-name="odieresis" unicode="&#xf6;" horiz-adv-x="676" 
d="M338 -20q-51 0 -101 17.5t-89 53.5t-63.5 90t-24.5 127t24 127t63.5 89.5t89.5 53t101 17.5q52 0 102 -17.5t89 -53t63 -89.5t24 -127t-24 -127t-63.5 -90t-89.5 -53.5t-101 -17.5zM338 62q37 0 72.5 12t63 37.5t44 64.5t16.5 92t-16.5 92t-44 64t-63 37t-72.5 12
t-72.5 -12t-63 -37t-44 -64t-16.5 -92t17 -92t44.5 -64.5t62.5 -37.5t72 -12zM217 677q0 15 10 27t31 12t31 -12t10 -27t-10 -27t-31 -12t-31 12t-10 27zM377 677q0 15 10 27t31 12t31 -12t10 -27t-10 -27t-31 -12t-31 12t-10 27z" />
    <glyph glyph-name="divide" unicode="&#xf7;" horiz-adv-x="625" 
d="M265 135q0 15 10 27t31 12t31 -12t10 -27q0 -14 -10 -26.5t-31 -12.5t-31 12t-10 27zM265 397q0 15 10 27t31 12t31 -12t10 -27q0 -14 -10 -26.5t-31 -12.5t-31 12t-10 27zM125 234q-14 0 -24.5 10.5t-10.5 24.5t10.5 24.5t24.5 10.5h375q14 0 24.5 -10.5t10.5 -24.5
t-10.5 -24.5t-24.5 -10.5h-375z" />
    <glyph glyph-name="oslash" unicode="&#xf8;" horiz-adv-x="676" 
d="M60 268q0 73 24 127t63.5 89.5t89.5 53t101 17.5q45 0 88.5 -13.5t80.5 -40.5q3 -3 7 -3q5 0 10 4l22 22q10 10 25 10q14 0 24 -10.5t10 -24.5q0 -15 -10 -24l-23 -24q-4 -4 -4 -9q0 -4 2 -6q21 -33 33.5 -75t12.5 -93q0 -73 -24.5 -127t-63.5 -90t-89 -53.5t-101 -17.5
q-45 0 -88 13t-80 40q-5 3 -9 3q-5 0 -8 -4l-23 -23q-10 -10 -25 -10t-25 10t-10 25q0 7 1 11t5 8.5t10.5 11l18.5 18.5q4 4 4 9l-2 6q-22 33 -34.5 74.5t-12.5 95.5zM225 94q25 -17 54 -24.5t59 -7.5q37 0 72.5 12t63 37.5t44 64t16.5 92.5q0 33 -7 60.5t-19 49.5
q-2 2 -4 2q-3 0 -4 -1l-276 -276q-2 -2 -2 -4q0 -4 3 -5zM338 473q-38 0 -73 -12t-62.5 -37t-44 -64t-16.5 -92q0 -35 7 -62.5t19 -49.5q1 -3 5 -3q2 0 4 2l276 276q1 1 1 4t-2 5q-25 17 -54.5 25t-59.5 8z" />
    <glyph glyph-name="ugrave" unicode="&#xf9;" horiz-adv-x="723" 
d="M633 496v-228q0 -73 -24 -127t-63.5 -90t-89.5 -53.5t-101 -17.5t-101 17.5t-89 53.5t-63.5 90t-24.5 127v228q0 17 12 29t29 12t29 -12t12 -29v-228q0 -53 17 -92t44.5 -64.5t62.5 -37.5t72 -12t72.5 12t63 37.5t44.5 64.5t17 92v228q0 17 11.5 29t28.5 12t29 -12
t12 -29zM338 625l-142 39q-10 3 -14.5 12t-4.5 19q0 13 10 24.5t24 11.5q5 0 11 -3l130 -66q13 -7 13 -18q0 -8 -7.5 -15t-13.5 -5.5z" />
    <glyph glyph-name="uacute" unicode="&#xfa;" horiz-adv-x="723" 
d="M633 496v-228q0 -73 -24 -127t-63.5 -90t-89.5 -53.5t-101 -17.5t-101 17.5t-89 53.5t-63.5 90t-24.5 127v228q0 17 12 29t29 12t29 -12t12 -29v-228q0 -53 17 -92t44.5 -64.5t62.5 -37.5t72 -12t72.5 12t63 37.5t44.5 64.5t17 92v228q0 17 11.5 29t28.5 12t29 -12
t12 -29zM475 727q6 3 13 3q13 0 23.5 -10.5t10.5 -26.5q0 -11 -6 -20t-17 -12l-139 -35q-13 -3 -20 2.5t-7 15.5q0 13 13 19z" />
    <glyph glyph-name="ucircumflex" unicode="&#xfb;" horiz-adv-x="723" 
d="M633 496v-228q0 -73 -24 -127t-63.5 -90t-89.5 -53.5t-101 -17.5t-101 17.5t-89 53.5t-63.5 90t-24.5 127v228q0 17 12 29t29 12t29 -12t12 -29v-228q0 -53 17 -92t44.5 -64.5t62.5 -37.5t72 -12t72.5 12t63 37.5t44.5 64.5t17 92v228q0 17 11.5 29t28.5 12t29 -12
t12 -29zM462 632q-23 14 -50 20.5t-54 6.5q-57 0 -105 -27q-5 -3 -12 -3q-25 0 -25 25q0 11 9 20q26 23 58.5 39t74.5 16t73 -16.5t59 -38.5q10 -7 10 -20q0 -25 -25 -25q-7 0 -13 3z" />
    <glyph glyph-name="udieresis" unicode="&#xfc;" horiz-adv-x="723" 
d="M633 496v-228q0 -73 -24 -127t-63.5 -90t-89.5 -53.5t-101 -17.5t-101 17.5t-89 53.5t-63.5 90t-24.5 127v228q0 17 12 29t29 12t29 -12t12 -29v-228q0 -53 17 -92t44.5 -64.5t62.5 -37.5t72 -12t72.5 12t63 37.5t44.5 64.5t17 92v228q0 17 11.5 29t28.5 12t29 -12
t12 -29zM234 677q0 15 10 27t31 12t31 -12t10 -27t-10 -27t-31 -12t-31 12t-10 27zM394 677q0 15 10 27t31 12t31 -12t10 -27t-10 -27t-31 -12t-31 12t-10 27z" />
    <glyph glyph-name="yacute" unicode="&#xfd;" horiz-adv-x="533" 
d="M551 497q0 17 12 29t29 12t29 -12t12 -29v-480q0 -73 -24.5 -127t-63.5 -89.5t-89 -53t-101 -17.5q-31 0 -61.5 6t-59.5 20q-24 11 -24 37q0 17 12 29t29 12q9 0 17 -4q40 -18 87 -18q37 0 72.5 12t63 37t44 64t16.5 92v46q-40 -38 -91 -57t-105 -19q-51 0 -101 17.5
t-89.5 53t-63.5 89.5t-24 127v223q0 17 12 29t29 12t29 -12t12 -29v-221q0 -54 16.5 -93t44 -64.5t62.5 -37.5t73 -12q37 0 72.5 12t63 37t44 64t16.5 92v223zM416 727q6 3 13 3q13 0 23.5 -10.5t10.5 -26.5q0 -11 -6 -20t-17 -12l-139 -35q-13 -3 -20 2.5t-7 15.5
q0 13 13 19z" />
    <glyph glyph-name="thorn" unicode="&#xfe;" horiz-adv-x="592" 
d="M90 752q0 17 12 29t29 12t29 -12t12 -29v-218q0 -13 13 -13q4 0 8 2q52 33 117 33q46 0 86 -18t69.5 -48.5t46.5 -72t17 -89.5v-121q0 -47 -17 -88.5t-46.5 -72.5t-69.5 -49t-86 -18q-65 0 -117 34q-4 2 -8 2q-13 0 -13 -13v-223q0 -17 -12 -29t-29 -12t-29 12t-12 29
v973zM172 200q0 -30 11.5 -55.5t30.5 -44t44 -29t52 -10.5q28 0 52.5 11t43.5 30.5t30 46t11 58.5v121q0 31 -11 58t-30 47t-43.5 31t-52.5 11q-27 0 -51.5 -10.5t-43.5 -29t-30.5 -44t-12.5 -56.5v-135z" />
    <glyph glyph-name="ydieresis" unicode="&#xff;" horiz-adv-x="533" 
d="M551 497q0 17 12 29t29 12t29 -12t12 -29v-480q0 -73 -24.5 -127t-63.5 -89.5t-89 -53t-101 -17.5q-31 0 -61.5 6t-59.5 20q-24 11 -24 37q0 17 12 29t29 12q9 0 17 -4q40 -18 87 -18q37 0 72.5 12t63 37t44 64t16.5 92v46q-40 -38 -91 -57t-105 -19q-51 0 -101 17.5
t-89.5 53t-63.5 89.5t-24 127v223q0 17 12 29t29 12t29 -12t12 -29v-221q0 -54 16.5 -93t44 -64.5t62.5 -37.5t73 -12q37 0 72.5 12t63 37t44 64t16.5 92v223zM156 677q0 15 10 27t31 12t31 -12t10 -27t-10 -27t-31 -12t-31 12t-10 27zM316 677q0 15 10 27t31 12t31 -12
t10 -27t-10 -27t-31 -12t-31 12t-10 27z" />
    <glyph glyph-name="Amacron" unicode="&#x100;" 
d="M159 41q0 -17 -12 -29t-29 -12t-29 12t-12 29v479q0 73 24.5 127t63.5 90t89 53.5t101 17.5t101 -17.5t89.5 -53.5t63.5 -90t24 -127v-479q0 -17 -12 -29t-29 -12t-29 12t-12 29v290q0 10 -7 17t-18 7h-343q-10 0 -17 -7t-7 -17v-290zM551 519q0 54 -16.5 93t-44 64.5
t-63 37.5t-72.5 12q-38 0 -73 -12t-62.5 -37.5t-44 -64t-16.5 -92.5v-58q0 -11 7 -18t17 -7h343q25 0 25 25v57zM197 885q0 15 10.5 25t24.5 10h245q15 0 25 -10t10 -25q0 -14 -10 -24.5t-25 -10.5h-245q-14 0 -24.5 10.5t-10.5 24.5z" />
    <glyph glyph-name="amacron" unicode="&#x101;" horiz-adv-x="706" 
d="M158 361q-16 -39 -16 -92q0 -54 16.5 -92.5t44 -64t63 -37.5t72.5 -12t72.5 12t62.5 37q28 26 44.5 64.5t16.5 92.5q0 53 -17 92q-16 39 -43.5 64t-63 37t-72.5 12q-38 0 -73 -12t-62.5 -37t-44.5 -64zM534 496q0 17 12 29t29 12t29 -12t12 -29v-267q0 -21 4.5 -43
t13.5 -43t22.5 -38.5t30.5 -28.5q8 -5 13 -13q9 -14 5.5 -30.5t-16 -25t-24.5 -8t-22 7.5q-22 15 -36.5 31t-25.5 37q-5 10 -12.5 11.5t-13.5 -6.5q-41 -51 -99 -75t-118 -24q-51 0 -101 17.5t-89 53.5t-63.5 90t-24.5 127t24 127t63.5 89.5t89.5 53t101 17.5q54 0 105 -19
t91 -57v16zM194 677q0 15 10.5 25t24.5 10h245q15 0 25 -10t10 -25q0 -14 -10 -24.5t-25 -10.5h-245q-14 0 -24.5 10.5t-10.5 24.5z" />
    <glyph glyph-name="Abreve" unicode="&#x102;" 
d="M159 41q0 -17 -12 -29t-29 -12t-29 12t-12 29v479q0 73 24.5 127t63.5 90t89 53.5t101 17.5t101 -17.5t89.5 -53.5t63.5 -90t24 -127v-479q0 -17 -12 -29t-29 -12t-29 12t-12 29v290q0 10 -7 17t-18 7h-343q-10 0 -17 -7t-7 -17v-290zM551 519q0 54 -16.5 93t-44 64.5
t-63 37.5t-72.5 12q-38 0 -73 -12t-62.5 -37.5t-44 -64t-16.5 -92.5v-58q0 -11 7 -18t17 -7h343q25 0 25 25v57zM336 903q8 -5 16 -5t16 5l107 54q6 3 13 3q14 0 25 -10t11 -27q0 -11 -6 -20.5t-17 -12.5l-142 -39q-7 -2 -14 0l-141 39q-12 3 -18 12.5t-6 20.5q0 17 11 27
t25 10q7 0 13 -3z" />
    <glyph glyph-name="abreve" unicode="&#x103;" horiz-adv-x="706" 
d="M158 361q-16 -39 -16 -92q0 -54 16.5 -92.5t44 -64t63 -37.5t72.5 -12t72.5 12t62.5 37q28 26 44.5 64.5t16.5 92.5q0 53 -17 92q-16 39 -43.5 64t-63 37t-72.5 12q-38 0 -73 -12t-62.5 -37t-44.5 -64zM534 496q0 17 12 29t29 12t29 -12t12 -29v-267q0 -21 4.5 -43
t13.5 -43t22.5 -38.5t30.5 -28.5q8 -5 13 -13q9 -14 5.5 -30.5t-16 -25t-24.5 -8t-22 7.5q-22 15 -36.5 31t-25.5 37q-5 10 -12.5 11.5t-13.5 -6.5q-41 -51 -99 -75t-118 -24q-51 0 -101 17.5t-89 53.5t-63.5 90t-24.5 127t24 127t63.5 89.5t89.5 53t101 17.5q54 0 105 -19
t91 -57v16zM331 675q8 -5 16 -5t16 5l107 54q6 3 13 3q14 0 25 -10t11 -27q0 -11 -6 -20.5t-17 -12.5l-142 -39q-7 -2 -14 0l-141 39q-12 3 -18 12.5t-6 20.5q0 17 11 27t25 10q7 0 13 -3z" />
    <glyph glyph-name="Aogonek" unicode="&#x104;" 
d="M571 163q0 13 9 22t22 9t22 -9t9 -22v-129q0 -26 -28 -32t-28 -29q0 -12 6 -18q7 -7 20 -7q16 0 25 14q8 14 25 14q12 0 20.5 -8.5t8.5 -20.5q0 -10 -4 -15q-27 -44 -75 -44q-38 0 -62 26q-25 25 -25 59q0 51 46 75q9 4 9 12v103zM159 41q0 -17 -12 -29t-29 -12t-29 12
t-12 29v479q0 73 24.5 127t63.5 90t89 53.5t101 17.5t101 -17.5t89.5 -53.5t63.5 -90t24 -127v-479q0 -17 -12 -29t-29 -12t-29 12t-12 29v290q0 10 -7 17t-18 7h-343q-10 0 -17 -7t-7 -17v-290zM551 519q0 54 -16.5 93t-44 64.5t-63 37.5t-72.5 12q-38 0 -73 -12
t-62.5 -37.5t-44 -64t-16.5 -92.5v-58q0 -11 7 -18t17 -7h343q25 0 25 25v57z" />
    <glyph glyph-name="aogonek" unicode="&#x105;" horiz-adv-x="706" 
d="M560 163q0 13 9 22t22 9t22 -9t9 -22v-129q0 -26 -28 -32t-28 -29q0 -12 6 -18q7 -7 20 -7q16 0 25 14q8 14 25 14q12 0 20.5 -8.5t8.5 -20.5q0 -10 -4 -15q-27 -44 -75 -44q-38 0 -62 26q-25 25 -25 59q0 51 46 75q9 4 9 12v103zM158 361q-16 -39 -16 -92
q0 -54 16.5 -92.5t44 -64t63 -37.5t72.5 -12t72.5 12t62.5 37q28 26 44.5 64.5t16.5 92.5q0 53 -17 92q-16 39 -43.5 64t-63 37t-72.5 12q-38 0 -73 -12t-62.5 -37t-44.5 -64zM534 496q0 17 12 29t29 12t29 -12t12 -29v-267q0 -21 4.5 -43t13.5 -43t22.5 -38.5t30.5 -28.5
q8 -5 13 -13q9 -14 5.5 -30.5t-16 -25t-24.5 -8t-22 7.5q-22 15 -36.5 31t-25.5 37q-5 10 -12.5 11.5t-13.5 -6.5q-41 -51 -99 -75t-118 -24q-51 0 -101 17.5t-89 53.5t-63.5 90t-24.5 127t24 127t63.5 89.5t89.5 53t101 17.5q54 0 105 -19t91 -57v16z" />
    <glyph glyph-name="Cacute" unicode="&#x106;" horiz-adv-x="681" 
d="M624 12q-79 -32 -161 -32q-74 0 -145.5 25.5t-128 76.5t-91.5 129t-35 183t35 182.5t91.5 129t128 76.5t145.5 25q17 0 29 -12t12 -29t-12 -29t-29 -12q-60 0 -117 -19.5t-101.5 -60.5t-72 -103.5t-27.5 -147.5q0 -86 27.5 -148.5t72.5 -103t102 -60.5t116 -20
q33 0 65.5 6t63.5 19q7 3 16 3q17 0 29 -12t12 -29q0 -27 -25 -37zM577 953q6 3 13 3q13 0 23.5 -10.5t10.5 -26.5q0 -11 -6 -20t-17 -12l-139 -35q-13 -3 -20 2.5t-7 15.5q0 13 13 19z" />
    <glyph glyph-name="cacute" unicode="&#x107;" horiz-adv-x="529" 
d="M462 530q24 -11 24 -37q0 -17 -12 -29t-29 -12q-8 0 -17 4q-41 18 -87 18q-38 0 -73 -12t-62.5 -37t-44 -64t-16.5 -92q0 -54 16.5 -92.5t44 -64t62.5 -37.5t73 -12q45 0 86 18q9 4 18 4q17 0 29 -12t12 -29q0 -13 -7 -23t-18 -15q-54 -25 -120 -25q-51 0 -101 17.5
t-89 53.5t-63.5 90t-24.5 127t24 127t63.5 89.5t89.5 53t101 17.5q31 0 61.5 -6t59.5 -20zM431 727q6 3 13 3q13 0 23.5 -10.5t10.5 -26.5q0 -11 -6 -20t-17 -12l-139 -35q-13 -3 -20 2.5t-7 15.5q0 13 13 19z" />
    <glyph glyph-name="Ccircumflex" unicode="&#x108;" horiz-adv-x="681" 
d="M624 12q-79 -32 -161 -32q-74 0 -145.5 25.5t-128 76.5t-91.5 129t-35 183t35 182.5t91.5 129t128 76.5t145.5 25q17 0 29 -12t12 -29t-12 -29t-29 -12q-60 0 -117 -19.5t-101.5 -60.5t-72 -103.5t-27.5 -147.5q0 -86 27.5 -148.5t72.5 -103t102 -60.5t116 -20
q33 0 65.5 6t63.5 19q7 3 16 3q17 0 29 -12t12 -29q0 -27 -25 -37zM549 851q-23 14 -50 20.5t-54 6.5q-57 0 -105 -27q-5 -3 -12 -3q-25 0 -25 25q0 11 9 20q26 23 58.5 39t74.5 16t73 -16.5t59 -38.5q10 -7 10 -20q0 -25 -25 -25q-7 0 -13 3z" />
    <glyph glyph-name="ccircumflex" unicode="&#x109;" horiz-adv-x="529" 
d="M462 530q24 -11 24 -37q0 -17 -12 -29t-29 -12q-8 0 -17 4q-41 18 -87 18q-38 0 -73 -12t-62.5 -37t-44 -64t-16.5 -92q0 -54 16.5 -92.5t44 -64t62.5 -37.5t73 -12q45 0 86 18q9 4 18 4q17 0 29 -12t12 -29q0 -13 -7 -23t-18 -15q-54 -25 -120 -25q-51 0 -101 17.5
t-89 53.5t-63.5 90t-24.5 127t24 127t63.5 89.5t89.5 53t101 17.5q31 0 61.5 -6t59.5 -20zM452 632q-23 14 -50 20.5t-54 6.5q-57 0 -105 -27q-5 -3 -12 -3q-25 0 -25 25q0 11 9 20q26 23 58.5 39t74.5 16t73 -16.5t59 -38.5q10 -7 10 -20q0 -25 -25 -25q-7 0 -13 3z" />
    <glyph glyph-name="Cdotaccent" unicode="&#x10a;" horiz-adv-x="681" 
d="M624 12q-79 -32 -161 -32q-74 0 -145.5 25.5t-128 76.5t-91.5 129t-35 183t35 182.5t91.5 129t128 76.5t145.5 25q17 0 29 -12t12 -29t-12 -29t-29 -12q-60 0 -117 -19.5t-101.5 -60.5t-72 -103.5t-27.5 -147.5q0 -86 27.5 -148.5t72.5 -103t102 -60.5t116 -20
q33 0 65.5 6t63.5 19q7 3 16 3q17 0 29 -12t12 -29q0 -27 -25 -37zM420 888q0 15 10 27t31 12t31 -12t10 -27t-10 -27t-31 -12t-31 12t-10 27z" />
    <glyph glyph-name="cdotaccent" unicode="&#x10b;" horiz-adv-x="529" 
d="M462 530q24 -11 24 -37q0 -17 -12 -29t-29 -12q-8 0 -17 4q-41 18 -87 18q-38 0 -73 -12t-62.5 -37t-44 -64t-16.5 -92q0 -54 16.5 -92.5t44 -64t62.5 -37.5t73 -12q45 0 86 18q9 4 18 4q17 0 29 -12t12 -29q0 -13 -7 -23t-18 -15q-54 -25 -120 -25q-51 0 -101 17.5
t-89 53.5t-63.5 90t-24.5 127t24 127t63.5 89.5t89.5 53t101 17.5q31 0 61.5 -6t59.5 -20zM302 678q0 15 10 27t31 12t31 -12t10 -27t-10 -27t-31 -12t-31 12t-10 27z" />
    <glyph glyph-name="Ccaron" unicode="&#x10c;" horiz-adv-x="681" 
d="M624 12q-79 -32 -161 -32q-74 0 -145.5 25.5t-128 76.5t-91.5 129t-35 183t35 182.5t91.5 129t128 76.5t145.5 25q17 0 29 -12t12 -29t-12 -29t-29 -12q-60 0 -117 -19.5t-101.5 -60.5t-72 -103.5t-27.5 -147.5q0 -86 27.5 -148.5t72.5 -103t102 -60.5t116 -20
q33 0 65.5 6t63.5 19q7 3 16 3q17 0 29 -12t12 -29q0 -27 -25 -37zM569 946q6 3 13 3q25 0 25 -25q0 -13 -10 -20q-28 -22 -59 -38.5t-73 -16.5t-73.5 16.5t-59.5 38.5q-9 9 -9 20q0 25 25 25q7 0 12 -3q48 -27 105 -27q62 0 104 27z" />
    <glyph glyph-name="ccaron" unicode="&#x10d;" horiz-adv-x="529" 
d="M462 530q24 -11 24 -37q0 -17 -12 -29t-29 -12q-8 0 -17 4q-41 18 -87 18q-38 0 -73 -12t-62.5 -37t-44 -64t-16.5 -92q0 -54 16.5 -92.5t44 -64t62.5 -37.5t73 -12q45 0 86 18q9 4 18 4q17 0 29 -12t12 -29q0 -13 -7 -23t-18 -15q-54 -25 -120 -25q-51 0 -101 17.5
t-89 53.5t-63.5 90t-24.5 127t24 127t63.5 89.5t89.5 53t101 17.5q31 0 61.5 -6t59.5 -20zM442 724q6 3 13 3q25 0 25 -25q0 -13 -10 -20q-28 -22 -59 -38.5t-73 -16.5t-73.5 16.5t-59.5 38.5q-9 9 -9 20q0 25 25 25q7 0 12 -3q48 -27 105 -27q62 0 104 27z" />
    <glyph glyph-name="Dcaron" unicode="&#x10e;" horiz-adv-x="716" 
d="M245 799q103 0 180 -34.5t127.5 -90.5t75.5 -127t25 -143q0 -73 -25 -143.5t-75.5 -126t-127.5 -90t-180 -34.5h-114q-17 0 -29 12t-12 29v707q0 17 12 29t29 12h114zM193 717q-9 0 -15 -6.5t-6 -14.5v-584q0 -8 6 -14t14 -6h53q84 0 145.5 26.5t101.5 70.5t59.5 100
t19.5 115q0 58 -19.5 114.5t-59.5 100.5t-101.5 71t-145.5 27h-52zM343 946q6 3 13 3q25 0 25 -25q0 -13 -10 -20q-28 -22 -59 -38.5t-73 -16.5t-73.5 16.5t-59.5 38.5q-9 9 -9 20q0 25 25 25q7 0 12 -3q48 -27 105 -27q62 0 104 27z" />
    <glyph glyph-name="dcaron" unicode="&#x10f;" horiz-adv-x="709" 
d="M619 268q0 -73 -24.5 -127t-63.5 -90t-89 -53.5t-101 -17.5t-101 17.5t-89.5 53.5t-63.5 90t-24 127t24 127t63 89.5t89 53t102 17.5q54 0 105 -18.5t91 -56.5v286q0 17 12 29t29 12t29 -12t12 -29v-498zM537 270q0 53 -17 91.5t-44.5 63t-62.5 36.5t-72 12
q-38 0 -73 -12t-62.5 -37t-44 -64t-16.5 -92t16.5 -92t44 -64.5t63 -37.5t72.5 -12t72 12t62.5 37.5t44.5 64.5t17 94zM692 627q-2 -8 -7.5 -13t-14.5 -4t-13 6.5t-4 15.5v145q0 15 11.5 23.5t26.5 6.5t25 -11.5t7 -24.5z" />
    <glyph glyph-name="Dcroat" unicode="&#x110;" horiz-adv-x="739" 
d="M271 799q103 0 180 -34.5t127.5 -90.5t75.5 -127t25 -143q0 -73 -25 -143.5t-75.5 -126t-127.5 -90t-180 -34.5h-114q-17 0 -29 12t-12 29v707q0 17 12 29t29 12h114zM219 717q-9 0 -15 -6.5t-6 -14.5v-584q0 -8 6 -14t14 -6h53q84 0 145.5 26.5t101.5 70.5t59.5 100
t19.5 115q0 58 -19.5 114.5t-59.5 100.5t-101.5 71t-145.5 27h-52zM33 400q0 15 10.5 25t24.5 10h245q15 0 25 -10t10 -25q0 -14 -10 -24.5t-25 -10.5h-245q-14 0 -24.5 10.5t-10.5 24.5z" />
    <glyph glyph-name="dcroat" unicode="&#x111;" horiz-adv-x="709" 
d="M619 268q0 -73 -24.5 -127t-63.5 -90t-89 -53.5t-101 -17.5t-101 17.5t-89.5 53.5t-63.5 90t-24 127t24 127t63 89.5t89 53t102 17.5q54 0 105 -18.5t91 -56.5v286q0 17 12 29t29 12t29 -12t12 -29v-498zM537 270q0 53 -17 91.5t-44.5 63t-62.5 36.5t-72 12
q-38 0 -73 -12t-62.5 -37t-44 -64t-16.5 -92t16.5 -92t44 -64.5t63 -37.5t72.5 -12t72 12t62.5 37.5t44.5 64.5t17 94zM228 226q-17 0 -29 12t-12 29t12 29t29 12h228q17 0 29 -12t12 -29t-12 -29t-29 -12h-228z" />
    <glyph glyph-name="Emacron" unicode="&#x112;" horiz-adv-x="532" 
d="M77 520q0 73 24 127t63.5 89.5t89.5 53t101 17.5q31 0 61.5 -6t59.5 -20q24 -11 24 -37q0 -17 -12 -29t-29 -12q-8 0 -17 4q-41 18 -87 18q-38 0 -73 -12t-62.5 -37t-44 -64t-16.5 -92v-43q0 -17 12 -29t29 -12h156q17 0 29 -12t12 -29t-12 -29t-29 -12h-156
q-17 0 -29 -12t-12 -29v-45q0 -54 16.5 -92.5t44 -64t62.5 -37.5t73 -12q45 0 86 18q9 4 18 4q17 0 29 -12t12 -29q0 -13 -7 -23t-18 -15q-54 -25 -120 -25q-51 0 -101 17.5t-89 53.5t-63.5 90t-24.5 127v252zM179 885q0 15 10.5 25t24.5 10h245q15 0 25 -10t10 -25
q0 -14 -10 -24.5t-25 -10.5h-245q-14 0 -24.5 10.5t-10.5 24.5z" />
    <glyph glyph-name="emacron" unicode="&#x113;" horiz-adv-x="651" 
d="M313 473q-31 0 -62 -9t-55.5 -24.5t-40 -36.5t-15.5 -45q0 -21 14 -41.5t37.5 -37t55 -26.5t66.5 -10q41 0 71.5 10.5t51 27t30.5 37t10 40.5q0 16 -9 36t-28.5 37.5t-50.5 29.5t-75 12zM33 268q0 58 15.5 104t42.5 81q40 51 98.5 76.5t124.5 25.5q52 0 97 -15.5
t77.5 -42t51 -62.5t18.5 -77t-18 -77t-51 -62.5t-80 -42t-105 -15.5q-39 0 -69.5 8.5t-54 20.5t-39.5 25t-25 23q5 -45 23 -78.5t45 -55t59.5 -32t67.5 -10.5q45 0 86 18q5 2 9 3t9 1q17 0 29 -12t12 -29q0 -13 -7 -23t-18 -15q-56 -25 -120 -25q-51 0 -101 17.5t-89 53.5
t-63.5 90t-24.5 127zM158 677q0 15 10.5 25t24.5 10h245q15 0 25 -10t10 -25q0 -14 -10 -24.5t-25 -10.5h-245q-14 0 -24.5 10.5t-10.5 24.5z" />
    <glyph glyph-name="Ebreve" unicode="&#x114;" horiz-adv-x="574" 
d="M77 520q0 73 24 127t63.5 89.5t89.5 53t101 17.5q31 0 61.5 -6t59.5 -20q24 -11 24 -37q0 -17 -12 -29t-29 -12q-8 0 -17 4q-41 18 -87 18q-38 0 -73 -12t-62.5 -37t-44 -64t-16.5 -92v-43q0 -17 12 -29t29 -12h156q17 0 29 -12t12 -29t-12 -29t-29 -12h-156
q-17 0 -29 -12t-12 -29v-45q0 -54 16.5 -92.5t44 -64t62.5 -37.5t73 -12q45 0 86 18q9 4 18 4q17 0 29 -12t12 -29q0 -13 -7 -23t-18 -15q-54 -25 -120 -25q-51 0 -101 17.5t-89 53.5t-63.5 90t-24.5 127v252zM354 903q8 -5 16 -5t16 5l107 54q6 3 13 3q14 0 25 -10t11 -27
q0 -11 -6 -20.5t-17 -12.5l-142 -39q-7 -2 -14 0l-141 39q-12 3 -18 12.5t-6 20.5q0 17 11 27t25 10q7 0 13 -3z" />
    <glyph glyph-name="ebreve" unicode="&#x115;" horiz-adv-x="651" 
d="M313 473q-31 0 -62 -9t-55.5 -24.5t-40 -36.5t-15.5 -45q0 -21 14 -41.5t37.5 -37t55 -26.5t66.5 -10q41 0 71.5 10.5t51 27t30.5 37t10 40.5q0 16 -9 36t-28.5 37.5t-50.5 29.5t-75 12zM33 268q0 58 15.5 104t42.5 81q40 51 98.5 76.5t124.5 25.5q52 0 97 -15.5
t77.5 -42t51 -62.5t18.5 -77t-18 -77t-51 -62.5t-80 -42t-105 -15.5q-39 0 -69.5 8.5t-54 20.5t-39.5 25t-25 23q5 -45 23 -78.5t45 -55t59.5 -32t67.5 -10.5q45 0 86 18q5 2 9 3t9 1q17 0 29 -12t12 -29q0 -13 -7 -23t-18 -15q-56 -25 -120 -25q-51 0 -101 17.5t-89 53.5
t-63.5 90t-24.5 127zM322 676q8 -5 16 -5t16 5l107 54q6 3 13 3q14 0 25 -10t11 -27q0 -11 -6 -20.5t-17 -12.5l-142 -39q-7 -2 -14 0l-141 39q-12 3 -18 12.5t-6 20.5q0 17 11 27t25 10q7 0 13 -3z" />
    <glyph glyph-name="Edotaccent" unicode="&#x116;" horiz-adv-x="532" 
d="M77 520q0 73 24 127t63.5 89.5t89.5 53t101 17.5q31 0 61.5 -6t59.5 -20q24 -11 24 -37q0 -17 -12 -29t-29 -12q-8 0 -17 4q-41 18 -87 18q-38 0 -73 -12t-62.5 -37t-44 -64t-16.5 -92v-43q0 -17 12 -29t29 -12h156q17 0 29 -12t12 -29t-12 -29t-29 -12h-156
q-17 0 -29 -12t-12 -29v-45q0 -54 16.5 -92.5t44 -64t62.5 -37.5t73 -12q45 0 86 18q9 4 18 4q17 0 29 -12t12 -29q0 -13 -7 -23t-18 -15q-54 -25 -120 -25q-51 0 -101 17.5t-89 53.5t-63.5 90t-24.5 127v252zM306 888q0 15 10 27t31 12t31 -12t10 -27t-10 -27t-31 -12
t-31 12t-10 27z" />
    <glyph glyph-name="edotaccent" unicode="&#x117;" horiz-adv-x="651" 
d="M313 473q-31 0 -62 -9t-55.5 -24.5t-40 -36.5t-15.5 -45q0 -21 14 -41.5t37.5 -37t55 -26.5t66.5 -10q41 0 71.5 10.5t51 27t30.5 37t10 40.5q0 16 -9 36t-28.5 37.5t-50.5 29.5t-75 12zM33 268q0 58 15.5 104t42.5 81q40 51 98.5 76.5t124.5 25.5q52 0 97 -15.5
t77.5 -42t51 -62.5t18.5 -77t-18 -77t-51 -62.5t-80 -42t-105 -15.5q-39 0 -69.5 8.5t-54 20.5t-39.5 25t-25 23q5 -45 23 -78.5t45 -55t59.5 -32t67.5 -10.5q45 0 86 18q5 2 9 3t9 1q17 0 29 -12t12 -29q0 -13 -7 -23t-18 -15q-56 -25 -120 -25q-51 0 -101 17.5t-89 53.5
t-63.5 90t-24.5 127zM300 677q0 15 10 27t31 12t31 -12t10 -27t-10 -27t-31 -12t-31 12t-10 27z" />
    <glyph glyph-name="Eogonek" unicode="&#x118;" horiz-adv-x="532" 
d="M438 56q18 18 31 18t22 -9t7 -28.5t-26 -33.5q-28 -6 -28 -29q0 -12 6 -18q7 -7 20 -7q16 0 25 14q8 14 25 14q12 0 20.5 -8.5t8.5 -20.5q0 -10 -4 -15q-27 -44 -75 -44q-38 0 -62 26q-25 25 -25 59q0 51 46 75q9 4 9 7zM77 520q0 73 24 127t63.5 89.5t89.5 53t101 17.5
q31 0 61.5 -6t59.5 -20q24 -11 24 -37q0 -17 -12 -29t-29 -12q-8 0 -17 4q-41 18 -87 18q-38 0 -73 -12t-62.5 -37t-44 -64t-16.5 -92v-43q0 -17 12 -29t29 -12h156q17 0 29 -12t12 -29t-12 -29t-29 -12h-156q-17 0 -29 -12t-12 -29v-45q0 -54 16.5 -92.5t44 -64t62.5 -37.5
t73 -12q45 0 86 18q9 4 18 4q17 0 29 -12t12 -29q0 -13 -7 -23t-18 -15q-54 -25 -120 -25q-51 0 -101 17.5t-89 53.5t-63.5 90t-24.5 127v252z" />
    <glyph glyph-name="eogonek" unicode="&#x119;" horiz-adv-x="621" 
d="M421 53q13 0 22 -9t5.5 -28t-28 -28t-24.5 -35q0 -12 7 -19.5t20.5 -7.5t23.5 16q8 14 25 14q12 0 20.5 -8.5t8.5 -20.5q0 -10 -4 -15q-27 -44 -75 -44q-38 0 -62 26q-25 25 -25 59q0 51 46 75q9 4 40 25zM340 473q-31 0 -62 -9t-55.5 -24.5t-40 -36.5t-15.5 -45
q0 -21 14 -41.5t37.5 -37t55 -26.5t66.5 -10q41 0 71.5 10.5t51 27t30.5 37t10 40.5q0 16 -9 36t-28.5 37.5t-50.5 29.5t-75 12zM60 268q0 58 15.5 104t42.5 81q40 51 98.5 76.5t124.5 25.5q52 0 97 -15.5t77.5 -42t51 -62.5t18.5 -77t-18 -77t-51 -62.5t-80 -42t-105 -15.5
q-39 0 -69.5 8.5t-54 20.5t-39.5 25t-25 23q5 -45 23 -78.5t45 -55t59.5 -32t67.5 -10.5q45 0 86 18q5 2 9 3t9 1q17 0 29 -12t12 -29q0 -13 -7 -23t-18 -15q-56 -25 -120 -25q-51 0 -101 17.5t-89 53.5t-63.5 90t-24.5 127z" />
    <glyph glyph-name="Ecaron" unicode="&#x11a;" horiz-adv-x="532" 
d="M77 520q0 73 24 127t63.5 89.5t89.5 53t101 17.5q31 0 61.5 -6t59.5 -20q24 -11 24 -37q0 -17 -12 -29t-29 -12q-8 0 -17 4q-41 18 -87 18q-38 0 -73 -12t-62.5 -37t-44 -64t-16.5 -92v-43q0 -17 12 -29t29 -12h156q17 0 29 -12t12 -29t-12 -29t-29 -12h-156
q-17 0 -29 -12t-12 -29v-45q0 -54 16.5 -92.5t44 -64t62.5 -37.5t73 -12q45 0 86 18q9 4 18 4q17 0 29 -12t12 -29q0 -13 -7 -23t-18 -15q-54 -25 -120 -25q-51 0 -101 17.5t-89 53.5t-63.5 90t-24.5 127v252zM460 946q6 3 13 3q25 0 25 -25q0 -13 -10 -20
q-28 -22 -59 -38.5t-73 -16.5t-73.5 16.5t-59.5 38.5q-9 9 -9 20q0 25 25 25q7 0 12 -3q48 -27 105 -27q62 0 104 27z" />
    <glyph glyph-name="ecaron" unicode="&#x11b;" horiz-adv-x="651" 
d="M313 473q-31 0 -62 -9t-55.5 -24.5t-40 -36.5t-15.5 -45q0 -21 14 -41.5t37.5 -37t55 -26.5t66.5 -10q41 0 71.5 10.5t51 27t30.5 37t10 40.5q0 16 -9 36t-28.5 37.5t-50.5 29.5t-75 12zM33 268q0 58 15.5 104t42.5 81q40 51 98.5 76.5t124.5 25.5q52 0 97 -15.5
t77.5 -42t51 -62.5t18.5 -77t-18 -77t-51 -62.5t-80 -42t-105 -15.5q-39 0 -69.5 8.5t-54 20.5t-39.5 25t-25 23q5 -45 23 -78.5t45 -55t59.5 -32t67.5 -10.5q45 0 86 18q5 2 9 3t9 1q17 0 29 -12t12 -29q0 -13 -7 -23t-18 -15q-56 -25 -120 -25q-51 0 -101 17.5t-89 53.5
t-63.5 90t-24.5 127zM442 724q6 3 13 3q25 0 25 -25q0 -13 -10 -20q-28 -22 -59 -38.5t-73 -16.5t-73.5 16.5t-59.5 38.5q-9 9 -9 20q0 25 25 25q7 0 12 -3q48 -27 105 -27q62 0 104 27z" />
    <glyph glyph-name="Gcircumflex" unicode="&#x11c;" horiz-adv-x="895" 
d="M544 355q-17 0 -29 12t-12 29t12 29t29 12h278q17 0 29 -12t12 -29q0 -106 -35 -184t-91.5 -129.5t-128.5 -76.5t-145 -25q-74 0 -145.5 25t-128 76.5t-91.5 129.5t-35 183t34.5 182.5t91 129t128.5 76.5t146 25q17 0 29 -12t12 -29t-12 -29t-29 -12q-60 0 -117 -20
t-102 -60.5t-72 -103t-27 -147.5q0 -86 27.5 -148.5t72 -103t101.5 -60.5t117 -20q52 0 103 15.5t93.5 47.5t73 81t42.5 115q3 17 -1 23t-10.5 8t-11.5 2h-208zM570 852q-23 14 -50 20.5t-54 6.5q-57 0 -105 -27q-5 -3 -12 -3q-25 0 -25 25q0 11 9 20q26 23 58.5 39t74.5 16
t73 -16.5t59 -38.5q10 -7 10 -20q0 -25 -25 -25q-7 0 -13 3z" />
    <glyph glyph-name="gcircumflex" unicode="&#x11d;" horiz-adv-x="709" 
d="M341 -19q-51 0 -101 17.5t-89 53.5t-63.5 90t-24.5 127t24 127t63.5 89.5t89.5 53t101 17.5q52 0 102 -17.5t89 -53t63 -89.5t24 -127v-252q0 -73 -24 -127t-63.5 -90t-89.5 -53.5t-101 -17.5q-17 0 -29 12t-12 29t12 29t29 12q37 0 72.5 12t63 37.5t44 64.5t16.5 92v40
q-40 -38 -91 -57t-105 -19zM341 63q37 0 72.5 12t63 37.5t44 64t16.5 92.5q0 53 -16.5 92t-44 64t-63 37t-72.5 12t-72.5 -12t-63 -37t-44 -64t-16.5 -92q0 -54 17 -92.5t44.5 -64t62.5 -37.5t72 -12zM449 631q-23 14 -50 20.5t-54 6.5q-57 0 -105 -27q-5 -3 -12 -3
q-25 0 -25 25q0 11 9 20q26 23 58.5 39t74.5 16t73 -16.5t59 -38.5q10 -7 10 -20q0 -25 -25 -25q-7 0 -13 3z" />
    <glyph glyph-name="Gbreve" unicode="&#x11e;" horiz-adv-x="895" 
d="M544 355q-17 0 -29 12t-12 29t12 29t29 12h278q17 0 29 -12t12 -29q0 -106 -35 -184t-91.5 -129.5t-128.5 -76.5t-145 -25q-74 0 -145.5 25t-128 76.5t-91.5 129.5t-35 183t34.5 182.5t91 129t128.5 76.5t146 25q17 0 29 -12t12 -29t-12 -29t-29 -12q-60 0 -117 -20
t-102 -60.5t-72 -103t-27 -147.5q0 -86 27.5 -148.5t72 -103t101.5 -60.5t117 -20q52 0 103 15.5t93.5 47.5t73 81t42.5 115q3 17 -1 23t-10.5 8t-11.5 2h-208zM456 903q8 -5 16 -5t16 5l107 54q6 3 13 3q14 0 25 -10t11 -27q0 -11 -6 -20.5t-17 -12.5l-142 -39q-7 -2 -14 0
l-141 39q-12 3 -18 12.5t-6 20.5q0 17 11 27t25 10q7 0 13 -3z" />
    <glyph glyph-name="gbreve" unicode="&#x11f;" horiz-adv-x="709" 
d="M341 -19q-51 0 -101 17.5t-89 53.5t-63.5 90t-24.5 127t24 127t63.5 89.5t89.5 53t101 17.5q52 0 102 -17.5t89 -53t63 -89.5t24 -127v-252q0 -73 -24 -127t-63.5 -90t-89.5 -53.5t-101 -17.5q-17 0 -29 12t-12 29t12 29t29 12q37 0 72.5 12t63 37.5t44 64.5t16.5 92v40
q-40 -38 -91 -57t-105 -19zM341 63q37 0 72.5 12t63 37.5t44 64t16.5 92.5q0 53 -16.5 92t-44 64t-63 37t-72.5 12t-72.5 -12t-63 -37t-44 -64t-16.5 -92q0 -54 17 -92.5t44.5 -64t62.5 -37.5t72 -12zM349 674q8 -5 16 -5t16 5l107 54q6 3 13 3q14 0 25 -10t11 -27
q0 -11 -6 -20.5t-17 -12.5l-142 -39q-7 -2 -14 0l-141 39q-12 3 -18 12.5t-6 20.5q0 17 11 27t25 10q7 0 13 -3z" />
    <glyph glyph-name="Gdotaccent" unicode="&#x120;" horiz-adv-x="895" 
d="M544 355q-17 0 -29 12t-12 29t12 29t29 12h278q17 0 29 -12t12 -29q0 -106 -35 -184t-91.5 -129.5t-128.5 -76.5t-145 -25q-74 0 -145.5 25t-128 76.5t-91.5 129.5t-35 183t34.5 182.5t91 129t128.5 76.5t146 25q17 0 29 -12t12 -29t-12 -29t-29 -12q-60 0 -117 -20
t-102 -60.5t-72 -103t-27 -147.5q0 -86 27.5 -148.5t72 -103t101.5 -60.5t117 -20q52 0 103 15.5t93.5 47.5t73 81t42.5 115q3 17 -1 23t-10.5 8t-11.5 2h-208zM426 888q0 15 10 27t31 12t31 -12t10 -27t-10 -27t-31 -12t-31 12t-10 27z" />
    <glyph glyph-name="gdotaccent" unicode="&#x121;" horiz-adv-x="709" 
d="M341 -19q-51 0 -101 17.5t-89 53.5t-63.5 90t-24.5 127t24 127t63.5 89.5t89.5 53t101 17.5q52 0 102 -17.5t89 -53t63 -89.5t24 -127v-252q0 -73 -24 -127t-63.5 -90t-89.5 -53.5t-101 -17.5q-17 0 -29 12t-12 29t12 29t29 12q37 0 72.5 12t63 37.5t44 64.5t16.5 92v40
q-40 -38 -91 -57t-105 -19zM341 63q37 0 72.5 12t63 37.5t44 64t16.5 92.5q0 53 -16.5 92t-44 64t-63 37t-72.5 12t-72.5 -12t-63 -37t-44 -64t-16.5 -92q0 -54 17 -92.5t44.5 -64t62.5 -37.5t72 -12zM313 677q0 15 10 27t31 12t31 -12t10 -27t-10 -27t-31 -12t-31 12
t-10 27z" />
    <glyph glyph-name="Gcommaaccent" unicode="&#x122;" horiz-adv-x="895" 
d="M544 355q-17 0 -29 12t-12 29t12 29t29 12h278q17 0 29 -12t12 -29q0 -106 -35 -184t-91.5 -129.5t-128.5 -76.5t-145 -25q-74 0 -145.5 25t-128 76.5t-91.5 129.5t-35 183t34.5 182.5t91 129t128.5 76.5t146 25q17 0 29 -12t12 -29t-12 -29t-29 -12q-60 0 -117 -20
t-102 -60.5t-72 -103t-27 -147.5q0 -86 27.5 -148.5t72 -103t101.5 -60.5t117 -20q52 0 103 15.5t93.5 47.5t73 81t42.5 115q3 17 -1 23t-10.5 8t-11.5 2h-208zM478 -243q-2 -9 -8 -14t-14 -4q-18 3 -18 22v144q0 15 12.5 24t26.5 7t24 -13t7 -25z" />
    <glyph glyph-name="gcommaaccent" unicode="&#x123;" horiz-adv-x="709" 
d="M341 -19q-51 0 -101 17.5t-89 53.5t-63.5 90t-24.5 127t24 127t63.5 89.5t89.5 53t101 17.5q52 0 102 -17.5t89 -53t63 -89.5t24 -127v-252q0 -73 -24 -127t-63.5 -90t-89.5 -53.5t-101 -17.5q-17 0 -29 12t-12 29t12 29t29 12q37 0 72.5 12t63 37.5t44 64.5t16.5 92v40
q-40 -38 -91 -57t-105 -19zM341 63q37 0 72.5 12t63 37.5t44 64t16.5 92.5q0 53 -16.5 92t-44 64t-63 37t-72.5 12t-72.5 -12t-63 -37t-44 -64t-16.5 -92q0 -54 17 -92.5t44.5 -64t62.5 -37.5t72 -12zM353 807q2 8 7.5 13t14.5 4t13 -6.5t4 -15.5v-145q0 -15 -11.5 -23.5
t-26.5 -6.5t-25 11.5t-7 24.5z" />
    <glyph glyph-name="Hcircumflex" unicode="&#x124;" horiz-adv-x="736" 
d="M564 767q0 17 12 29t29 12t29 -12t12 -29v-726q0 -17 -12 -29t-29 -12t-29 12t-12 29v294q0 8 -6 14t-15 6h-351q-8 0 -14 -6t-6 -14v-294q0 -17 -12 -29t-29 -12t-29 12t-12 29v726q0 17 12 29t29 12t29 -12t12 -29v-309q0 -8 6 -14.5t14 -6.5h351q9 0 15 6.5t6 14.5
v309zM473 852q-23 14 -50 20.5t-54 6.5q-57 0 -105 -27q-5 -3 -12 -3q-25 0 -25 25q0 11 9 20q26 23 58.5 39t74.5 16t73 -16.5t59 -38.5q10 -7 10 -20q0 -25 -25 -25q-7 0 -13 3z" />
    <glyph glyph-name="hcircumflex" unicode="&#x125;" horiz-adv-x="723" 
d="M172 531q0 -10 7 -17.5t18 -7.5q5 0 13 5q35 23 75.5 34t82.5 11q51 0 101 -17.5t89 -53t63.5 -89.5t24.5 -127v-228q0 -17 -12 -29t-29 -12t-29 12t-12 29v228q0 53 -16.5 92t-44 64t-63 37t-72.5 12q-38 0 -73 -12t-62.5 -37t-44 -64t-16.5 -92v-228q0 -17 -12 -29
t-29 -12t-29 12t-12 29v726q0 17 12 29t29 12t29 -12t12 -29v-236zM474 631q-23 14 -50 20.5t-54 6.5q-57 0 -105 -27q-5 -3 -12 -3q-25 0 -25 25q0 11 9 20q26 23 58.5 39t74.5 16t73 -16.5t59 -38.5q10 -7 10 -20q0 -25 -25 -25q-7 0 -13 3z" />
    <glyph glyph-name="Hbar" unicode="&#x126;" horiz-adv-x="736" 
d="M564 767q0 17 12 29t29 12t29 -12t12 -29v-726q0 -17 -12 -29t-29 -12t-29 12t-12 29v294q0 8 -6 14t-15 6h-351q-8 0 -14 -6t-6 -14v-294q0 -17 -12 -29t-29 -12t-29 12t-12 29v726q0 17 12 29t29 12t29 -12t12 -29v-309q0 -8 6 -14.5t14 -6.5h351q9 0 15 6.5t6 14.5
v309zM210 643q0 15 10.5 25t24.5 10h245q15 0 25 -10t10 -25q0 -14 -10 -24.5t-25 -10.5h-245q-14 0 -24.5 10.5t-10.5 24.5z" />
    <glyph glyph-name="hbar" unicode="&#x127;" horiz-adv-x="743" 
d="M172 531q0 -10 7 -17.5t18 -7.5q5 0 13 5q35 23 75.5 34t82.5 11q51 0 101 -17.5t89 -53t63.5 -89.5t24.5 -127v-228q0 -17 -12 -29t-29 -12t-29 12t-12 29v228q0 53 -16.5 92t-44 64t-63 37t-72.5 12q-38 0 -73 -12t-62.5 -37t-44 -64t-16.5 -92v-228q0 -17 -12 -29
t-29 -12t-29 12t-12 29v726q0 17 12 29t29 12t29 -12t12 -29v-236zM32 678q0 15 10.5 25t24.5 10h245q15 0 25 -10t10 -25q0 -14 -10 -24.5t-25 -10.5h-245q-14 0 -24.5 10.5t-10.5 24.5z" />
    <glyph glyph-name="Itilde" unicode="&#x128;" horiz-adv-x="262" 
d="M90 767q0 17 12 29t29 12t29 -12t12 -29v-726q0 -17 -12 -29t-29 -12t-29 12t-12 29v726zM151 860l-69 39q-11 6 -19 6q-14 0 -23 -9t-11 -23q-2 -13 -11.5 -21.5t-22.5 -8.5q-14 0 -23 9.5t-9 22.5q0 20 8.5 37.5t22.5 30t32 20t37 7.5q29 0 51 -13l69 -39q10 -6 19 -6
q14 0 23 9t11 23q2 13 11.5 21.5t22.5 8.5q14 0 23 -9.5t9 -22.5q0 -20 -8.5 -37.5t-22.5 -30t-32 -20t-37 -7.5q-29 0 -51 13zM151 860l-69 39q-11 6 -19 6q-14 0 -23 -9t-11 -23q-2 -13 -11.5 -21.5t-22.5 -8.5q-14 0 -23 9.5t-9 22.5q0 20 8.5 37.5t22.5 30t32 20t37 7.5
q29 0 51 -13l69 -39q10 -6 19 -6q14 0 23 9t11 23q2 13 11.5 21.5t22.5 8.5q14 0 23 -9.5t9 -22.5q0 -20 -8.5 -37.5t-22.5 -30t-32 -20t-37 -7.5q-29 0 -51 13z" />
    <glyph glyph-name="itilde" unicode="&#x129;" horiz-adv-x="306" 
d="M77 496q0 17 12 29t29 12t29 -12t12 -29v-268q0 -51 26.5 -97.5t69.5 -74.5q10 -6 14.5 -15.5t4.5 -19.5q0 -16 -11.5 -28.5t-28.5 -12.5q-14 0 -29.5 9.5t-30.5 24t-28 30.5t-22 30q-21 33 -34 71t-13 78v273zM135 629l-69 39q-11 6 -19 6q-14 0 -23 -9t-11 -23
q-2 -13 -11.5 -21.5t-22.5 -8.5q-14 0 -23 9.5t-9 22.5q0 20 8.5 37.5t22.5 30t32 20t37 7.5q29 0 51 -13l69 -39q10 -6 19 -6q14 0 23 9t11 23q2 13 11.5 21.5t22.5 8.5q14 0 23 -9.5t9 -22.5q0 -20 -8.5 -37.5t-22.5 -30t-32 -20t-37 -7.5q-29 0 -51 13zM135 629l-69 39
q-11 6 -19 6q-14 0 -23 -9t-11 -23q-2 -13 -11.5 -21.5t-22.5 -8.5q-14 0 -23 9.5t-9 22.5q0 20 8.5 37.5t22.5 30t32 20t37 7.5q29 0 51 -13l69 -39q10 -6 19 -6q14 0 23 9t11 23q2 13 11.5 21.5t22.5 8.5q14 0 23 -9.5t9 -22.5q0 -20 -8.5 -37.5t-22.5 -30t-32 -20
t-37 -7.5q-29 0 -51 13z" />
    <glyph glyph-name="Imacron" unicode="&#x12a;" horiz-adv-x="262" 
d="M90 767q0 17 12 29t29 12t29 -12t12 -29v-726q0 -17 -12 -29t-29 -12t-29 12t-12 29v726zM-26 885q0 15 10.5 25t24.5 10h245q15 0 25 -10t10 -25q0 -14 -10 -24.5t-25 -10.5h-245q-14 0 -24.5 10.5t-10.5 24.5z" />
    <glyph glyph-name="imacron" unicode="&#x12b;" horiz-adv-x="306" 
d="M77 496q0 17 12 29t29 12t29 -12t12 -29v-268q0 -51 26.5 -97.5t69.5 -74.5q10 -6 14.5 -15.5t4.5 -19.5q0 -16 -11.5 -28.5t-28.5 -12.5q-14 0 -29.5 9.5t-30.5 24t-28 30.5t-22 30q-21 33 -34 71t-13 78v273zM-33 677q0 15 10.5 25t24.5 10h245q15 0 25 -10t10 -25
q0 -14 -10 -24.5t-25 -10.5h-245q-14 0 -24.5 10.5t-10.5 24.5z" />
    <glyph glyph-name="Ibreve" unicode="&#x12c;" horiz-adv-x="262" 
d="M90 767q0 17 12 29t29 12t29 -12t12 -29v-726q0 -17 -12 -29t-29 -12t-29 12t-12 29v726zM112 904q8 -5 16 -5t16 5l107 54q6 3 13 3q14 0 25 -10t11 -27q0 -11 -6 -20.5t-17 -12.5l-142 -39q-7 -2 -14 0l-141 39q-12 3 -18 12.5t-6 20.5q0 17 11 27t25 10q7 0 13 -3z
" />
    <glyph glyph-name="ibreve" unicode="&#x12d;" horiz-adv-x="306" 
d="M77 496q0 17 12 29t29 12t29 -12t12 -29v-268q0 -51 26.5 -97.5t69.5 -74.5q10 -6 14.5 -15.5t4.5 -19.5q0 -16 -11.5 -28.5t-28.5 -12.5q-14 0 -29.5 9.5t-30.5 24t-28 30.5t-22 30q-21 33 -34 71t-13 78v273zM102 675q8 -5 16 -5t16 5l107 54q6 3 13 3q14 0 25 -10
t11 -27q0 -11 -6 -20.5t-17 -12.5l-142 -39q-7 -2 -14 0l-141 39q-12 3 -18 12.5t-6 20.5q0 17 11 27t25 10q7 0 13 -3z" />
    <glyph glyph-name="Iogonek" unicode="&#x12e;" horiz-adv-x="262" 
d="M110 163q0 13 9 22t22 9t22 -9t9 -22v-129q0 -26 -28 -32t-28 -29q0 -12 6 -18q7 -7 20 -7q16 0 25 14q8 14 25 14q12 0 20.5 -8.5t8.5 -20.5q0 -10 -4 -15q-27 -44 -75 -44q-38 0 -62 26q-25 25 -25 59q0 51 46 75q9 4 9 12v103zM90 767q0 17 12 29t29 12t29 -12t12 -29
v-726q0 -17 -12 -29t-29 -12t-29 12t-12 29v726z" />
    <glyph glyph-name="iogonek" unicode="&#x12f;" horiz-adv-x="306" 
d="M207 39q18 18 31 18t22 -9t9 -22v-13q0 -26 -28 -32t-28 -29q0 -12 6 -18q7 -7 20 -7q16 0 25 14q8 14 25 14q12 0 20.5 -8.5t8.5 -20.5q0 -10 -4 -15q-27 -44 -75 -44q-38 0 -62 26q-25 25 -25 59q0 51 46 75q9 4 9 12v0zM77 496q0 17 12 29t29 12t29 -12t12 -29v-268
q0 -51 26.5 -97.5t69.5 -74.5q10 -6 14.5 -15.5t4.5 -19.5q0 -16 -11.5 -28.5t-28.5 -12.5q-14 0 -29.5 9.5t-30.5 24t-28 30.5t-22 30q-21 33 -34 71t-13 78v273zM77 671q0 15 10 27.5t31 12.5t31 -12.5t10 -27.5q0 -14 -10 -26.5t-31 -12.5t-31 12.5t-10 26.5z" />
    <glyph glyph-name="Idotaccent" unicode="&#x130;" horiz-adv-x="262" 
d="M90 767q0 17 12 29t29 12t29 -12t12 -29v-726q0 -17 -12 -29t-29 -12t-29 12t-12 29v726zM90 888q0 15 10 27t31 12t31 -12t10 -27t-10 -27t-31 -12t-31 12t-10 27z" />
    <glyph glyph-name="dotlessi" unicode="&#x131;" horiz-adv-x="306" 
d="M77 496q0 17 12 29t29 12t29 -12t12 -29v-268q0 -51 26.5 -97.5t69.5 -74.5q10 -6 14.5 -15.5t4.5 -19.5q0 -16 -11.5 -28.5t-28.5 -12.5q-14 0 -29.5 9.5t-30.5 24t-28 30.5t-22 30q-21 33 -34 71t-13 78v273z" />
    <glyph glyph-name="IJ" unicode="&#x132;" horiz-adv-x="714" 
d="M90 767q0 17 12 29t29 12t29 -12t12 -29v-726q0 -17 -12 -29t-29 -12t-29 12t-12 29v726zM557 269q0 -73 -24.5 -127t-63.5 -90t-89 -53.5t-101 -17.5q-17 0 -29 12t-12 29t12 29t29 12q37 0 72 12t62.5 37.5t44.5 64.5t17 92v498q0 17 12 29t29 12t29 -12t12 -29v-498z
" />
    <glyph glyph-name="ij" unicode="&#x133;" horiz-adv-x="532" 
d="M77 496q0 17 12 29t29 12t29 -12t12 -29v-268q0 -51 26.5 -97.5t69.5 -74.5q10 -6 14.5 -15.5t4.5 -19.5q0 -16 -11.5 -28.5t-28.5 -12.5q-14 0 -29.5 9.5t-30.5 24t-28 30.5t-22 30q-21 33 -34 71t-13 78v273zM77 671q0 15 10 27.5t31 12.5t31 -12.5t10 -27.5
q0 -14 -10 -26.5t-31 -12.5t-31 12.5t-10 26.5zM373 673q0 15 9.5 27t31.5 12q21 0 31 -12t10 -27t-10 -27t-31 -12q-22 0 -31.5 12t-9.5 27zM455 18q0 -73 -24 -127t-63.5 -90t-89.5 -53.5t-101 -17.5q-17 0 -29 12t-12 29t12 29t29 12q37 0 72.5 12t63 37.5t44 64.5
t16.5 92v478q0 17 12 29t29 12t29 -12t12 -29v-478z" />
    <glyph glyph-name="Jcircumflex" unicode="&#x134;" horiz-adv-x="508" 
d="M351 269q0 -73 -24.5 -127t-63.5 -90t-89 -53.5t-101 -17.5q-17 0 -29 12t-12 29t12 29t29 12q37 0 72 12t62.5 37.5t44.5 64.5t17 92v498q0 17 12 29t29 12t29 -12t12 -29v-498zM495 870q-23 14 -50 20.5t-54 6.5q-57 0 -105 -27q-5 -3 -12 -3q-25 0 -25 25q0 11 9 20
q26 23 58.5 39t74.5 16t73 -16.5t59 -38.5q10 -7 10 -20q0 -25 -25 -25q-7 0 -13 3z" />
    <glyph glyph-name="jcircumflex" unicode="&#x135;" horiz-adv-x="319" 
d="M216 18q0 -73 -24 -127t-63.5 -90t-89.5 -53.5t-101 -17.5q-17 0 -29 12t-12 29t12 29t29 12q37 0 72.5 12t63 37.5t44 64.5t16.5 92v478q0 17 12 29t29 12t29 -12t12 -29v-478zM280 631q-23 14 -50 20.5t-54 6.5q-57 0 -105 -27q-5 -3 -12 -3q-25 0 -25 25q0 11 9 20
q26 23 58.5 39t74.5 16t73 -16.5t59 -38.5q10 -7 10 -20q0 -25 -25 -25q-7 0 -13 3z" />
    <glyph glyph-name="Kcommaaccent" unicode="&#x136;" horiz-adv-x="709" 
d="M446 539q40 -11 76.5 -33.5t64 -57t43.5 -81t16 -105.5v-221q0 -17 -12 -29t-29 -12t-29 12t-12 29v221q0 53 -16.5 92t-44 64t-63 37t-72.5 12q-38 0 -73 -12t-62.5 -37t-44 -64t-16.5 -92v-221q0 -17 -12 -29t-29 -12t-29 12t-12 29v725q0 17 12 29t29 12t29 -12
t12 -29v-242q0 -10 7 -17.5t18 -7.5q5 0 13 5q37 22 84 36q14 3 24 16l169 235q12 17 34 17q13 0 23 -7q18 -12 18 -33q0 -13 -8 -24l-121 -167q-5 -8 -5 -15q0 -19 18 -23zM367 -243q-2 -9 -8 -14t-14 -4q-18 3 -18 22v144q0 15 12.5 24t26.5 7t24 -13t7 -25z" />
    <glyph glyph-name="kcommaaccent" unicode="&#x137;" horiz-adv-x="704" 
d="M446 371q40 -11 76.5 -33.5t64 -57t43.5 -81t16 -105.5v-53q0 -17 -12 -29t-29 -12t-29 12t-12 29v53q0 53 -16.5 92t-44 64t-63 37t-72.5 12q-38 0 -73 -12t-62.5 -37t-44 -64t-16.5 -92v-53q0 -17 -12 -29t-29 -12t-29 12t-12 29v726q0 17 12 29t29 12t29 -12t12 -29
v-411q0 -10 7 -17.5t18 -7.5q5 0 13 5q37 22 84 36q14 3 24 16l105 152q12 17 34 17q18 0 29.5 -12.5t11.5 -27.5q0 -13 -8 -24l-57 -84q-5 -8 -5 -15q0 -19 18 -23zM355 -242q-2 -9 -8 -14t-14 -4q-18 3 -18 22v144q0 15 12.5 24t26.5 7t24 -13t7 -25z" />
    <glyph glyph-name="kgreenlandic" unicode="&#x138;" horiz-adv-x="704" 
d="M446 371q40 -11 76.5 -33.5t64 -57t43.5 -81t16 -105.5v-53q0 -17 -12 -29t-29 -12t-29 12t-12 29v53q0 53 -16.5 92t-44 64t-63 37t-72.5 12q-38 0 -73 -12t-62.5 -37t-44 -64t-16.5 -92v-53q0 -17 -12 -29t-29 -12t-29 12t-12 29v456q0 17 12 29t29 12t29 -12t12 -29
v-141q0 -10 7 -17.5t18 -7.5q5 0 13 5q37 22 84 36q14 3 24 16l90 132q12 17 34 17q18 0 29.5 -12.5t11.5 -27.5q0 -13 -8 -24l-42 -64q-5 -8 -5 -15q0 -19 18 -23z" />
    <glyph glyph-name="Lacute" unicode="&#x139;" horiz-adv-x="508" 
d="M77 269v498q0 17 12 29t29 12t29 -12t12 -29v-498q0 -53 17 -92t44.5 -64.5t62.5 -37.5t72 -12q17 0 29 -12t12 -29t-12 -29t-29 -12q-51 0 -101 17.5t-89 53.5t-63.5 90t-24.5 127zM249 960q6 3 13 3q13 0 23.5 -10.5t10.5 -26.5q0 -11 -6 -20t-17 -12l-139 -35
q-13 -3 -20 2.5t-7 15.5q0 13 13 19z" />
    <glyph glyph-name="lacute" unicode="&#x13a;" horiz-adv-x="428" 
d="M77 766q0 17 12 29t29 12t29 -12t12 -29v-498q0 -53 17 -92t44.5 -64.5t62.5 -37.5t72 -12q17 0 29 -12t12 -29t-12 -29t-29 -12q-51 0 -101 17.5t-89 53.5t-63.5 90t-24.5 127v498zM242 953q6 3 13 3q13 0 23.5 -10.5t10.5 -26.5q0 -11 -6 -20t-17 -12l-139 -35
q-13 -3 -20 2.5t-7 15.5q0 13 13 19z" />
    <glyph glyph-name="Lcommaaccent" unicode="&#x13b;" horiz-adv-x="508" 
d="M77 269v498q0 17 12 29t29 12t29 -12t12 -29v-498q0 -53 17 -92t44.5 -64.5t62.5 -37.5t72 -12q17 0 29 -12t12 -29t-12 -29t-29 -12q-51 0 -101 17.5t-89 53.5t-63.5 90t-24.5 127zM352 -244q-2 -9 -8 -14t-14 -4q-18 3 -18 22v144q0 15 12.5 24t26.5 7t24 -13t7 -25z
" />
    <glyph glyph-name="lcommaaccent" unicode="&#x13c;" horiz-adv-x="428" 
d="M77 766q0 17 12 29t29 12t29 -12t12 -29v-498q0 -53 17 -92t44.5 -64.5t62.5 -37.5t72 -12q17 0 29 -12t12 -29t-12 -29t-29 -12q-51 0 -101 17.5t-89 53.5t-63.5 90t-24.5 127v498zM348 -242q-2 -9 -8 -14t-14 -4q-18 3 -18 22v144q0 15 12.5 24t26.5 7t24 -13t7 -25z
" />
    <glyph glyph-name="Lcaron" unicode="&#x13d;" horiz-adv-x="508" 
d="M77 269v498q0 17 12 29t29 12t29 -12t12 -29v-498q0 -53 17 -92t44.5 -64.5t62.5 -37.5t72 -12q17 0 29 -12t12 -29t-12 -29t-29 -12q-51 0 -101 17.5t-89 53.5t-63.5 90t-24.5 127zM137 866q-2 -8 -7.5 -13t-14.5 -4t-13 6.5t-4 15.5v145q0 15 11.5 23.5t26.5 6.5
t25 -11.5t7 -24.5z" />
    <glyph glyph-name="lcaron" unicode="&#x13e;" horiz-adv-x="428" 
d="M77 766q0 17 12 29t29 12t29 -12t12 -29v-498q0 -53 17 -92t44.5 -64.5t62.5 -37.5t72 -12q17 0 29 -12t12 -29t-12 -29t-29 -12q-51 0 -101 17.5t-89 53.5t-63.5 90t-24.5 127v498zM360 627q-2 -8 -7.5 -13t-14.5 -4t-13 6.5t-4 15.5v145q0 15 11.5 23.5t26.5 6.5
t25 -11.5t7 -24.5z" />
    <glyph glyph-name="Ldot" unicode="&#x13f;" horiz-adv-x="508" 
d="M77 269v498q0 17 12 29t29 12t29 -12t12 -29v-498q0 -53 17 -92t44.5 -64.5t62.5 -37.5t72 -12q17 0 29 -12t12 -29t-12 -29t-29 -12q-51 0 -101 17.5t-89 53.5t-63.5 90t-24.5 127zM365 266q0 15 10 27t31 12t31 -12t10 -27q0 -14 -10 -26.5t-31 -12.5t-31 12t-10 27z
" />
    <glyph glyph-name="ldot" unicode="&#x140;" horiz-adv-x="429" 
d="M77 766q0 17 12 29t29 12t29 -12t12 -29v-498q0 -53 17 -92t44.5 -64.5t62.5 -37.5t72 -12q17 0 29 -12t12 -29t-12 -29t-29 -12q-51 0 -101 17.5t-89 53.5t-63.5 90t-24.5 127v498zM373 269q0 15 10 27t31 12t31 -12t10 -27q0 -14 -10 -26.5t-31 -12.5t-31 12t-10 27z
" />
    <glyph glyph-name="Lslash" unicode="&#x141;" horiz-adv-x="589" 
d="M158 444q0 4 -3 5.5t-6 -0.5l-83 -55q-9 -6 -19 -6q-14 0 -24.5 10t-10.5 25q0 18 15 29l115 78q16 10 16 29v199q0 17 12 29t29 12t29 -12t12 -29v-152q0 -6 6 -6q1 0 3 1l90 60q7 5 19 5q14 0 24.5 -9.5t10.5 -24.5q0 -19 -15 -29l-123 -83q-15 -9 -15 -29v-223
q0 -53 16.5 -92t44 -64t62.5 -37t73 -12q46 0 87 18q7 4 17 4q17 0 29 -12t12 -29q0 -19 -16 -31t-38.5 -19t-47.5 -10t-43 -3q-51 0 -101 17.5t-89 53t-63.5 89.5t-24.5 127v176z" />
    <glyph glyph-name="lslash" unicode="&#x142;" horiz-adv-x="511" 
d="M221 251q0 -44 17 -78.5t45.5 -59.5t65 -38t74.5 -13q5 0 9.5 0.5t9.5 0.5q22 0 33.5 -12t11.5 -29q0 -15 -5.5 -23t-14.5 -12.5t-20.5 -5.5t-22.5 -1q-52 0 -103 18.5t-91.5 53t-65.5 84.5t-25 112v225l-72 -48q-9 -6 -20 -6q-14 0 -24.5 9t-10.5 25q0 20 16 30l111 74
v209q0 17 12 29t29 12t29 -12t12 -29v-153l76 51q9 6 19 6q14 0 24.5 -10.5t10.5 -24.5q0 -19 -15 -29l-115 -78v-277z" />
    <glyph glyph-name="Nacute" unicode="&#x143;" 
d="M159 41q0 -17 -12 -29t-29 -12t-29 12t-12 29v479q0 73 24.5 127t63.5 90t89 53.5t101 17.5t101 -17.5t89.5 -53t63.5 -89.5t24 -127v-480q0 -17 -12 -29t-29 -12t-29 12t-12 29v478q0 54 -16.5 93t-44 64.5t-63 37.5t-72.5 12q-38 0 -73 -12t-62.5 -37t-44 -64
t-16.5 -92v-480zM480 953q6 3 13 3q13 0 23.5 -10.5t10.5 -26.5q0 -11 -6 -20t-17 -12l-139 -35q-13 -3 -20 2.5t-7 15.5q0 13 13 19z" />
    <glyph glyph-name="nacute" unicode="&#x144;" horiz-adv-x="723" 
d="M633 41q0 -17 -12 -29t-29 -12t-28.5 12t-11.5 29v227q0 53 -17 92t-44.5 64.5t-63 37.5t-72.5 12t-72 -12t-62.5 -37.5t-44.5 -64.5t-17 -92v-227q0 -17 -12 -29t-29 -12t-29 12t-12 29v227q0 73 24.5 127t63.5 90t89 53.5t101 17.5t101 -17.5t89.5 -53.5t63.5 -90
t24 -127v-227zM528 727q6 3 13 3q13 0 23.5 -10.5t10.5 -26.5q0 -11 -6 -20t-17 -12l-139 -35q-13 -3 -20 2.5t-7 15.5q0 13 13 19z" />
    <glyph glyph-name="Ncommaaccent" unicode="&#x145;" 
d="M159 41q0 -17 -12 -29t-29 -12t-29 12t-12 29v479q0 73 24.5 127t63.5 90t89 53.5t101 17.5t101 -17.5t89.5 -53t63.5 -89.5t24 -127v-480q0 -17 -12 -29t-29 -12t-29 12t-12 29v478q0 54 -16.5 93t-44 64.5t-63 37.5t-72.5 12q-38 0 -73 -12t-62.5 -37t-44 -64
t-16.5 -92v-480zM358 -242q-2 -9 -8 -14t-14 -4q-18 3 -18 22v144q0 15 12.5 24t26.5 7t24 -13t7 -25z" />
    <glyph glyph-name="ncommaaccent" unicode="&#x146;" horiz-adv-x="723" 
d="M633 41q0 -17 -12 -29t-29 -12t-28.5 12t-11.5 29v227q0 53 -17 92t-44.5 64.5t-63 37.5t-72.5 12t-72 -12t-62.5 -37.5t-44.5 -64.5t-17 -92v-227q0 -17 -12 -29t-29 -12t-29 12t-12 29v227q0 73 24.5 127t63.5 90t89 53.5t101 17.5t101 -17.5t89.5 -53.5t63.5 -90
t24 -127v-227zM404 -243q-2 -9 -8 -14t-14 -4q-18 3 -18 22v144q0 15 12.5 24t26.5 7t24 -13t7 -25z" />
    <glyph glyph-name="Ncaron" unicode="&#x147;" 
d="M159 41q0 -17 -12 -29t-29 -12t-29 12t-12 29v479q0 73 24.5 127t63.5 90t89 53.5t101 17.5t101 -17.5t89.5 -53t63.5 -89.5t24 -127v-480q0 -17 -12 -29t-29 -12t-29 12t-12 29v478q0 54 -16.5 93t-44 64.5t-63 37.5t-72.5 12q-38 0 -73 -12t-62.5 -37t-44 -64
t-16.5 -92v-480zM459 946q6 3 13 3q25 0 25 -25q0 -13 -10 -20q-28 -22 -59 -38.5t-73 -16.5t-73.5 16.5t-59.5 38.5q-9 9 -9 20q0 25 25 25q7 0 12 -3q48 -27 105 -27q62 0 104 27z" />
    <glyph glyph-name="ncaron" unicode="&#x148;" horiz-adv-x="723" 
d="M633 41q0 -17 -12 -29t-29 -12t-28.5 12t-11.5 29v227q0 53 -17 92t-44.5 64.5t-63 37.5t-72.5 12t-72 -12t-62.5 -37.5t-44.5 -64.5t-17 -92v-227q0 -17 -12 -29t-29 -12t-29 12t-12 29v227q0 73 24.5 127t63.5 90t89 53.5t101 17.5t101 -17.5t89.5 -53.5t63.5 -90
t24 -127v-227zM471 724q6 3 13 3q25 0 25 -25q0 -13 -10 -20q-28 -22 -59 -38.5t-73 -16.5t-73.5 16.5t-59.5 38.5q-9 9 -9 20q0 25 25 25q7 0 12 -3q48 -27 105 -27q62 0 104 27z" />
    <glyph glyph-name="napostrophe" unicode="&#x149;" horiz-adv-x="724" 
d="M633 41q0 -17 -12 -29t-29 -12t-28.5 12t-11.5 29v227q0 53 -17 92t-44.5 64.5t-63 37.5t-72.5 12t-72 -12t-62.5 -37.5t-44.5 -64.5t-17 -92v-227q0 -17 -12 -29t-29 -12t-29 12t-12 29v227q0 73 24.5 127t63.5 90t89 53.5t101 17.5t101 -17.5t89.5 -53.5t63.5 -90
t24 -127v-227zM614 597q-2 -9 -8 -14t-14 -4q-18 3 -18 22v144q0 15 12.5 24t26.5 7t24 -13t7 -25z" />
    <glyph glyph-name="Eng" unicode="&#x14a;" horiz-adv-x="723" 
d="M159 41q0 -17 -12 -29t-29 -12t-29 12t-12 29v480q0 73 24.5 127t63.5 89.5t89 53t101 17.5q49 0 97.5 -16.5t87.5 -49.5t64 -83.5t28 -117.5q1 -1 1 -6v-538q0 -62 -25 -111.5t-65.5 -84.5t-92 -53.5t-103.5 -18.5q-11 0 -22 1t-20 5.5t-14.5 13t-5.5 22.5q0 17 11.5 29
t33.5 12q58 -1 93.5 12t64 38t46 59.5t17.5 78.5v520q0 54 -16.5 92.5t-44 64t-63 37.5t-72.5 12q-38 0 -73 -12t-62.5 -37t-44 -64t-16.5 -92v-480z" />
    <glyph glyph-name="eng" unicode="&#x14b;" horiz-adv-x="716" 
d="M167 514q8 -14 22 -14q7 0 15 5q73 50 164 50q51 0 101 -17.5t89.5 -53t63.5 -89.5t24 -127v-271q0 -62 -25 -111.5t-65.5 -84.5t-92 -53.5t-103.5 -18.5q-11 0 -22 1t-20 5.5t-14.5 13t-5.5 22.5q0 17 11.5 29t33.5 12q58 -1 93.5 12t64 38t46 59.5t17.5 78.5v267
q0 54 -16.5 92.5t-44 64t-63 37.5t-72.5 12q-36 0 -71.5 -12t-63 -37t-44.5 -63.5t-17 -91.5v-229q0 -17 -12 -29t-29 -12t-29 12t-12 29v455q0 17 12 29t29 12q26 0 36 -22z" />
    <glyph glyph-name="Omacron" unicode="&#x14c;" horiz-adv-x="919" 
d="M142 393q0 -85 27.5 -147.5t72 -103t101.5 -60.5t117 -20q59 0 116 20t101.5 60.5t72 103t27.5 147.5t-27 148t-71.5 103.5t-101.5 60.5t-117 20t-117 -20t-102 -60.5t-72 -103.5t-27 -148zM460 -20q-74 0 -145.5 25t-128 76.5t-91.5 129t-35 182.5t34.5 183t91 129.5
t128.5 76.5t146 25t145.5 -25t128 -76.5t91 -129.5t34.5 -183t-35 -182.5t-91 -129t-128 -76.5t-145 -25zM302 885q0 15 10.5 25t24.5 10h245q15 0 25 -10t10 -25q0 -14 -10 -24.5t-25 -10.5h-245q-14 0 -24.5 10.5t-10.5 24.5z" />
    <glyph glyph-name="omacron" unicode="&#x14d;" horiz-adv-x="676" 
d="M338 -20q-51 0 -101 17.5t-89 53.5t-63.5 90t-24.5 127t24 127t63.5 89.5t89.5 53t101 17.5q52 0 102 -17.5t89 -53t63 -89.5t24 -127t-24 -127t-63.5 -90t-89.5 -53.5t-101 -17.5zM338 62q37 0 72.5 12t63 37.5t44 64.5t16.5 92t-16.5 92t-44 64t-63 37t-72.5 12
t-72.5 -12t-63 -37t-44 -64t-16.5 -92t17 -92t44.5 -64.5t62.5 -37.5t72 -12zM184 676q0 15 10.5 25t24.5 10h245q15 0 25 -10t10 -25q0 -14 -10 -24.5t-25 -10.5h-245q-14 0 -24.5 10.5t-10.5 24.5z" />
    <glyph glyph-name="Obreve" unicode="&#x14e;" horiz-adv-x="919" 
d="M142 393q0 -85 27.5 -147.5t72 -103t101.5 -60.5t117 -20q59 0 116 20t101.5 60.5t72 103t27.5 147.5t-27 148t-71.5 103.5t-101.5 60.5t-117 20t-117 -20t-102 -60.5t-72 -103.5t-27 -148zM460 -20q-74 0 -145.5 25t-128 76.5t-91.5 129t-35 182.5t34.5 183t91 129.5
t128.5 76.5t146 25t145.5 -25t128 -76.5t91 -129.5t34.5 -183t-35 -182.5t-91 -129t-128 -76.5t-145 -25zM453 903q8 -5 16 -5t16 5l107 54q6 3 13 3q14 0 25 -10t11 -27q0 -11 -6 -20.5t-17 -12.5l-142 -39q-7 -2 -14 0l-141 39q-12 3 -18 12.5t-6 20.5q0 17 11 27t25 10
q7 0 13 -3z" />
    <glyph glyph-name="obreve" unicode="&#x14f;" horiz-adv-x="676" 
d="M338 -20q-51 0 -101 17.5t-89 53.5t-63.5 90t-24.5 127t24 127t63.5 89.5t89.5 53t101 17.5q52 0 102 -17.5t89 -53t63 -89.5t24 -127t-24 -127t-63.5 -90t-89.5 -53.5t-101 -17.5zM338 62q37 0 72.5 12t63 37.5t44 64.5t16.5 92t-16.5 92t-44 64t-63 37t-72.5 12
t-72.5 -12t-63 -37t-44 -64t-16.5 -92t17 -92t44.5 -64.5t62.5 -37.5t72 -12zM318 675q8 -5 16 -5t16 5l107 54q6 3 13 3q14 0 25 -10t11 -27q0 -11 -6 -20.5t-17 -12.5l-142 -39q-7 -2 -14 0l-141 39q-12 3 -18 12.5t-6 20.5q0 17 11 27t25 10q7 0 13 -3z" />
    <glyph glyph-name="Ohungarumlaut" unicode="&#x150;" horiz-adv-x="919" 
d="M142 393q0 -85 27.5 -147.5t72 -103t101.5 -60.5t117 -20q59 0 116 20t101.5 60.5t72 103t27.5 147.5t-27 148t-71.5 103.5t-101.5 60.5t-117 20t-117 -20t-102 -60.5t-72 -103.5t-27 -148zM460 -20q-74 0 -145.5 25t-128 76.5t-91.5 129t-35 182.5t34.5 183t91 129.5
t128.5 76.5t146 25t145.5 -25t128 -76.5t91 -129.5t34.5 -183t-35 -182.5t-91 -129t-128 -76.5t-145 -25zM407 993q10 28 43 28q18 0 28 -8.5t-3 -30.5l-81 -123q-6 -9 -14 -9q-4 0 -8 2.5t-4 9.5q0 8 8.5 35.5t30.5 95.5zM542 993q10 28 43 28q18 0 28 -8.5t-3 -30.5
l-81 -123q-6 -9 -14 -9q-4 0 -8 2.5t-4 9.5q0 8 8.5 35.5t30.5 95.5z" />
    <glyph glyph-name="ohungarumlaut" unicode="&#x151;" horiz-adv-x="676" 
d="M338 -20q-51 0 -101 17.5t-89 53.5t-63.5 90t-24.5 127t24 127t63.5 89.5t89.5 53t101 17.5q52 0 102 -17.5t89 -53t63 -89.5t24 -127t-24 -127t-63.5 -90t-89.5 -53.5t-101 -17.5zM338 62q37 0 72.5 12t63 37.5t44 64.5t16.5 92t-16.5 92t-44 64t-63 37t-72.5 12
t-72.5 -12t-63 -37t-44 -64t-16.5 -92t17 -92t44.5 -64.5t62.5 -37.5t72 -12zM281 734q10 28 43 28q18 0 28 -8.5t-3 -30.5l-81 -123q-6 -9 -14 -9q-4 0 -8 2.5t-4 9.5q0 8 8.5 35.5t30.5 95.5zM416 734q10 28 43 28q18 0 28 -8.5t-3 -30.5l-81 -123q-6 -9 -14 -9
q-4 0 -8 2.5t-4 9.5q0 8 8.5 35.5t30.5 95.5z" />
    <glyph glyph-name="OE" unicode="&#x152;" horiz-adv-x="1013" 
d="M545 520q0 47 10.5 85t27.5 70q3 4 3 11q0 16 -17 23q-26 9 -52.5 12.5t-53.5 3.5q-60 0 -117 -20t-102 -60.5t-72 -103t-27 -147.5q0 -86 27.5 -148.5t72 -103t101.5 -60.5t117 -20q27 0 53.5 3.5t52.5 12.5q17 7 17 24q0 5 -3 10q-18 32 -28 70.5t-10 85.5v252z
M668 354q-17 0 -29 -12t-12 -29v-45q0 -54 16.5 -92.5t44 -64t63 -37.5t72.5 -12q22 0 44 5t42 13q10 4 17 4q17 0 29 -12t12 -29q0 -13 -6.5 -23t-17.5 -15q-29 -14 -59.5 -19.5t-60.5 -5.5q-39 0 -77.5 10t-72.5 30q-8 5 -15 5q-5 0 -11 -3q-44 -20 -90 -31t-94 -11
q-74 0 -145.5 25t-128 76.5t-91.5 129.5t-35 183t35 182.5t91.5 129t128 76.5t145.5 25q48 0 94 -11t90 -31q6 -3 11 -3q7 0 15 5q34 21 72.5 30.5t77.5 9.5q63 0 121 -26q23 -10 23 -37q0 -17 -12 -29t-29 -12q-7 0 -17 4q-20 8 -41.5 13t-44.5 5q-38 0 -73 -12t-62.5 -37
t-44 -64t-16.5 -92v-43q0 -17 12 -29t29 -12h155q17 0 29 -12t12 -29t-12 -29t-29 -12h-155z" />
    <glyph glyph-name="oe" unicode="&#x153;" horiz-adv-x="973" 
d="M341 474q-38 0 -73 -12t-62.5 -37.5t-44 -64t-16.5 -92.5q0 -53 16.5 -92t44 -64t62.5 -37t73 -12q36 0 71 12.5t63 37t45 61t17 84.5v20q0 51 -17 88t-45 61t-63 35.5t-71 11.5zM63 268q0 73 24 127t63.5 90t89.5 53.5t101 17.5q63 0 120.5 -25.5t99.5 -77.5
q25 48 70.5 76.5t106.5 28.5q38 0 72.5 -13.5t60.5 -38t41 -58t15 -72.5q0 -41 -15.5 -72t-42 -52t-60.5 -31.5t-71 -10.5h-100q-5 0 -9 -3t-2 -10q10 -32 29.5 -57t46 -42t56.5 -26.5t61 -9.5q5 0 10 0.5t10 0.5q20 0 32 -12t12 -29q0 -14 -6 -22.5t-15 -13t-20 -5.5
t-21 -1q-72 0 -138 33t-106 96q-20 -33 -46.5 -57t-57.5 -39.5t-65 -23.5t-68 -8q-51 0 -101 17.5t-89 53t-63.5 89.5t-24.5 127zM734 477q-35 0 -56 -13t-32 -30t-15 -33t-4 -23v-62q0 -11 7 -18t17 -7h97q5 0 20.5 2.5t32.5 11.5t30 26.5t13 46.5t-11.5 48t-28.5 30.5
t-36 16t-34 4.5z" />
    <glyph glyph-name="Racute" unicode="&#x154;" horiz-adv-x="709" 
d="M192 715q-8 0 -14 -6t-6 -14v-185q0 -53 16.5 -92t44 -64.5t62.5 -37.5t73 -12q37 0 72.5 12t63 37.5t44 64.5t16.5 92t-16.5 92t-44 64t-63 37t-72.5 12h-176zM453 223q13 -60 58 -98t102 -54q15 -2 24 -14.5t9 -25.5q0 -17 -12.5 -29t-27.5 -12q-14 0 -30.5 4.5t-33 12
t-31.5 16.5t-27 18q-38 28 -66.5 67t-41.5 85q-7 28 -38 31q-32 3 -60 12.5t-60 26.5q-12 6 -22 6q-24 0 -24 -28v-200q0 -17 -12 -29t-29 -12t-29 12t-12 29v715q0 17 12 29t29 12h237q63 0 114 -21.5t87.5 -60t56.5 -91t20 -114.5q0 -47 -11.5 -90t-35 -78.5t-58 -62
t-79.5 -41.5q-11 -3 -9 -15zM462 954q6 3 13 3q13 0 23.5 -10.5t10.5 -26.5q0 -11 -6 -20t-17 -12l-139 -35q-13 -3 -20 2.5t-7 15.5q0 13 13 19z" />
    <glyph glyph-name="racute" unicode="&#x155;" horiz-adv-x="524" 
d="M159 41q0 -17 -12 -29t-29 -12t-29 12t-12 29v228q0 73 24 127t63.5 89.5t89.5 53t101 17.5q66 0 122 -25q10 -5 16.5 -15t6.5 -22q0 -17 -12 -29t-29 -12q-10 0 -17 3q-41 18 -87 18q-38 0 -73 -12t-62.5 -37t-44 -64t-16.5 -92v-228zM457 727q6 3 13 3q13 0 23.5 -10.5
t10.5 -26.5q0 -11 -6 -20t-17 -12l-139 -35q-13 -3 -20 2.5t-7 15.5q0 13 13 19z" />
    <glyph glyph-name="Rcommaaccent" unicode="&#x156;" horiz-adv-x="709" 
d="M192 715q-8 0 -14 -6t-6 -14v-185q0 -53 16.5 -92t44 -64.5t62.5 -37.5t73 -12q37 0 72.5 12t63 37.5t44 64.5t16.5 92t-16.5 92t-44 64t-63 37t-72.5 12h-176zM453 223q13 -60 58 -98t102 -54q15 -2 24 -14.5t9 -25.5q0 -17 -12.5 -29t-27.5 -12q-14 0 -30.5 4.5t-33 12
t-31.5 16.5t-27 18q-38 28 -66.5 67t-41.5 85q-7 28 -38 31q-32 3 -60 12.5t-60 26.5q-12 6 -22 6q-24 0 -24 -28v-200q0 -17 -12 -29t-29 -12t-29 12t-12 29v715q0 17 12 29t29 12h237q63 0 114 -21.5t87.5 -60t56.5 -91t20 -114.5q0 -47 -11.5 -90t-35 -78.5t-58 -62
t-79.5 -41.5q-11 -3 -9 -15zM289 -242q-2 -9 -8 -14t-14 -4q-18 3 -18 22v144q0 15 12.5 24t26.5 7t24 -13t7 -25z" />
    <glyph glyph-name="rcommaaccent" unicode="&#x157;" horiz-adv-x="524" 
d="M159 41q0 -17 -12 -29t-29 -12t-29 12t-12 29v228q0 73 24 127t63.5 89.5t89.5 53t101 17.5q66 0 122 -25q10 -5 16.5 -15t6.5 -22q0 -17 -12 -29t-29 -12q-10 0 -17 3q-41 18 -87 18q-38 0 -73 -12t-62.5 -37t-44 -64t-16.5 -92v-228zM360 -242q-2 -9 -8 -14t-14 -4
q-18 3 -18 22v144q0 15 12.5 24t26.5 7t24 -13t7 -25z" />
    <glyph glyph-name="Rcaron" unicode="&#x158;" horiz-adv-x="709" 
d="M192 715q-8 0 -14 -6t-6 -14v-185q0 -53 16.5 -92t44 -64.5t62.5 -37.5t73 -12q37 0 72.5 12t63 37.5t44 64.5t16.5 92t-16.5 92t-44 64t-63 37t-72.5 12h-176zM453 223q13 -60 58 -98t102 -54q15 -2 24 -14.5t9 -25.5q0 -17 -12.5 -29t-27.5 -12q-14 0 -30.5 4.5t-33 12
t-31.5 16.5t-27 18q-38 28 -66.5 67t-41.5 85q-7 28 -38 31q-32 3 -60 12.5t-60 26.5q-12 6 -22 6q-24 0 -24 -28v-200q0 -17 -12 -29t-29 -12t-29 12t-12 29v715q0 17 12 29t29 12h237q63 0 114 -21.5t87.5 -60t56.5 -91t20 -114.5q0 -47 -11.5 -90t-35 -78.5t-58 -62
t-79.5 -41.5q-11 -3 -9 -15zM433 946q6 3 13 3q25 0 25 -25q0 -13 -10 -20q-28 -22 -59 -38.5t-73 -16.5t-73.5 16.5t-59.5 38.5q-9 9 -9 20q0 25 25 25q7 0 12 -3q48 -27 105 -27q62 0 104 27z" />
    <glyph glyph-name="rcaron" unicode="&#x159;" horiz-adv-x="524" 
d="M159 41q0 -17 -12 -29t-29 -12t-29 12t-12 29v228q0 73 24 127t63.5 89.5t89.5 53t101 17.5q66 0 122 -25q10 -5 16.5 -15t6.5 -22q0 -17 -12 -29t-29 -12q-10 0 -17 3q-41 18 -87 18q-38 0 -73 -12t-62.5 -37t-44 -64t-16.5 -92v-228zM458 724q6 3 13 3q25 0 25 -25
q0 -13 -10 -20q-28 -22 -59 -38.5t-73 -16.5t-73.5 16.5t-59.5 38.5q-9 9 -9 20q0 25 25 25q7 0 12 -3q48 -27 105 -27q62 0 104 27z" />
    <glyph glyph-name="Sacute" unicode="&#x15a;" horiz-adv-x="633" 
d="M374 681q-11 20 -30.5 32.5t-44.5 12.5q-35 0 -60 -25t-25 -60t25 -60t60 -25q60 0 112.5 -22.5t91.5 -61.5t61.5 -91.5t22.5 -112.5q0 -59 -22.5 -111.5t-61.5 -91.5t-91.5 -61.5t-112.5 -22.5q-44 0 -84.5 12.5t-75 35.5t-61.5 55t-43 71q-3 7 -3 16q0 17 12 29t29 12
q13 0 23 -7t15 -18q23 -55 74 -89.5t114 -34.5q43 0 80.5 16t65.5 44t44 65.5t16 79.5q0 43 -16 80.5t-44 65.5t-65.5 44t-80.5 16q-35 0 -65 13t-53 36t-36 53t-13 65q0 34 13 64.5t36 53.5t53 36t65 13q48 0 86.5 -24t60.5 -63q5 -12 5 -20q0 -17 -12 -29t-29 -12
q-12 0 -21.5 6t-14.5 15zM426 953q6 3 13 3q13 0 23.5 -10.5t10.5 -26.5q0 -11 -6 -20t-17 -12l-139 -35q-13 -3 -20 2.5t-7 15.5q0 13 13 19z" />
    <glyph glyph-name="sacute" unicode="&#x15b;" horiz-adv-x="575" 
d="M454 508q26 -18 26 -38t-11.5 -30.5t-28.5 -10.5q-16 0 -30 9q-58 38 -113 38q-126 0 -126 -71q0 -65 132 -65q209 0 209 -167q0 -193 -221 -193q-170 0 -240 135q-5 13 -5 21q0 17 11.5 28.5t29.5 11.5q20 0 31 -15t22 -28q63 -74 152 -74q138 0 138 109q0 92 -136 92
q-206 0 -206 145q0 151 210 150q88 -1 156 -47zM414 727q6 3 13 3q13 0 23.5 -10.5t10.5 -26.5q0 -11 -6 -20t-17 -12l-139 -35q-13 -3 -20 2.5t-7 15.5q0 13 13 19z" />
    <glyph glyph-name="Scircumflex" unicode="&#x15c;" horiz-adv-x="633" 
d="M374 681q-11 20 -30.5 32.5t-44.5 12.5q-35 0 -60 -25t-25 -60t25 -60t60 -25q60 0 112.5 -22.5t91.5 -61.5t61.5 -91.5t22.5 -112.5q0 -59 -22.5 -111.5t-61.5 -91.5t-91.5 -61.5t-112.5 -22.5q-44 0 -84.5 12.5t-75 35.5t-61.5 55t-43 71q-3 7 -3 16q0 17 12 29t29 12
q13 0 23 -7t15 -18q23 -55 74 -89.5t114 -34.5q43 0 80.5 16t65.5 44t44 65.5t16 79.5q0 43 -16 80.5t-44 65.5t-65.5 44t-80.5 16q-35 0 -65 13t-53 36t-36 53t-13 65q0 34 13 64.5t36 53.5t53 36t65 13q48 0 86.5 -24t60.5 -63q5 -12 5 -20q0 -17 -12 -29t-29 -12
q-12 0 -21.5 6t-14.5 15zM402 852q-23 14 -50 20.5t-54 6.5q-57 0 -105 -27q-5 -3 -12 -3q-25 0 -25 25q0 11 9 20q26 23 58.5 39t74.5 16t73 -16.5t59 -38.5q10 -7 10 -20q0 -25 -25 -25q-7 0 -13 3z" />
    <glyph glyph-name="scircumflex" unicode="&#x15d;" horiz-adv-x="575" 
d="M454 508q26 -18 26 -38t-11.5 -30.5t-28.5 -10.5q-16 0 -30 9q-58 38 -113 38q-126 0 -126 -71q0 -65 132 -65q209 0 209 -167q0 -193 -221 -193q-170 0 -240 135q-5 13 -5 21q0 17 11.5 28.5t29.5 11.5q20 0 31 -15t22 -28q63 -74 152 -74q138 0 138 109q0 92 -136 92
q-206 0 -206 145q0 151 210 150q88 -1 156 -47zM389 633q-23 14 -50 20.5t-54 6.5q-57 0 -105 -27q-5 -3 -12 -3q-25 0 -25 25q0 11 9 20q26 23 58.5 39t74.5 16t73 -16.5t59 -38.5q10 -7 10 -20q0 -25 -25 -25q-7 0 -13 3z" />
    <glyph glyph-name="Scedilla" unicode="&#x15e;" horiz-adv-x="633" 
d="M374 681q-11 20 -30.5 32.5t-44.5 12.5q-35 0 -60 -25t-25 -60t25 -60t60 -25q60 0 112.5 -22.5t91.5 -61.5t61.5 -91.5t22.5 -112.5q0 -59 -22.5 -111.5t-61.5 -91.5t-91.5 -61.5t-112.5 -22.5q-44 0 -84.5 12.5t-75 35.5t-61.5 55t-43 71q-3 7 -3 16q0 17 12 29t29 12
q13 0 23 -7t15 -18q23 -55 74 -89.5t114 -34.5q43 0 80.5 16t65.5 44t44 65.5t16 79.5q0 43 -16 80.5t-44 65.5t-65.5 44t-80.5 16q-35 0 -65 13t-53 36t-36 53t-13 65q0 34 13 64.5t36 53.5t53 36t65 13q48 0 86.5 -24t60.5 -63q5 -12 5 -20q0 -17 -12 -29t-29 -12
q-12 0 -21.5 6t-14.5 15zM325 -99q0 -8 9 -12q46 -24 46 -75q0 -17 -6.5 -32t-18 -27t-27.5 -19t-35 -7q-11 0 -24.5 4t-25.5 11.5t-20.5 18.5t-8.5 25q0 12 8.5 20.5t20.5 8.5q9 0 14.5 -4.5t10.5 -11t10.5 -9.5t14.5 -3q24 2 27 25q0 13 -9 18.5t-19.5 10t-19.5 11
t-9 21.5v130q0 13 9 22t22 9t22 -9t9 -22v-104z" />
    <glyph glyph-name="scedilla" unicode="&#x15f;" horiz-adv-x="575" 
d="M454 508q26 -18 26 -38t-11.5 -30.5t-28.5 -10.5q-16 0 -30 9q-58 38 -113 38q-126 0 -126 -71q0 -65 132 -65q209 0 209 -167q0 -193 -221 -193q-170 0 -240 135q-5 13 -5 21q0 17 11.5 28.5t29.5 11.5q20 0 31 -15t22 -28q63 -74 152 -74q138 0 138 109q0 92 -136 92
q-206 0 -206 145q0 151 210 150q88 -1 156 -47zM327 -99q0 -8 9 -12q46 -24 46 -75q0 -17 -6.5 -32t-18 -27t-27.5 -19t-35 -7q-11 0 -24.5 4t-25.5 11.5t-20.5 18.5t-8.5 25q0 12 8.5 20.5t20.5 8.5q9 0 14.5 -4.5t10.5 -11t10.5 -9.5t14.5 -3q24 2 27 25q0 13 -9 18.5
t-19.5 10t-19.5 11t-9 21.5v130q0 13 9 22t22 9t22 -9t9 -22v-104z" />
    <glyph glyph-name="Scaron" unicode="&#x160;" horiz-adv-x="633" 
d="M374 681q-11 20 -30.5 32.5t-44.5 12.5q-35 0 -60 -25t-25 -60t25 -60t60 -25q60 0 112.5 -22.5t91.5 -61.5t61.5 -91.5t22.5 -112.5q0 -59 -22.5 -111.5t-61.5 -91.5t-91.5 -61.5t-112.5 -22.5q-44 0 -84.5 12.5t-75 35.5t-61.5 55t-43 71q-3 7 -3 16q0 17 12 29t29 12
q13 0 23 -7t15 -18q23 -55 74 -89.5t114 -34.5q43 0 80.5 16t65.5 44t44 65.5t16 79.5q0 43 -16 80.5t-44 65.5t-65.5 44t-80.5 16q-35 0 -65 13t-53 36t-36 53t-13 65q0 34 13 64.5t36 53.5t53 36t65 13q48 0 86.5 -24t60.5 -63q5 -12 5 -20q0 -17 -12 -29t-29 -12
q-12 0 -21.5 6t-14.5 15zM401 946q6 3 13 3q25 0 25 -25q0 -13 -10 -20q-28 -22 -59 -38.5t-73 -16.5t-73.5 16.5t-59.5 38.5q-9 9 -9 20q0 25 25 25q7 0 12 -3q48 -27 105 -27q62 0 104 27z" />
    <glyph glyph-name="scaron" unicode="&#x161;" horiz-adv-x="575" 
d="M454 508q26 -18 26 -38t-11.5 -30.5t-28.5 -10.5q-16 0 -30 9q-58 38 -113 38q-126 0 -126 -71q0 -65 132 -65q209 0 209 -167q0 -193 -221 -193q-170 0 -240 135q-5 13 -5 21q0 17 11.5 28.5t29.5 11.5q20 0 31 -15t22 -28q63 -74 152 -74q138 0 138 109q0 92 -136 92
q-206 0 -206 145q0 151 210 150q88 -1 156 -47zM389 724q6 3 13 3q25 0 25 -25q0 -13 -10 -20q-28 -22 -59 -38.5t-73 -16.5t-73.5 16.5t-59.5 38.5q-9 9 -9 20q0 25 25 25q7 0 12 -3q48 -27 105 -27q62 0 104 27z" />
    <glyph glyph-name="Tcommaaccent" unicode="&#x162;" horiz-adv-x="508" 
d="M295 41q0 -17 -12 -29t-29 -12t-29 12t-12 29v639q0 14 -10.5 24.5t-24.5 10.5h-129q-17 0 -29 12t-12 29t12 29t29 12h410q17 0 29 -12t12 -29t-12 -29t-29 -12h-129q-14 0 -24.5 -10.5t-10.5 -24.5v-639zM263 -242q-2 -9 -8 -14t-14 -4q-18 3 -18 22v144q0 15 12.5 24
t26.5 7t24 -13t7 -25z" />
    <glyph glyph-name="tcommaaccent" unicode="&#x163;" horiz-adv-x="463" 
d="M194 268q0 -53 16.5 -92t44 -64.5t63 -37.5t72.5 -12q17 0 29 -12t12 -29t-12 -29t-29 -12q-51 0 -101 17.5t-89 53.5t-63.5 90t-24.5 127v163q0 15 -10.5 25t-24.5 10h-34q-14 0 -24.5 10.5t-10.5 24.5q0 15 10.5 25t24.5 10h34q14 0 24.5 10.5t10.5 24.5v196
q0 17 12 29t29 12t29 -12t12 -29v-196q0 -14 10.5 -24.5t24.5 -10.5h123q14 0 24.5 -10t10.5 -25q0 -14 -10.5 -24.5t-24.5 -10.5h-123q-14 0 -24.5 -10t-10.5 -25v-163zM357 -242q-2 -9 -8 -14t-14 -4q-18 3 -18 22v144q0 15 12.5 24t26.5 7t24 -13t7 -25z" />
    <glyph glyph-name="Tcaron" unicode="&#x164;" horiz-adv-x="508" 
d="M295 41q0 -17 -12 -29t-29 -12t-29 12t-12 29v639q0 14 -10.5 24.5t-24.5 10.5h-129q-17 0 -29 12t-12 29t12 29t29 12h410q17 0 29 -12t12 -29t-12 -29t-29 -12h-129q-14 0 -24.5 -10.5t-10.5 -24.5v-639zM359 946q6 3 13 3q25 0 25 -25q0 -13 -10 -20
q-28 -22 -59 -38.5t-73 -16.5t-73.5 16.5t-59.5 38.5q-9 9 -9 20q0 25 25 25q7 0 12 -3q48 -27 105 -27q62 0 104 27z" />
    <glyph glyph-name="tcaron" unicode="&#x165;" horiz-adv-x="463" 
d="M194 268q0 -53 16.5 -92t44 -64.5t63 -37.5t72.5 -12q17 0 29 -12t12 -29t-12 -29t-29 -12q-51 0 -101 17.5t-89 53.5t-63.5 90t-24.5 127v163q0 15 -10.5 25t-24.5 10h-34q-14 0 -24.5 10.5t-10.5 24.5q0 15 10.5 25t24.5 10h34q14 0 24.5 10.5t10.5 24.5v196
q0 17 12 29t29 12t29 -12t12 -29v-196q0 -14 10.5 -24.5t24.5 -10.5h123q14 0 24.5 -10t10.5 -25q0 -14 -10.5 -24.5t-24.5 -10.5h-123q-14 0 -24.5 -10t-10.5 -25v-163zM387 625q-2 -8 -7.5 -13t-14.5 -4t-13 6.5t-4 15.5v145q0 15 11.5 23.5t26.5 6.5t25 -11.5t7 -24.5z
" />
    <glyph glyph-name="Tbar" unicode="&#x166;" horiz-adv-x="508" 
d="M295 41q0 -17 -12 -29t-29 -12t-29 12t-12 29v639q0 14 -10.5 24.5t-24.5 10.5h-129q-17 0 -29 12t-12 29t12 29t29 12h410q17 0 29 -12t12 -29t-12 -29t-29 -12h-129q-14 0 -24.5 -10.5t-10.5 -24.5v-639zM96 504q0 15 10.5 25t24.5 10h245q15 0 25 -10t10 -25
q0 -14 -10 -24.5t-25 -10.5h-245q-14 0 -24.5 10.5t-10.5 24.5z" />
    <glyph glyph-name="tbar" unicode="&#x167;" horiz-adv-x="463" 
d="M194 268q0 -53 16.5 -92t44 -64.5t63 -37.5t72.5 -12q17 0 29 -12t12 -29t-12 -29t-29 -12q-51 0 -101 17.5t-89 53.5t-63.5 90t-24.5 127v163q0 15 -10.5 25t-24.5 10h-34q-14 0 -24.5 10.5t-10.5 24.5q0 15 10.5 25t24.5 10h34q14 0 24.5 10.5t10.5 24.5v196
q0 17 12 29t29 12t29 -12t12 -29v-196q0 -14 10.5 -24.5t24.5 -10.5h123q14 0 24.5 -10t10.5 -25q0 -14 -10.5 -24.5t-24.5 -10.5h-123q-14 0 -24.5 -10t-10.5 -25v-163zM29 305q0 15 10.5 25t24.5 10h245q15 0 25 -10t10 -25q0 -14 -10 -24.5t-25 -10.5h-245
q-14 0 -24.5 10.5t-10.5 24.5z" />
    <glyph glyph-name="Utilde" unicode="&#x168;" 
d="M551 767q0 17 12 29t29 12t29 -12t12 -29v-499q0 -73 -24.5 -127t-63.5 -89.5t-89 -53t-101 -17.5t-101 17.5t-89.5 53t-63.5 89.5t-24 127v499q0 17 12 29t29 12t29 -12t12 -29v-497q0 -54 16.5 -93t44 -64.5t62.5 -37.5t73 -12q37 0 72.5 12t63 37t44 64t16.5 92v499z
M386 865l-69 39q-11 6 -19 6q-14 0 -23 -9t-11 -23q-2 -13 -11.5 -21.5t-22.5 -8.5q-14 0 -23 9.5t-9 22.5q0 20 8.5 37.5t22.5 30t32 20t37 7.5q29 0 51 -13l69 -39q10 -6 19 -6q14 0 23 9t11 23q2 13 11.5 21.5t22.5 8.5q14 0 23 -9.5t9 -22.5q0 -20 -8.5 -37.5t-22.5 -30
t-32 -20t-37 -7.5q-29 0 -51 13zM386 865l-69 39q-11 6 -19 6q-14 0 -23 -9t-11 -23q-2 -13 -11.5 -21.5t-22.5 -8.5q-14 0 -23 9.5t-9 22.5q0 20 8.5 37.5t22.5 30t32 20t37 7.5q29 0 51 -13l69 -39q10 -6 19 -6q14 0 23 9t11 23q2 13 11.5 21.5t22.5 8.5q14 0 23 -9.5
t9 -22.5q0 -20 -8.5 -37.5t-22.5 -30t-32 -20t-37 -7.5q-29 0 -51 13z" />
    <glyph glyph-name="utilde" unicode="&#x169;" horiz-adv-x="723" 
d="M633 496v-228q0 -73 -24 -127t-63.5 -90t-89.5 -53.5t-101 -17.5t-101 17.5t-89 53.5t-63.5 90t-24.5 127v228q0 17 12 29t29 12t29 -12t12 -29v-228q0 -53 17 -92t44.5 -64.5t62.5 -37.5t72 -12t72.5 12t63 37.5t44.5 64.5t17 92v228q0 17 11.5 29t28.5 12t29 -12
t12 -29zM368 629l-69 39q-11 6 -19 6q-14 0 -23 -9t-11 -23q-2 -13 -11.5 -21.5t-22.5 -8.5q-14 0 -23 9.5t-9 22.5q0 20 8.5 37.5t22.5 30t32 20t37 7.5q29 0 51 -13l69 -39q10 -6 19 -6q14 0 23 9t11 23q2 13 11.5 21.5t22.5 8.5q14 0 23 -9.5t9 -22.5q0 -20 -8.5 -37.5
t-22.5 -30t-32 -20t-37 -7.5q-29 0 -51 13zM368 629l-69 39q-11 6 -19 6q-14 0 -23 -9t-11 -23q-2 -13 -11.5 -21.5t-22.5 -8.5q-14 0 -23 9.5t-9 22.5q0 20 8.5 37.5t22.5 30t32 20t37 7.5q29 0 51 -13l69 -39q10 -6 19 -6q14 0 23 9t11 23q2 13 11.5 21.5t22.5 8.5
q14 0 23 -9.5t9 -22.5q0 -20 -8.5 -37.5t-22.5 -30t-32 -20t-37 -7.5q-29 0 -51 13z" />
    <glyph glyph-name="Umacron" unicode="&#x16a;" 
d="M551 767q0 17 12 29t29 12t29 -12t12 -29v-499q0 -73 -24.5 -127t-63.5 -89.5t-89 -53t-101 -17.5t-101 17.5t-89.5 53t-63.5 89.5t-24 127v499q0 17 12 29t29 12t29 -12t12 -29v-497q0 -54 16.5 -93t44 -64.5t62.5 -37.5t73 -12q37 0 72.5 12t63 37t44 64t16.5 92v499z
M197 885q0 15 10.5 25t24.5 10h245q15 0 25 -10t10 -25q0 -14 -10 -24.5t-25 -10.5h-245q-14 0 -24.5 10.5t-10.5 24.5z" />
    <glyph glyph-name="umacron" unicode="&#x16b;" horiz-adv-x="723" 
d="M633 496v-228q0 -73 -24 -127t-63.5 -90t-89.5 -53.5t-101 -17.5t-101 17.5t-89 53.5t-63.5 90t-24.5 127v228q0 17 12 29t29 12t29 -12t12 -29v-228q0 -53 17 -92t44.5 -64.5t62.5 -37.5t72 -12t72.5 12t63 37.5t44.5 64.5t17 92v228q0 17 11.5 29t28.5 12t29 -12
t12 -29zM207 677q0 15 10.5 25t24.5 10h245q15 0 25 -10t10 -25q0 -14 -10 -24.5t-25 -10.5h-245q-14 0 -24.5 10.5t-10.5 24.5z" />
    <glyph glyph-name="Ubreve" unicode="&#x16c;" 
d="M551 767q0 17 12 29t29 12t29 -12t12 -29v-499q0 -73 -24.5 -127t-63.5 -89.5t-89 -53t-101 -17.5t-101 17.5t-89.5 53t-63.5 89.5t-24 127v499q0 17 12 29t29 12t29 -12t12 -29v-497q0 -54 16.5 -93t44 -64.5t62.5 -37.5t73 -12q37 0 72.5 12t63 37t44 64t16.5 92v499z
M340 901q8 -5 16 -5t16 5l107 54q6 3 13 3q14 0 25 -10t11 -27q0 -11 -6 -20.5t-17 -12.5l-142 -39q-7 -2 -14 0l-141 39q-12 3 -18 12.5t-6 20.5q0 17 11 27t25 10q7 0 13 -3z" />
    <glyph glyph-name="ubreve" unicode="&#x16d;" horiz-adv-x="723" 
d="M633 496v-228q0 -73 -24 -127t-63.5 -90t-89.5 -53.5t-101 -17.5t-101 17.5t-89 53.5t-63.5 90t-24.5 127v228q0 17 12 29t29 12t29 -12t12 -29v-228q0 -53 17 -92t44.5 -64.5t62.5 -37.5t72 -12t72.5 12t63 37.5t44.5 64.5t17 92v228q0 17 11.5 29t28.5 12t29 -12
t12 -29zM334 675q8 -5 16 -5t16 5l107 54q6 3 13 3q14 0 25 -10t11 -27q0 -11 -6 -20.5t-17 -12.5l-142 -39q-7 -2 -14 0l-141 39q-12 3 -18 12.5t-6 20.5q0 17 11 27t25 10q7 0 13 -3z" />
    <glyph glyph-name="Uring" unicode="&#x16e;" 
d="M551 767q0 17 12 29t29 12t29 -12t12 -29v-499q0 -73 -24.5 -127t-63.5 -89.5t-89 -53t-101 -17.5t-101 17.5t-89.5 53t-63.5 89.5t-24 127v499q0 17 12 29t29 12t29 -12t12 -29v-497q0 -54 16.5 -93t44 -64.5t62.5 -37.5t73 -12q37 0 72.5 12t63 37t44 64t16.5 92v499z
M354 849q-23 0 -40.5 7.5t-29 20.5t-17.5 29t-6 33q0 16 6 32.5t17.5 29t29 20.5t40.5 8q24 0 41.5 -8t29.5 -20.5t17.5 -29t5.5 -32.5q0 -17 -5.5 -33t-17.5 -28.5t-29.5 -20.5t-41.5 -8zM288 939q0 -24 15.5 -43.5t50.5 -19.5t51.5 19.5t16.5 43.5q0 23 -16.5 43t-51.5 20
t-50.5 -20t-15.5 -43z" />
    <glyph glyph-name="uring" unicode="&#x16f;" horiz-adv-x="723" 
d="M633 496v-228q0 -73 -24 -127t-63.5 -90t-89.5 -53.5t-101 -17.5t-101 17.5t-89 53.5t-63.5 90t-24.5 127v228q0 17 12 29t29 12t29 -12t12 -29v-228q0 -53 17 -92t44.5 -64.5t62.5 -37.5t72 -12t72.5 12t63 37.5t44.5 64.5t17 92v228q0 17 11.5 29t28.5 12t29 -12
t12 -29zM364 587q-23 0 -40.5 7.5t-29 20.5t-17.5 29t-6 33q0 16 6 32.5t17.5 29t29 20.5t40.5 8q24 0 41.5 -8t29.5 -20.5t17.5 -29t5.5 -32.5q0 -17 -5.5 -33t-17.5 -28.5t-29.5 -20.5t-41.5 -8zM298 677q0 -24 15.5 -43.5t50.5 -19.5t51.5 19.5t16.5 43.5q0 23 -16.5 43
t-51.5 20t-50.5 -20t-15.5 -43z" />
    <glyph glyph-name="Uhungarumlaut" unicode="&#x170;" 
d="M551 767q0 17 12 29t29 12t29 -12t12 -29v-499q0 -73 -24.5 -127t-63.5 -89.5t-89 -53t-101 -17.5t-101 17.5t-89.5 53t-63.5 89.5t-24 127v499q0 17 12 29t29 12t29 -12t12 -29v-497q0 -54 16.5 -93t44 -64.5t62.5 -37.5t73 -12q37 0 72.5 12t63 37t44 64t16.5 92v499z
M316 993q10 28 43 28q18 0 28 -8.5t-3 -30.5l-81 -123q-6 -9 -14 -9q-4 0 -8 2.5t-4 9.5q0 8 8.5 35.5t30.5 95.5zM451 993q10 28 43 28q18 0 28 -8.5t-3 -30.5l-81 -123q-6 -9 -14 -9q-4 0 -8 2.5t-4 9.5q0 8 8.5 35.5t30.5 95.5z" />
    <glyph glyph-name="uhungarumlaut" unicode="&#x171;" horiz-adv-x="723" 
d="M633 496v-228q0 -73 -24 -127t-63.5 -90t-89.5 -53.5t-101 -17.5t-101 17.5t-89 53.5t-63.5 90t-24.5 127v228q0 17 12 29t29 12t29 -12t12 -29v-228q0 -53 17 -92t44.5 -64.5t62.5 -37.5t72 -12t72.5 12t63 37.5t44.5 64.5t17 92v228q0 17 11.5 29t28.5 12t29 -12
t12 -29zM300 731q10 28 43 28q18 0 28 -8.5t-3 -30.5l-81 -123q-6 -9 -14 -9q-4 0 -8 2.5t-4 9.5q0 8 8.5 35.5t30.5 95.5zM435 731q10 28 43 28q18 0 28 -8.5t-3 -30.5l-81 -123q-6 -9 -14 -9q-4 0 -8 2.5t-4 9.5q0 8 8.5 35.5t30.5 95.5z" />
    <glyph glyph-name="Uogonek" unicode="&#x172;" 
d="M571 405q0 13 9 22t22 9t22 -9t9 -22v-279q0 -26 -28 -32t-28 -29q0 -12 6 -18q7 -7 20 -7q16 0 25 14q8 14 25 14q12 0 20.5 -8.5t8.5 -20.5q0 -10 -4 -15q-27 -44 -75 -44q-38 0 -62 26q-25 25 -25 59q0 51 46 75q9 4 9 12v253zM551 767q0 17 12 29t29 12t29 -12
t12 -29v-499q0 -73 -24.5 -127t-63.5 -89.5t-89 -53t-101 -17.5t-101 17.5t-89.5 53t-63.5 89.5t-24 127v499q0 17 12 29t29 12t29 -12t12 -29v-497q0 -54 16.5 -93t44 -64.5t62.5 -37.5t73 -12q37 0 72.5 12t63 37t44 64t16.5 92v499z" />
    <glyph glyph-name="uogonek" unicode="&#x173;" horiz-adv-x="723" 
d="M571 162q0 13 9 22t22 9t22 -9t9 -22v-129q0 -26 -28 -32t-28 -29q0 -12 6 -18q7 -7 20 -7q16 0 25 14q8 14 25 14q12 0 20.5 -8.5t8.5 -20.5q0 -10 -4 -15q-27 -44 -75 -44q-38 0 -62 26q-25 25 -25 59q0 51 46 75q9 4 9 12v103zM633 496v-228q0 -73 -24 -127t-63.5 -90
t-89.5 -53.5t-101 -17.5t-101 17.5t-89 53.5t-63.5 90t-24.5 127v228q0 17 12 29t29 12t29 -12t12 -29v-228q0 -53 17 -92t44.5 -64.5t62.5 -37.5t72 -12t72.5 12t63 37.5t44.5 64.5t17 92v228q0 17 11.5 29t28.5 12t29 -12t12 -29z" />
    <glyph glyph-name="Wcircumflex" unicode="&#x174;" horiz-adv-x="1184" 
d="M39 749q-7 16 -0.5 31.5t22.5 22.5t31.5 0.5t22.5 -22.5l277 -650l37 87q6 13 0 27l-62 147q-6 14 -0.5 27t18.5 19q14 5 27.5 0t18.5 -19l42 -98l42 98q6 14 19.5 19t26.5 0q14 -6 19 -19t0 -27l-63 -147q-6 -14 0 -27l38 -87l278 651q7 16 22.5 22.5t31.5 -0.5
t22 -22.5t-1 -31.5l-309 -725q-7 -16 -22.5 -22.5t-31.5 0.5q-15 7 -22 24l-50 116l-49 -116q-7 -17 -23 -24q-15 -7 -30.5 -0.5t-22.5 22.5zM697 852q-23 14 -50 20.5t-54 6.5q-57 0 -105 -27q-5 -3 -12 -3q-25 0 -25 25q0 11 9 20q26 23 58.5 39t74.5 16t73 -16.5
t59 -38.5q10 -7 10 -20q0 -25 -25 -25q-7 0 -13 3z" />
    <glyph glyph-name="wcircumflex" unicode="&#x175;" horiz-adv-x="745" 
d="M593 397q17 0 29 -12t12 -29v-88q0 -53 16.5 -92t44 -64t63 -37t72.5 -12t72 12t62.5 37t44.5 64t17 92v228q0 17 12 29t29 12t29 -12t12 -29v-228q0 -73 -24.5 -127t-63.5 -89.5t-89 -53t-101 -17.5q-35 0 -69 8t-65 23.5t-57.5 39.5t-45.5 56q-39 -64 -104 -95.5
t-134 -31.5q-51 0 -101 17.5t-89 53t-63.5 89.5t-24.5 127v228q0 17 12 29t29 12t29 -12t12 -29v-228q0 -53 17 -92t44.5 -64t62.5 -37t72 -12t72.5 12t63 37t44.5 64t17 92v88q0 17 12 29t29 12zM478 633q-23 14 -50 20.5t-54 6.5q-57 0 -105 -27q-5 -3 -12 -3
q-25 0 -25 25q0 11 9 20q26 23 58.5 39t74.5 16t73 -16.5t59 -38.5q10 -7 10 -20q0 -25 -25 -25q-7 0 -13 3z" />
    <glyph glyph-name="Ycircumflex" unicode="&#x176;" horiz-adv-x="648" 
d="M520 766q0 17 12 29t29 12t29 -12t12 -29v-123q0 -61 -17 -108.5t-46 -82t-66.5 -56.5t-79.5 -32q-13 -3 -20.5 -13t-7.5 -23v-287q0 -17 -12 -29t-29 -12t-29 12t-12 29v287q0 13 -7.5 23t-20.5 13q-42 10 -80 32t-66.5 56.5t-45.5 82t-17 108.5v123q0 17 12 29t29 12
t29 -12t12 -29v-121q0 -54 16.5 -93t44 -64.5t62.5 -37.5t73 -12q37 0 72.5 12t63 37t44 64t16.5 92v123zM429 852q-23 14 -50 20.5t-54 6.5q-57 0 -105 -27q-5 -3 -12 -3q-25 0 -25 25q0 11 9 20q26 23 58.5 39t74.5 16t73 -16.5t59 -38.5q10 -7 10 -20q0 -25 -25 -25
q-7 0 -13 3z" />
    <glyph glyph-name="ycircumflex" unicode="&#x177;" horiz-adv-x="533" 
d="M551 497q0 17 12 29t29 12t29 -12t12 -29v-480q0 -73 -24.5 -127t-63.5 -89.5t-89 -53t-101 -17.5q-31 0 -61.5 6t-59.5 20q-24 11 -24 37q0 17 12 29t29 12q9 0 17 -4q40 -18 87 -18q37 0 72.5 12t63 37t44 64t16.5 92v46q-40 -38 -91 -57t-105 -19q-51 0 -101 17.5
t-89.5 53t-63.5 89.5t-24 127v223q0 17 12 29t29 12t29 -12t12 -29v-221q0 -54 16.5 -93t44 -64.5t62.5 -37.5t73 -12q37 0 72.5 12t63 37t44 64t16.5 92v223zM382 632q-23 14 -50 20.5t-54 6.5q-57 0 -105 -27q-5 -3 -12 -3q-25 0 -25 25q0 11 9 20q26 23 58.5 39t74.5 16
t73 -16.5t59 -38.5q10 -7 10 -20q0 -25 -25 -25q-7 0 -13 3z" />
    <glyph glyph-name="Ydieresis" unicode="&#x178;" horiz-adv-x="648" 
d="M520 766q0 17 12 29t29 12t29 -12t12 -29v-123q0 -61 -17 -108.5t-46 -82t-66.5 -56.5t-79.5 -32q-13 -3 -20.5 -13t-7.5 -23v-287q0 -17 -12 -29t-29 -12t-29 12t-12 29v287q0 13 -7.5 23t-20.5 13q-42 10 -80 32t-66.5 56.5t-45.5 82t-17 108.5v123q0 17 12 29t29 12
t29 -12t12 -29v-121q0 -54 16.5 -93t44 -64.5t62.5 -37.5t73 -12q37 0 72.5 12t63 37t44 64t16.5 92v123zM203 895q0 15 10 27t31 12t31 -12t10 -27t-10 -27t-31 -12t-31 12t-10 27zM363 895q0 15 10 27t31 12t31 -12t10 -27t-10 -27t-31 -12t-31 12t-10 27z" />
    <glyph glyph-name="Zacute" unicode="&#x179;" horiz-adv-x="633" 
d="M66 11q-11 0 -22.5 9t-11.5 26q0 11 6 20l449 651h-414q-17 0 -28.5 12t-11.5 29t11.5 28t28.5 11h487q11 0 20 -6q15 -11 15 -29q0 -11 -6 -20l-449 -651h421q17 0 28.5 -11t11.5 -29q0 -17 -11.5 -28.5t-28.5 -11.5h-495zM408 953q6 3 13 3q13 0 23.5 -10.5t10.5 -26.5
q0 -11 -6 -20t-17 -12l-139 -35q-13 -3 -20 2.5t-7 15.5q0 13 13 19z" />
    <glyph glyph-name="zacute" unicode="&#x17a;" horiz-adv-x="564" 
d="M64 496q0 17 11.5 28.5t28.5 11.5h364q14 0 26 -10q6 -5 11 -15q3 -6 3 -15q0 -14 -10 -25q-76 -88 -159.5 -184.5t-160.5 -184.5q-20 -23 11 -23h303q17 0 28.5 -11.5t11.5 -28.5t-11.5 -28.5t-28.5 -11.5h-421q-14 0 -25 11q-14 11 -14 29q0 16 10 26q77 89 159 184.5
t160 184.5q20 22 -10 22h-247q-17 0 -28.5 11.5t-11.5 28.5zM404 727q6 3 13 3q13 0 23.5 -10.5t10.5 -26.5q0 -11 -6 -20t-17 -12l-139 -35q-13 -3 -20 2.5t-7 15.5q0 13 13 19z" />
    <glyph glyph-name="Zdotaccent" unicode="&#x17b;" horiz-adv-x="633" 
d="M66 11q-11 0 -22.5 9t-11.5 26q0 11 6 20l449 651h-414q-17 0 -28.5 12t-11.5 29t11.5 28t28.5 11h487q11 0 20 -6q15 -11 15 -29q0 -11 -6 -20l-449 -651h421q17 0 28.5 -11t11.5 -29q0 -17 -11.5 -28.5t-28.5 -11.5h-495zM275 889q0 15 10 27t31 12t31 -12t10 -27
t-10 -27t-31 -12t-31 12t-10 27z" />
    <glyph glyph-name="zdotaccent" unicode="&#x17c;" horiz-adv-x="564" 
d="M64 496q0 17 11.5 28.5t28.5 11.5h364q14 0 26 -10q6 -5 11 -15q3 -6 3 -15q0 -14 -10 -25q-76 -88 -159.5 -184.5t-160.5 -184.5q-20 -23 11 -23h303q17 0 28.5 -11.5t11.5 -28.5t-11.5 -28.5t-28.5 -11.5h-421q-14 0 -25 11q-14 11 -14 29q0 16 10 26q77 89 159 184.5
t160 184.5q20 22 -10 22h-247q-17 0 -28.5 11.5t-11.5 28.5zM240 678q0 15 10 27t31 12t31 -12t10 -27t-10 -27t-31 -12t-31 12t-10 27z" />
    <glyph glyph-name="Zcaron" unicode="&#x17d;" horiz-adv-x="633" 
d="M66 11q-11 0 -22.5 9t-11.5 26q0 11 6 20l449 651h-414q-17 0 -28.5 12t-11.5 29t11.5 28t28.5 11h487q11 0 20 -6q15 -11 15 -29q0 -11 -6 -20l-449 -651h421q17 0 28.5 -11t11.5 -29q0 -17 -11.5 -28.5t-28.5 -11.5h-495zM421 953q6 3 13 3q25 0 25 -25q0 -13 -10 -20
q-28 -22 -59 -38.5t-73 -16.5t-73.5 16.5t-59.5 38.5q-9 9 -9 20q0 25 25 25q7 0 12 -3q48 -27 105 -27q62 0 104 27z" />
    <glyph glyph-name="zcaron" unicode="&#x17e;" horiz-adv-x="564" 
d="M64 496q0 17 11.5 28.5t28.5 11.5h364q14 0 26 -10q6 -5 11 -15q3 -6 3 -15q0 -14 -10 -25q-76 -88 -159.5 -184.5t-160.5 -184.5q-20 -23 11 -23h303q17 0 28.5 -11.5t11.5 -28.5t-11.5 -28.5t-28.5 -11.5h-421q-14 0 -25 11q-14 11 -14 29q0 16 10 26q77 89 159 184.5
t160 184.5q20 22 -10 22h-247q-17 0 -28.5 11.5t-11.5 28.5zM386 724q6 3 13 3q25 0 25 -25q0 -13 -10 -20q-28 -22 -59 -38.5t-73 -16.5t-73.5 16.5t-59.5 38.5q-9 9 -9 20q0 25 25 25q7 0 12 -3q48 -27 105 -27q62 0 104 27z" />
    <glyph glyph-name="longs" unicode="&#x17f;" horiz-adv-x="459" 
d="M140 412q0 14 -10.5 24.5t-24.5 10.5h-36q-15 0 -25 10t-10 25q0 14 9.5 24.5t25.5 10.5h38q17 0 26 11t12 30q9 59 35.5 101.5t64.5 71.5t82.5 43t90.5 14q15 0 29 -12q12 -14 12 -29q0 -16 -12 -30q-13 -11 -29 -11q-65 0 -117 -35q-26 -18 -45 -45.5t-27 -63.5
q-1 -6 -1 -9q0 -12 6 -21q8 -15 26 -15h147q15 0 25 -10t10 -25q0 -16 -10.5 -25.5t-24.5 -9.5h-150q-16 0 -25.5 -10.5t-9.5 -24.5v-440q0 -40 -13 -78t-35 -71q-33 -53 -86 -87q-10 -7 -23 -7q-12 0 -22 7q-19 13 -19 34q0 12 5 20.5t14 14.5q38 24 62 62q33 50 35 110
v435z" />
    <glyph glyph-name="florin" unicode="&#x192;" horiz-adv-x="545" 
d="M161 157q6 48 -11.5 62.5t-68.5 14.5q-14 0 -22.5 9t-8.5 23q0 17 12.5 28t27.5 11h21q13 0 23.5 1t19 6t15.5 14t14 26q19 45 48.5 82.5t67 65t80.5 42.5t90 15q62 0 64 -40q0 -23 -14.5 -33.5t-31.5 -10.5q-5 0 -13 1t-16 1q-54 0 -100.5 -28t-71.5 -70
q-13 -23 -13 -37q0 -36 52 -36h121q14 0 22 -8t8 -21q0 -17 -11.5 -29t-27.5 -12h-120q-39 0 -54 -15.5t-20 -61.5l-24 -197q-21 -145 -158 -224q-10 -7 -23 -7q-18 0 -28 10.5t-10 27.5q0 15 10.5 23.5t64 55t62.5 115.5z" />
    <glyph glyph-name="h_v" unicode="&#x195;" horiz-adv-x="1197" 
d="M172 531q0 -10 7 -17t18 -7q9 0 13 4q38 22 75.5 33.5t82.5 11.5q55 0 103 -17.5t84.5 -51t60 -82t30.5 -109.5l3 -48q5 -85 55.5 -135.5t137.5 -50.5q46 0 82 15.5t61.5 42.5t39 64.5t13.5 82.5v230q0 20 12.5 30t28.5 10q15 0 28 -10t13 -30v-230q0 -62 -20 -114.5
t-56.5 -90.5t-87.5 -60t-114 -22q-54 0 -103 18t-86.5 52t-61 83t-26.5 111v41q-3 42 -18 77t-40.5 60t-60.5 38.5t-78 13.5q-46 0 -82 -15.5t-61.5 -42.5t-39 -64.5t-13.5 -82.5v-228q0 -17 -12 -29t-29 -12t-29 12t-12 29v726q0 20 12.5 30t28.5 10q15 0 28 -10t13 -30
v-236z" />
    <glyph glyph-name="AEacute" unicode="&#x1fc;" horiz-adv-x="1003" 
d="M160 41q0 -17 -12 -29t-29 -12t-29 12t-12 29v479q0 73 24.5 127t63.5 90t89 53.5t101 17.5q69 0 133.5 -31.5t103.5 -96.5q39 65 103.5 96.5t133.5 31.5q31 0 61.5 -6t59.5 -20q24 -11 24 -37q0 -17 -12 -29t-29 -12q-8 0 -17 4q-41 18 -87 18q-38 0 -73 -12t-62.5 -37
t-44 -64t-16.5 -92v-43q0 -17 12 -29t29 -12h156q17 0 29 -12t12 -29t-12 -29t-29 -12h-156q-17 0 -29 -12t-12 -29v-45q0 -54 16.5 -92.5t44 -64t62.5 -37.5t73 -12q46 0 87 18q9 4 17 4q17 0 29 -12t12 -29q0 -13 -7 -23t-18 -15q-54 -25 -120 -25q-54 0 -105 19t-91 57
v-16q0 -17 -12 -29t-29 -12t-29 12t-12 29v290q0 10 -7 17t-18 7h-343q-10 0 -17 -7t-7 -17v-290zM552 519q0 54 -16.5 93t-44 64.5t-63 37.5t-72.5 12q-38 0 -73 -12t-62.5 -37t-44 -64t-16.5 -92v-59q0 -11 7 -18t17 -7h343q25 0 25 25v57zM500 952q6 3 13 3
q13 0 23.5 -10.5t10.5 -26.5q0 -11 -6 -20t-17 -12l-139 -35q-13 -3 -20 2.5t-7 15.5q0 13 13 19z" />
    <glyph glyph-name="aeacute" unicode="&#x1fd;" horiz-adv-x="967" 
d="M252 246q-54 0 -80.5 -23.5t-26.5 -60.5q2 -45 29 -71q19 -16 36.5 -22.5t40.5 -6.5q54 0 87 35.5t33 92.5v49q0 7 -4 7h-8h-107zM453 345v-49q0 -7 4 -7h8h107q54 0 80.5 23.5t26.5 60.5q-2 45 -29 71q-19 16 -36.5 22.5t-40.5 6.5q-54 0 -87 -35.5t-33 -92.5zM371 345
q0 64 -29.5 96t-83.5 32q-40 0 -71.5 -13t-61.5 -35q-11 -8 -21 -8q-17 0 -29 12t-12 29q0 14 11 28q73 69 184 69q54 0 93 -20.5t64 -55.5q26 35 66.5 55.5t91.5 20.5q39 0 70 -12t61 -38t43.5 -59.5t13.5 -72.5q0 -41 -15.5 -72t-42 -52t-60.5 -31.5t-71 -10.5h-107
q-12 0 -12 -13v-4q0 -63 29.5 -95.5t83.5 -32.5q40 0 71.5 13t61.5 35q11 8 21 8q17 0 29 -12t12 -29q0 -14 -11 -28q-74 -69 -184 -69q-54 0 -93 20.5t-64 55.5q-26 -35 -66.5 -55.5t-91.5 -20.5q-39 0 -70 12t-61 38t-43.5 59.5t-13.5 72.5q0 41 15.5 72t42 52t60.5 31.5
t71 10.5h107q12 0 12 13v4zM468 727q6 3 13 3q13 0 23.5 -10.5t10.5 -26.5q0 -11 -6 -20t-17 -12l-139 -35q-13 -3 -20 2.5t-7 15.5q0 13 13 19z" />
    <glyph glyph-name="Oslashacute" unicode="&#x1fe;" horiz-adv-x="916" 
d="M280 115q42 -27 88.5 -40t94.5 -13q59 0 116 20t102 60.5t72.5 103t27.5 148.5q0 54 -12 99t-32 81q-5 9 -16 9q-12 0 -18 -8l-426 -425q-6 -6 -6 -16q0 -13 9 -19zM463 725q-60 0 -117 -20t-102 -60.5t-72 -103t-27 -147.5q0 -55 11.5 -100t31.5 -81q4 -9 16 -9
q11 0 19 8l425 425q7 7 7 17q0 12 -10 18q-42 27 -88 40t-94 13zM63 394q0 105 34.5 182.5t91 129t128.5 76.5t146 25q66 0 128.5 -19.5t116.5 -58.5q7 -6 16 -6q11 0 18 7l45 45q12 12 29 12t29 -12t12 -29t-12 -29l-48 -47q-7 -7 -7 -18q0 -6 3 -12q32 -48 51 -109.5
t19 -136.5q0 -105 -35 -183t-91.5 -129.5t-128.5 -76.5t-145 -25q-66 0 -128.5 19.5t-116.5 58.5q-8 6 -17 6q-10 0 -17 -7l-45 -45q-12 -12 -29 -12t-29 12t-12 29q0 9 2.5 15t9.5 13.5t18 18t29 29.5q8 8 8 18q0 8 -4 12q-32 48 -50.5 109.5t-18.5 137.5zM581 953
q6 3 13 3q13 0 23.5 -10.5t10.5 -26.5q0 -11 -6 -20t-17 -12l-139 -35q-13 -3 -20 2.5t-7 15.5q0 13 13 19z" />
    <glyph glyph-name="oslashacute" unicode="&#x1ff;" horiz-adv-x="672" 
d="M229 90q47 -28 107 -28q37 0 72.5 12t63 37.5t44 64t16.5 92.5q0 60 -23 104q-3 5 -8 5q-6 0 -10 -4l-264 -264q-3 -3 -3 -8q0 -8 5 -11zM336 473q-38 0 -73 -12t-62.5 -37t-44 -64t-16.5 -92q0 -62 22 -105q2 -5 9 -5q6 0 10 4l264 264q3 3 3 8q0 7 -5 10
q-46 29 -107 29zM58 268q0 73 24 127t63.5 89.5t89.5 53t101 17.5q42 0 83 -12t77 -35q8 -5 16 -5q10 0 17 7l15 15q10 10 25 10t25 -10t10 -24q0 -15 -10 -25l-17 -17q-8 -8 -8 -19q0 -7 3 -11q20 -32 31 -72.5t11 -88.5q0 -73 -24.5 -127t-63.5 -90t-89 -53.5t-101 -17.5
q-42 0 -83 11.5t-77 35.5q-8 5 -16 5q-10 0 -17 -7l-16 -16q-10 -10 -24 -10q-15 0 -25 10q-11 11 -11 25t11 25l17 17q8 8 8 19q0 6 -3 11q-20 32 -31 72.5t-11 89.5zM462 727q6 3 13 3q13 0 23.5 -10.5t10.5 -26.5q0 -11 -6 -20t-17 -12l-139 -35q-13 -3 -20 2.5t-7 15.5
q0 13 13 19z" />
    <glyph glyph-name="Scommaaccent" unicode="&#x218;" horiz-adv-x="633" 
d="M374 681q-11 20 -30.5 32.5t-44.5 12.5q-35 0 -60 -25t-25 -60t25 -60t60 -25q60 0 112.5 -22.5t91.5 -61.5t61.5 -91.5t22.5 -112.5q0 -59 -22.5 -111.5t-61.5 -91.5t-91.5 -61.5t-112.5 -22.5q-44 0 -84.5 12.5t-75 35.5t-61.5 55t-43 71q-3 7 -3 16q0 17 12 29t29 12
q13 0 23 -7t15 -18q23 -55 74 -89.5t114 -34.5q43 0 80.5 16t65.5 44t44 65.5t16 79.5q0 43 -16 80.5t-44 65.5t-65.5 44t-80.5 16q-35 0 -65 13t-53 36t-36 53t-13 65q0 34 13 64.5t36 53.5t53 36t65 13q48 0 86.5 -24t60.5 -63q5 -12 5 -20q0 -17 -12 -29t-29 -12
q-12 0 -21.5 6t-14.5 15zM305 -242q-2 -9 -8 -14t-14 -4q-18 3 -18 22v144q0 15 12.5 24t26.5 7t24 -13t7 -25z" />
    <glyph glyph-name="scommaaccent" unicode="&#x219;" horiz-adv-x="575" 
d="M454 508q26 -18 26 -38t-11.5 -30.5t-28.5 -10.5q-16 0 -30 9q-58 38 -113 38q-126 0 -126 -71q0 -65 132 -65q209 0 209 -167q0 -193 -221 -193q-170 0 -240 135q-5 13 -5 21q0 17 11.5 28.5t29.5 11.5q20 0 31 -15t22 -28q63 -74 152 -74q138 0 138 109q0 92 -136 92
q-206 0 -206 145q0 151 210 150q88 -1 156 -47zM299 -242q-2 -9 -8 -14t-14 -4q-18 3 -18 22v144q0 15 12.5 24t26.5 7t24 -13t7 -25z" />
    <glyph glyph-name="schwa" unicode="&#x259;" horiz-adv-x="529" 
d="M104.026 80q-7 4 -16.999 4q-16.999 0 -28.999 -12q-11.999 -12 -11.999 -29q0 -26 23.999 -37q28.998 -14 59.4961 -20t61.4961 -6q50.9971 0 100.994 17.5t88.9941 53.5q38.998 36 63.4961 90q24.499 54 24.499 127t-23.999 127q-23.998 54 -63.4961 89.5
q-39.4971 35.5 -89.4941 53t-100.994 17.5q-65.9961 0 -119.992 -25q-11 -5 -17.999 -15q-7 -10 -7 -23q0 -17 11.999 -29q12 -12 28.999 -12q9.99902 0 16.999 4q40.9971 18 86.9941 18q57.9971 0 107.493 -28.5q49.4971 -28.5 73.4961 -89.5q7.99902 -28 -5 -40.5
t-27.998 -12.5h-147.991q-14.999 0 -24.998 -10q-10 -10 -10 -25q0 -14 10 -24.5q9.99902 -10.5 24.998 -10.5h146.991q15.999 0 29.498 -12.5t4.5 -40.5q-23.999 -60 -73.9961 -88.5q-49.9961 -28.5 -106.993 -28.5q-45.9971 0 -86.9941 18z" />
    <glyph glyph-name="apostrophe" unicode="&#x2bc;" horiz-adv-x="144" 
d="M48 610q-2 -9 -8 -14t-14 -4q-18 3 -18 22v144q0 15 12.5 24t26.5 7t24 -13t7 -25z" />
    <glyph glyph-name="circumflex" unicode="&#x2c6;" horiz-adv-x="348" 
d="M278 639q-23 14 -50 20.5t-54 6.5q-57 0 -105 -27q-5 -3 -12 -3q-25 0 -25 25q0 11 9 20q26 23 58.5 39t74.5 16t73 -16.5t59 -38.5q10 -7 10 -20q0 -25 -25 -25q-7 0 -13 3z" />
    <glyph glyph-name="caron" unicode="&#x2c7;" horiz-adv-x="348" 
d="M278 724q6 3 13 3q25 0 25 -25q0 -13 -10 -20q-28 -22 -59 -38.5t-73 -16.5t-73.5 16.5t-59.5 38.5q-9 9 -9 20q0 25 25 25q7 0 12 -3q48 -27 105 -27q62 0 104 27z" />
    <glyph glyph-name="breve" unicode="&#x2d8;" horiz-adv-x="408" 
d="M188 673q8 -5 16 -5t16 5l107 54q6 3 13 3q14 0 25 -10t11 -27q0 -11 -6 -20.5t-17 -12.5l-142 -39q-7 -2 -14 0l-141 39q-12 3 -18 12.5t-6 20.5q0 17 11 27t25 10q7 0 13 -3z" />
    <glyph glyph-name="dotaccent" unicode="&#x2d9;" horiz-adv-x="146" 
d="M32 709q0 15 10 27t31 12t31 -12t10 -27t-10 -27t-31 -12t-31 12t-10 27z" />
    <glyph glyph-name="ring" unicode="&#x2da;" horiz-adv-x="341" 
d="M170 587q-23 0 -40.5 7.5t-29 20.5t-17.5 29t-6 33q0 16 6 32.5t17.5 29t29 20.5t40.5 8q24 0 41.5 -8t29.5 -20.5t17.5 -29t5.5 -32.5q0 -17 -5.5 -33t-17.5 -28.5t-29.5 -20.5t-41.5 -8zM104 677q0 -24 15.5 -43.5t50.5 -19.5t51.5 19.5t16.5 43.5q0 23 -16.5 43
t-51.5 20t-50.5 -20t-15.5 -43z" />
    <glyph glyph-name="ogonek" unicode="&#x2db;" horiz-adv-x="217" 
d="M106 162q0 13 9 22t22 9t22 -9t9 -22v-129q0 -26 -28 -32t-28 -29q0 -12 6 -18q7 -7 20 -7q16 0 25 14q8 14 25 14q12 0 20.5 -8.5t8.5 -20.5q0 -10 -4 -15q-27 -44 -75 -44q-38 0 -62 26q-25 25 -25 59q0 51 46 75q9 4 9 12v103z" />
    <glyph glyph-name="tilde" unicode="&#x2dc;" horiz-adv-x="699" 
d="M368 629l-69 39q-11 6 -19 6q-14 0 -23 -9t-11 -23q-2 -13 -11.5 -21.5t-22.5 -8.5q-14 0 -23 9.5t-9 22.5q0 20 8.5 37.5t22.5 30t32 20t37 7.5q29 0 51 -13l69 -39q10 -6 19 -6q14 0 23 9t11 23q2 13 11.5 21.5t22.5 8.5q14 0 23 -9.5t9 -22.5q0 -20 -8.5 -37.5
t-22.5 -30t-32 -20t-37 -7.5q-29 0 -51 13zM368 629l-69 39q-11 6 -19 6q-14 0 -23 -9t-11 -23q-2 -13 -11.5 -21.5t-22.5 -8.5q-14 0 -23 9.5t-9 22.5q0 20 8.5 37.5t22.5 30t32 20t37 7.5q29 0 51 -13l69 -39q10 -6 19 -6q14 0 23 9t11 23q2 13 11.5 21.5t22.5 8.5
q14 0 23 -9.5t9 -22.5q0 -20 -8.5 -37.5t-22.5 -30t-32 -20t-37 -7.5q-29 0 -51 13z" />
    <glyph glyph-name="hungarumlaut" unicode="&#x2dd;" horiz-adv-x="350" 
d="M71 814q10 28 43 28q18 0 28 -8.5t-3 -30.5l-81 -123q-6 -9 -14 -9q-4 0 -8 2.5t-4 9.5q0 8 8.5 35.5t30.5 95.5zM206 814q10 28 43 28q18 0 28 -8.5t-3 -30.5l-81 -123q-6 -9 -14 -9q-4 0 -8 2.5t-4 9.5q0 8 8.5 35.5t30.5 95.5z" />
    <glyph glyph-name="uni037E" unicode="&#x37e;" horiz-adv-x="214" 
d="M90 51q0 19 13 28.5t28 9.5q16 0 28.5 -10.5t12.5 -30.5q0 -60 -23.5 -119t-68.5 -101q-10 -10 -25 -10q-14 0 -25 9.5t-11 25.5q0 8 3 13t8 11q32 36 46 72.5t14 82.5v19zM90 396q0 15 10 27t31 12t31 -12t10 -27q0 -14 -10 -26.5t-31 -12.5t-31 12t-10 27z" />
    <glyph glyph-name="tonos" unicode="&#x384;" horiz-adv-x="136" 
d="M74 771q5 7 10 9q12 5 26 0t21 -20q5 -10 3.5 -20.5t-10.5 -17.5l-111 -91q-11 -9 -19.5 -6.5t-13.5 11.5q-4 11 5 22z" />
    <glyph glyph-name="dieresistonos" unicode="&#x385;" horiz-adv-x="433" 
d="M32 670q0 15 10 27t31 12t31 -12t10 -27t-10 -27t-31 -12t-31 12t-10 27zM319 670q0 15 10 27t31 12t31 -12t10 -27t-10 -27t-31 -12t-31 12t-10 27zM252 799q5 7 10 9q12 5 26 0t21 -20q5 -10 3.5 -20.5t-10.5 -17.5l-111 -91q-11 -9 -19.5 -6.5t-13.5 11.5q-4 11 5 22z
" />
    <glyph glyph-name="Alphatonos" unicode="&#x386;" 
d="M159 41q0 -17 -12 -29t-29 -12t-29 12t-12 29v479q0 73 24.5 127t63.5 90t89 53.5t101 17.5t101 -17.5t89.5 -53.5t63.5 -90t24 -127v-479q0 -17 -12 -29t-29 -12t-29 12t-12 29v203q0 10 -7 17t-18 7h-343q-10 0 -17 -7t-7 -17v-203zM551 519q0 54 -16.5 93t-44 64.5
t-63 37.5t-72.5 12q-38 0 -73 -12t-62.5 -37.5t-44 -64t-16.5 -92.5v-145q0 -25 24 -25h343q25 0 25 25v144zM439 998q5 7 10 9q12 5 26 0t21 -20q5 -10 3.5 -20.5t-10.5 -17.5l-111 -91q-11 -9 -19.5 -6.5t-13.5 11.5q-4 11 5 22z" />
    <glyph glyph-name="anoteleia" unicode="&#x387;" horiz-adv-x="262" 
d="M90 292q0 16 16 16h50q16 0 16 -16v-50q0 -16 -16 -16h-50q-16 0 -16 16v50z" />
    <glyph glyph-name="Epsilontonos" unicode="&#x388;" horiz-adv-x="607" 
d="M491 -236q-20 -1 -30.5 11.5t-11 28.5t9.5 29t31 13q33 0 55.5 23t22.5 55t-23 55.5t-55 23.5q-8 0 -15 -2t-15 -4q-12 -5 -23.5 -8.5t-24.5 -5.5q-32 -6 -65 -3.5t-65 12.5t-60.5 27t-50.5 40q-83 86 -83 210v248q0 124 83 210q27 28 65.5 48t81.5 28t85.5 3t77.5 -27
q15 -9 20.5 -22t3 -25t-13 -20.5t-28.5 -7.5q-12 1 -23.5 5.5t-22.5 8.5q-24 8 -52 8q-45 0 -80.5 -17.5t-60 -47t-37 -68t-12.5 -80.5t21.5 -62.5t61.5 -20.5h32q16 0 29.5 -9.5t13.5 -26.5q0 -19 -13 -28t-30 -9h-32q-45 0 -64 -23t-19 -65q0 -40 13 -77.5t39 -68.5
q28 -33 61.5 -47.5t76.5 -14.5q29 -2 52 7q20 7 35.5 12t37.5 5q33 0 62.5 -12.5t51 -34.5t34.5 -51.5t13 -62.5q0 -34 -12.5 -62.5t-34 -50t-51 -34t-62.5 -13.5zM425 998q5 7 10 9q12 5 26 0t21 -20q5 -10 3.5 -20.5t-10.5 -17.5l-111 -91q-11 -9 -19.5 -6.5t-13.5 11.5
q-4 11 5 22z" />
    <glyph glyph-name="Etatonos" unicode="&#x389;" horiz-adv-x="736" 
d="M564 748q0 17 12 29t29 12t29 -12t12 -29v-707q0 -17 -12 -29t-29 -12t-29 12t-12 29v207q0 8 -6 14t-15 6h-351q-8 0 -14 -6t-6 -14v-207q0 -17 -12 -29t-29 -12t-29 12t-12 29v707q0 17 12 29t29 12t29 -12t12 -29v-377q0 -8 6 -14.5t14 -6.5h351q9 0 15 6.5t6 14.5
v377zM438 998q5 7 10 9q12 5 26 0t21 -20q5 -10 3.5 -20.5t-10.5 -17.5l-111 -91q-11 -9 -19.5 -6.5t-13.5 11.5q-4 11 5 22z" />
    <glyph glyph-name="Iotatonos" unicode="&#x38a;" horiz-adv-x="262" 
d="M90 767q0 17 12 29t29 12t29 -12t12 -29v-726q0 -17 -12 -29t-29 -12t-29 12t-12 29v228v498zM206 999q5 7 10 9q12 5 26 0t21 -20q5 -10 3.5 -20.5t-10.5 -17.5l-111 -91q-11 -9 -19.5 -6.5t-13.5 11.5q-4 11 5 22z" />
    <glyph glyph-name="Omicrontonos" unicode="&#x38c;" horiz-adv-x="592" 
d="M159 208q0 -32 11 -58.5t29.5 -46t43.5 -30.5t53 -11t53 11t43.5 30.5t29.5 46t11 58.5v373q0 32 -11 59t-29.5 46.5t-43.5 30.5t-53 11t-53 -11t-43.5 -30.5t-29.5 -46.5t-11 -59v-373zM296 -20q-46 0 -86 18t-69.5 48.5t-46.5 72t-17 89.5v373q0 47 16.5 88.5t46 72.5
t69 49t85.5 18q47 0 87.5 -18.5t70 -50t46.5 -72.5t17 -87v-373q0 -48 -17 -89.5t-46.5 -72t-69.5 -48.5t-86 -18zM388 999q5 7 10 9q12 5 26 0t21 -20q5 -10 3.5 -20.5t-10.5 -17.5l-111 -91q-11 -9 -19.5 -6.5t-13.5 11.5q-4 11 5 22z" />
    <glyph glyph-name="Upsilontonos" unicode="&#x38e;" horiz-adv-x="534" 
d="M35 732q-3 7 -3 16q0 16 11.5 28.5t29.5 12.5q12 0 22.5 -6.5t15.5 -17.5l145 -332q3 -8 11 -8q7 0 12 8l145 331q10 24 37 24q19 0 30 -12.5t11 -27.5q0 -10 -3 -17l-191 -436v-253q0 -17 -12 -29t-29 -12t-29 12t-12 29v253zM337 998q5 7 10 9q12 5 26 0t21 -20
q5 -10 3.5 -20.5t-10.5 -17.5l-111 -91q-11 -9 -19.5 -6.5t-13.5 11.5q-4 11 5 22z" />
    <glyph glyph-name="Omegatonos" unicode="&#x38f;" horiz-adv-x="902" 
d="M63 42q0 17 12.5 30t29.5 13h100q-63 51 -102 129t-40 186v4q0 101 32.5 176.5t86.5 125.5t123 75t142 25t143.5 -25.5t125 -76t88 -126.5t33.5 -176q0 -91 -31.5 -174t-100.5 -143h92q17 0 29.5 -13t12.5 -30t-12.5 -29.5t-29.5 -12.5h-245q-17 0 -29.5 12.5t-12.5 29.5
q0 30 30 41q43 14 82 41t68 66.5t46 92t17 117.5q0 81 -26 142t-68.5 102t-97 61.5t-111.5 20.5t-111.5 -20.5t-97 -62t-68.5 -103t-26 -142.5q0 -66 17 -118.5t46.5 -91.5t68.5 -65.5t83 -39.5q29 -11 29 -41q0 -17 -12 -29.5t-30 -12.5h-244q-17 0 -29.5 12.5t-12.5 29.5z
M113 797q5 7 10 9q12 5 26 0t21 -20q5 -10 3.5 -20.5t-10.5 -17.5l-111 -91q-11 -9 -19.5 -6.5t-13.5 11.5q-4 11 5 22z" />
    <glyph glyph-name="iotadieresistonos" unicode="&#x390;" horiz-adv-x="485" 
d="M158 497q0 17 12 29t29 12t29 -12t12 -29v-229q0 -53 17 -92t44.5 -64.5t62.5 -37.5t72 -12q17 0 29 -12t12 -29t-12 -29t-29 -12q-51 0 -101 17.5t-89 53.5t-63.5 90t-24.5 127v229zM50 676q0 15 10 27t31 12t31 -12t10 -27t-10 -27t-31 -12t-31 12t-10 27zM337 676
q0 15 10 27t31 12t31 -12t10 -27t-10 -27t-31 -12t-31 12t-10 27zM270 805q5 7 10 9q12 5 26 0t21 -20q5 -10 3.5 -20.5t-10.5 -17.5l-111 -91q-11 -9 -19.5 -6.5t-13.5 11.5q-4 11 5 22z" />
    <glyph glyph-name="Alpha" unicode="&#x391;" 
d="M159 41q0 -17 -12 -29t-29 -12t-29 12t-12 29v479q0 73 24.5 127t63.5 90t89 53.5t101 17.5t101 -17.5t89.5 -53.5t63.5 -90t24 -127v-479q0 -17 -12 -29t-29 -12t-29 12t-12 29v203q0 10 -7 17t-18 7h-343q-10 0 -17 -7t-7 -17v-203zM551 519q0 54 -16.5 93t-44 64.5
t-63 37.5t-72.5 12q-38 0 -73 -12t-62.5 -37.5t-44 -64t-16.5 -92.5v-145q0 -25 24 -25h343q25 0 25 25v144z" />
    <glyph glyph-name="Beta" unicode="&#x392;" horiz-adv-x="662" 
d="M196 355q-10 0 -17 -7t-7 -17v-225q0 -10 7 -17t17 -7h177q37 0 64.5 11.5t45 30.5t26 43.5t8.5 51.5q0 26 -8.5 50.5t-26 43.5t-45 30.5t-64.5 11.5h-177zM90 748q0 17 12 29t29 12h167q65 0 113.5 -21.5t80 -57t47 -80t15.5 -89.5q0 -73 -36 -134q-2 -2 -2 -7
q0 -6 5 -11q39 -32 58.5 -77t19.5 -93q0 -41 -14 -80t-42 -70t-70.5 -50t-99.5 -19h-242q-17 0 -29 12t-12 29v707zM196 707q-10 0 -17 -7t-7 -18v-220q0 -11 7 -18t17 -7h177q30 0 57 -6q4 0 6 2q36 46 36 108q0 31 -10 61t-31.5 53.5t-54.5 37.5t-78 14h-102z" />
    <glyph glyph-name="Gamma" unicode="&#x393;" horiz-adv-x="558" 
d="M517 789q17 0 29 -12t12 -29t-12 -29t-29 -12h-324q-14 0 -24.5 -10.5t-10.5 -24.5v-443q0 -24 7 -49t20 -48t31 -42.5t39 -32.5q19 -13 19 -35q0 -16 -12 -28.5t-29 -12.5q-14 0 -29.5 10t-30.5 24.5t-28 30.5t-21 29q-21 33 -34 70.5t-13 79.5v523q0 17 11.5 29
t28.5 12h400z" />
    <glyph glyph-name="Delta" unicode="&#x394;" horiz-adv-x="794" 
d="M47 0q-11 0 -17 6t-6 15q0 11 4 18l350 730q7 16 19 16q10 0 19 -16l349 -730q5 -10 5 -18q0 -21 -23 -21h-700zM582 93q16 0 24 8t8 22q0 11 -5 23l-185 392q-10 22 -28 22q-17 0 -26 -22q-45 -96 -92.5 -196t-92.5 -196q-2 -5 -4 -10.5t-2 -12.5q0 -14 8 -22t25 -8h370
z" />
    <glyph glyph-name="Delta" unicode="&#x2206;" horiz-adv-x="794" 
d="M47 0q-11 0 -17 6t-6 15q0 11 4 18l350 730q7 16 19 16q10 0 19 -16l349 -730q5 -10 5 -18q0 -21 -23 -21h-700zM582 93q16 0 24 8t8 22q0 11 -5 23l-185 392q-10 22 -28 22q-17 0 -26 -22q-45 -96 -92.5 -196t-92.5 -196q-2 -5 -4 -10.5t-2 -12.5q0 -14 8 -22t25 -8h370
z" />
    <glyph glyph-name="Epsilon" unicode="&#x395;" horiz-adv-x="607" 
d="M491 -236q-20 -1 -30.5 11.5t-11 28.5t9.5 29t31 13q33 0 55.5 23t22.5 55t-23 55.5t-55 23.5q-8 0 -15 -2t-15 -4q-12 -5 -23.5 -8.5t-24.5 -5.5q-32 -6 -65 -3.5t-65 12.5t-60.5 27t-50.5 40q-83 86 -83 210v248q0 124 83 210q27 28 65.5 48t81.5 28t85.5 3t77.5 -27
q15 -9 20.5 -22t3 -25t-13 -20.5t-28.5 -7.5q-12 1 -23.5 5.5t-22.5 8.5q-24 8 -52 8q-45 0 -80.5 -17.5t-60 -47t-37 -68t-12.5 -80.5t21.5 -62.5t61.5 -20.5h32q16 0 29.5 -9.5t13.5 -26.5q0 -19 -13 -28t-30 -9h-32q-45 0 -64 -23t-19 -65q0 -40 13 -77.5t39 -68.5
q28 -33 61.5 -47.5t76.5 -14.5q29 -2 52 7q20 7 35.5 12t37.5 5q33 0 62.5 -12.5t51 -34.5t34.5 -51.5t13 -62.5q0 -34 -12.5 -62.5t-34 -50t-51 -34t-62.5 -13.5z" />
    <glyph glyph-name="Zeta" unicode="&#x396;" horiz-adv-x="635" 
d="M63 -1q-12 0 -21.5 8.5t-9.5 26.5q0 11 6 20l449 651h-414q-17 0 -28.5 11.5t-11.5 27.5q0 18 11.5 29.5t28.5 11.5h487q16 0 25.5 -10.5t9.5 -24.5q0 -11 -6 -20l-449 -651h420q24 0 33.5 -15.5t9.5 -36.5q0 -53 -19 -104.5t-54 -92t-85 -66t-113 -25.5q-14 0 -27 1.5
t-23.5 6t-17 13t-6.5 22.5q0 18 12 29.5t28 11.5l33 -2q40 0 73 15t57.5 39.5t39.5 56.5t19 67h-457z" />
    <glyph glyph-name="Eta" unicode="&#x397;" horiz-adv-x="736" 
d="M564 748q0 17 12 29t29 12t29 -12t12 -29v-707q0 -17 -12 -29t-29 -12t-29 12t-12 29v207q0 8 -6 14t-15 6h-351q-8 0 -14 -6t-6 -14v-207q0 -17 -12 -29t-29 -12t-29 12t-12 29v707q0 17 12 29t29 12t29 -12t12 -29v-377q0 -8 6 -14.5t14 -6.5h351q9 0 15 6.5t6 14.5
v377z" />
    <glyph glyph-name="Theta" unicode="&#x398;" horiz-adv-x="920" 
d="M460 725q-60 0 -117 -20t-102 -60.5t-72 -103t-27 -147.5q0 -86 27.5 -148.5t72 -103t101.5 -60.5t117 -20q59 0 116 20t102 60.5t72.5 103t27.5 148.5q0 85 -27.5 147.5t-72.5 103t-102 60.5t-116 20zM60 394q0 105 34.5 182.5t91 129t128.5 76.5t146 25q73 0 145 -25
t128.5 -76.5t91.5 -129t35 -182.5t-35 -183t-91.5 -129.5t-128.5 -76.5t-145 -25q-74 0 -145.5 25t-128 76.5t-91.5 129.5t-35 183zM302 395q0 15 10.5 25t24.5 10h245q15 0 25 -10t10 -25q0 -14 -10 -24.5t-25 -10.5h-245q-14 0 -24.5 10.5t-10.5 24.5z" />
    <glyph glyph-name="Iota" unicode="&#x399;" horiz-adv-x="262" 
d="M90 767q0 17 12 29t29 12t29 -12t12 -29v-726q0 -17 -12 -29t-29 -12t-29 12t-12 29v228v498z" />
    <glyph glyph-name="Kappa" unicode="&#x39a;" horiz-adv-x="527" 
d="M477 60q4 -7 4 -19q0 -15 -11 -28t-29 -13q-11 0 -21.5 5.5t-15.5 16.5l-232 455v-436q0 -17 -12 -29t-29 -12t-29 12t-12 29v707q0 17 12 29t29 12t29 -12t12 -29v-20q40 39 93 59.5t110 20.5q11 0 22.5 -1t20.5 -5.5t14.5 -12.5t5.5 -22q0 -17 -12 -29.5t-33 -12.5
q-5 1 -9.5 1h-9.5q-27 0 -54 -7t-51.5 -20.5t-44.5 -33.5t-33 -45z" />
    <glyph glyph-name="Lambda" unicode="&#x39b;" horiz-adv-x="744" 
d="M334 762q5 11 14.5 18.5t23.5 7.5q13 0 23.5 -7t14.5 -19l307 -705q3 -8 3 -17q0 -15 -11 -27.5t-30 -12.5q-27 0 -37 24l-258 594q-5 8 -12 8q-8 0 -11 -8l-258 -594q-5 -11 -15.5 -17.5t-22.5 -6.5q-18 0 -29.5 12.5t-11.5 28.5q0 8 3 16z" />
    <glyph glyph-name="Mu" unicode="&#x39c;" horiz-adv-x="1184" 
d="M159 41q0 -17 -12 -29t-29 -12t-29 12t-12 29v479q0 73 24.5 127t63.5 90t89 53.5t101 17.5q69 0 133.5 -31.5t103.5 -95.5q39 64 103.5 95.5t133.5 31.5q51 0 101 -17.5t89 -53.5t63.5 -90t24.5 -127v-479q0 -17 -12 -29t-29 -12t-29 12t-12 29v479q0 54 -16.5 92.5
t-44 64t-63 37.5t-72.5 12q-38 0 -73 -12t-62.5 -37.5t-44 -64t-16.5 -92.5v-212q0 -17 -12 -29t-29 -12t-29 12t-12 29v213q0 53 -16.5 92t-44 64t-63 37t-72.5 12q-38 0 -73 -12t-62.5 -37.5t-44 -64t-16.5 -92.5v-479z" />
    <glyph glyph-name="Nu" unicode="&#x39d;" horiz-adv-x="746" 
d="M353 808q75 0 135.5 -35t97.5 -95q7 11 20 27t28 30.5t31 24.5t30 10q19 0 31 -12t12 -30q0 -13 -9 -21t-22.5 -18t-30 -26t-30.5 -44q-7 -15 -11.5 -35.5t-4.5 -43.5v-501q0 -21 -12 -30t-32 -9q-43 0 -43 39v485q0 41 -14.5 78t-40 65t-60.5 44.5t-75 16.5
q-41 0 -75.5 -16.5t-60 -45t-39.5 -66t-14 -79.5v-482q0 -20 -12.5 -29.5t-33.5 -9.5q-41 0 -41 39v482q0 60 21.5 112t58.5 91t87.5 61.5t108.5 22.5z" />
    <glyph glyph-name="Xi" unicode="&#x39e;" horiz-adv-x="633" 
d="M488 430q14 0 24.5 -10.5t10.5 -24.5q0 -15 -10.5 -25t-24.5 -10h-342q-14 0 -24.5 10t-10.5 25q0 14 10.5 24.5t24.5 10.5h342zM100 707q-17 0 -29 12t-12 29t12 29t29 12h434q17 0 29 -12t12 -29t-12 -29t-29 -12h-434zM87 0q-17 0 -29 12t-12 29t12 29t29 12h459
q17 0 29 -12t12 -29t-12 -29t-29 -12h-459z" />
    <glyph glyph-name="Omicron" unicode="&#x39f;" horiz-adv-x="592" 
d="M159 208q0 -32 11 -58.5t29.5 -46t43.5 -30.5t53 -11t53 11t43.5 30.5t29.5 46t11 58.5v373q0 32 -11 59t-29.5 46.5t-43.5 30.5t-53 11t-53 -11t-43.5 -30.5t-29.5 -46.5t-11 -59v-373zM296 -20q-46 0 -86 18t-69.5 48.5t-46.5 72t-17 89.5v373q0 47 16.5 88.5t46 72.5
t69 49t85.5 18q47 0 87.5 -18.5t70 -50t46.5 -72.5t17 -87v-373q0 -48 -17 -89.5t-46.5 -72t-69.5 -48.5t-86 -18z" />
    <glyph glyph-name="Pi" unicode="&#x3a0;" horiz-adv-x="608" 
d="M474 0q-18 0 -30.5 12.5t-12.5 30.5v634q0 10 -7 17t-18 7h-205q-10 0 -17 -7t-7 -17v-634q0 -18 -12.5 -30.5t-30.5 -12.5q-19 0 -31.5 12.5t-12.5 30.5v702q0 18 12.5 30.5t30.5 12.5h341q18 0 31 -12.5t13 -30.5v-702q0 -18 -13 -30.5t-31 -12.5z" />
    <glyph glyph-name="Rho" unicode="&#x3a1;" horiz-adv-x="692" 
d="M90 748q0 17 12 29t29 12h237q51 0 101 -17.5t89 -53.5t63.5 -90t24.5 -127t-24.5 -127t-63.5 -89.5t-89 -53t-101 -17.5q-80 0 -150 40q-10 7 -22 7q-24 0 -24 -29v-191q0 -17 -12 -29t-29 -12t-29 12t-12 29v707zM192 707q-8 -1 -14 -7t-6 -14v-185q0 -53 16.5 -92
t44 -64t62.5 -37t73 -12q37 0 72.5 12t63 37t44 64t16.5 92t-16.5 92t-44 64.5t-63 37.5t-72.5 12h-176z" />
    <glyph glyph-name="Sigma" unicode="&#x3a3;" horiz-adv-x="513" 
d="M428 788q18 0 30.5 -12.5t12.5 -30.5t-12.5 -31t-30.5 -13h-233q-13 0 -13 -12q0 -1 2 -7l139 -231q6 -11 6 -22q0 -9 -5 -21l-154 -303l-2 -6q0 -12 13 -12h256q18 0 31 -13t13 -31t-13 -30.5t-31 -12.5h-347q-20 0 -32 13.5t-12 29.5q0 8 5 20l175 344q5 12 5 18
q0 11 -6 22l-166 275q-6 10 -6 23q0 17 11.5 30t31.5 13h332z" />
    <glyph glyph-name="Tau" unicode="&#x3a4;" horiz-adv-x="508" 
d="M295 41q0 -17 -12 -29t-29 -12t-29 12t-12 29v631q0 14 -10.5 24.5t-24.5 10.5h-129q-17 0 -29 12t-12 29t12 29t29 12h410q17 0 29 -12t12 -29t-12 -29t-29 -12h-129q-14 0 -24.5 -10.5t-10.5 -24.5v-631z" />
    <glyph glyph-name="Upsilon" unicode="&#x3a5;" horiz-adv-x="534" 
d="M35 732q-3 7 -3 16q0 16 11.5 28.5t29.5 12.5q12 0 22.5 -6.5t15.5 -17.5l145 -332q3 -8 11 -8q7 0 12 8l145 331q10 24 37 24q19 0 30 -12.5t11 -27.5q0 -10 -3 -17l-191 -436v-253q0 -17 -12 -29t-29 -12t-29 12t-12 29v253z" />
    <glyph glyph-name="Phi" unicode="&#x3a6;" horiz-adv-x="920" 
d="M520 66q51 9 97.5 33t82.5 64.5t57 97.5t21 131q0 75 -21 132t-57 97.5t-82.5 64.5t-97.5 33q-11 2 -18 -6t-7 -18v-606q0 -10 7 -17.5t18 -5.5zM400 719q-51 -9 -98 -33t-82.5 -64.5t-56.5 -97.5t-21 -132q0 -74 21 -131t57 -97.5t82.5 -64.5t97.5 -33q10 -2 17.5 5.5
t7.5 17.5v606q0 11 -7.5 18.5t-17.5 5.5zM60 392q0 96 28.5 168.5t76.5 123t110 80t129 38.5q9 2 15 9t6 16v6q0 14 10 24.5t25 10.5q14 0 24.5 -10.5t10.5 -24.5v-6q0 -20 21 -25q66 -9 128 -38.5t110 -80t77 -123t29 -168.5q0 -95 -29 -167.5t-77 -123.5t-110 -80.5
t-128 -38.5q-10 -1 -15.5 -8t-5.5 -16v-6q0 -14 -10.5 -24.5t-24.5 -10.5q-15 0 -25 10.5t-10 24.5v6q0 9 -6 16t-15 8q-66 9 -128 38.5t-110 80.5t-77 123.5t-29 167.5z" />
    <glyph glyph-name="Chi" unicode="&#x3a7;" horiz-adv-x="883" 
d="M473 298q-7 8 -16.5 10.5t-17.5 3.5q-20 0 -34 -14l-265 -285q-13 -13 -29 -13q-17 0 -29.5 12.5t-12.5 29.5q0 13 11 27l270 290q13 16 13 35q0 23 -13 36l-236 252q-14 15 -31.5 25t-40.5 18q-11 4 -18.5 13t-7.5 23q0 25 13.5 36t27.5 11q7 0 15 -3q31 -13 56.5 -29
t45.5 -37l231 -248q7 -8 16 -11t18 -3q20 0 34 14l266 285q12 13 30 13q17 0 29 -12t12 -28q0 -15 -11 -29l-270 -290q-13 -14 -14 -36q0 -18 14 -35l235 -254q11 -11 24 -20.5t30 -18.5q6 -3 14.5 -7t16 -9.5t13 -13.5t5.5 -20q0 -18 -13.5 -27.5t-27.5 -9.5
q-17 0 -34.5 7.5t-34 18.5t-31 23.5t-24.5 23.5z" />
    <glyph glyph-name="Psi" unicode="&#x3a8;" horiz-adv-x="681" 
d="M535 586q0 24 0.5 46t4 43t11.5 41t23 41q11 16 24 33t31 17q16 0 29.5 -10.5t14.5 -30.5q0 -14 -11 -28q-17 -22 -26 -38.5t-13.5 -32t-5 -33t-0.5 -41.5v-56q0 -50 -15.5 -95.5t-43.5 -83t-67.5 -64t-87.5 -37.5q-9 -2 -15.5 -8.5t-6.5 -16.5v-191q0 -17 -12 -29
t-29 -12t-29 12t-12 29v191q0 21 -22 25q-48 11 -87.5 37.5t-67 64t-43 83t-15.5 95.5v50q0 27 -0.5 46t-5 35t-13.5 32t-26 38q-5 7 -8 13t-3 14q0 17 12.5 29.5t29.5 12.5q16 0 30 -15q22 -24 35 -48t20 -49t9 -52t2 -58v-46q0 -33 9.5 -64.5t27.5 -57.5t43.5 -46
t57.5 -30q8 -1 11.5 2.5t3.5 8.5v299q0 20 12.5 30t28.5 10q15 0 28 -10t13 -30v-299q0 -12 16 -11q31 10 56.5 29.5t43.5 46t28 58t10 111.5z" />
    <glyph glyph-name="Omega" unicode="&#x3a9;" horiz-adv-x="902" 
d="M63 42q0 17 12.5 30t29.5 13h100q-63 51 -102 129t-40 186v4q0 101 32.5 176.5t86.5 125.5t123 75t142 25t143.5 -25.5t125 -76t88 -126.5t33.5 -176q0 -91 -31.5 -174t-100.5 -143h92q17 0 29.5 -13t12.5 -30t-12.5 -29.5t-29.5 -12.5h-245q-17 0 -29.5 12.5t-12.5 29.5
q0 30 30 41q43 14 82 41t68 66.5t46 92t17 117.5q0 81 -26 142t-68.5 102t-97 61.5t-111.5 20.5t-111.5 -20.5t-97 -62t-68.5 -103t-26 -142.5q0 -66 17 -118.5t46.5 -91.5t68.5 -65.5t83 -39.5q29 -11 29 -41q0 -17 -12 -29.5t-30 -12.5h-244q-17 0 -29.5 12.5t-12.5 29.5z
" />
    <glyph glyph-name="Omega" unicode="&#x2126;" horiz-adv-x="902" 
d="M63 42q0 17 12.5 30t29.5 13h100q-63 51 -102 129t-40 186v4q0 101 32.5 176.5t86.5 125.5t123 75t142 25t143.5 -25.5t125 -76t88 -126.5t33.5 -176q0 -91 -31.5 -174t-100.5 -143h92q17 0 29.5 -13t12.5 -30t-12.5 -29.5t-29.5 -12.5h-245q-17 0 -29.5 12.5t-12.5 29.5
q0 30 30 41q43 14 82 41t68 66.5t46 92t17 117.5q0 81 -26 142t-68.5 102t-97 61.5t-111.5 20.5t-111.5 -20.5t-97 -62t-68.5 -103t-26 -142.5q0 -66 17 -118.5t46.5 -91.5t68.5 -65.5t83 -39.5q29 -11 29 -41q0 -17 -12 -29.5t-30 -12.5h-244q-17 0 -29.5 12.5t-12.5 29.5z
" />
    <glyph glyph-name="Iotadieresis" unicode="&#x3aa;" horiz-adv-x="262" 
d="M90 767q0 17 12 29t29 12t29 -12t12 -29v-726q0 -17 -12 -29t-29 -12t-29 12t-12 29v228v498zM10 947q0 15 10 27t31 12t31 -12t10 -27t-10 -27t-31 -12t-31 12t-10 27zM170 947q0 15 10 27t31 12t31 -12t10 -27t-10 -27t-31 -12t-31 12t-10 27z" />
    <glyph glyph-name="Upsilondieresis" unicode="&#x3ab;" horiz-adv-x="534" 
d="M35 732q-3 7 -3 16q0 16 11.5 28.5t29.5 12.5q12 0 22.5 -6.5t15.5 -17.5l145 -332q3 -8 11 -8q7 0 12 8l145 331q10 24 37 24q19 0 30 -12.5t11 -27.5q0 -10 -3 -17l-191 -436v-253q0 -17 -12 -29t-29 -12t-29 12t-12 29v253zM146 888q0 15 10 27t31 12t31 -12t10 -27
t-10 -27t-31 -12t-31 12t-10 27zM306 888q0 15 10 27t31 12t31 -12t10 -27t-10 -27t-31 -12t-31 12t-10 27z" />
    <glyph glyph-name="alphatonos" unicode="&#x3ac;" horiz-adv-x="724" 
d="M534 267q0 53 -17 92t-44.5 65t-62.5 38.5t-72 12.5t-72 -13t-62.5 -39.5t-44.5 -65.5t-17 -90t17 -89.5t44.5 -65t62.5 -39.5t72 -13t72.5 12.5t63 38.5t44 64.5t16.5 91.5zM610 196q-1 -14 -1 -21q0 -41 14.5 -68t44.5 -62q10 -11 9.5 -27t-12.5 -28t-28.5 -12
t-30 13.5t-24.5 29t-19.5 29t-14.5 13.5t-11 -5q-40 -40 -92 -59.5t-107 -19.5q-52 0 -102 17.5t-89 53.5t-63 90t-24 127q0 72 24 126.5t63 90.5t89 54.5t102 18.5q55 0 107 -19.5t92 -61.5q5 -5 11.5 -5t15 13.5t19.5 29t24.5 29t28.5 13.5q17 0 29 -12t12 -29
q0 -15 -9 -25q-15 -18 -26 -33t-18.5 -30t-11 -31.5t-3.5 -36.5t3.5 -43.5t3.5 -48.5q0 -17 -1.5 -32.5t-4.5 -38.5zM408 746q5 7 10 9q12 5 26 0t21 -20q5 -10 3.5 -20.5t-10.5 -17.5l-111 -91q-11 -9 -19.5 -6.5t-13.5 11.5q-4 11 5 22z" />
    <glyph glyph-name="epsilontonos" unicode="&#x3ad;" horiz-adv-x="529" 
d="M425 80q7 4 17 4q17 0 29 -12t12 -29q0 -26 -24 -37q-29 -14 -59.5 -20t-61.5 -6q-51 0 -101 17.5t-89 53.5t-63.5 90t-24.5 127t24 127t63.5 89.5t89.5 53t101 17.5q66 0 120 -25q11 -5 18 -15t7 -23q0 -17 -12 -29t-29 -12q-10 0 -17 4q-41 18 -87 18
q-58 0 -107.5 -28.5t-73.5 -89.5q-8 -28 5 -40.5t28 -12.5h148q15 0 25 -10t10 -25q0 -14 -10 -24.5t-25 -10.5h-147q-16 0 -29.5 -12.5t-4.5 -40.5q24 -60 74 -88.5t107 -28.5q46 0 87 18zM451 727q6 3 13 3q13 0 23.5 -10.5t10.5 -26.5q0 -11 -6 -20t-17 -12l-139 -35
q-13 -3 -20 2.5t-7 15.5q0 13 13 19z" />
    <glyph glyph-name="etatonos" unicode="&#x3ae;" horiz-adv-x="716" 
d="M167 515q8 -14 22 -14q7 0 15 5q73 50 164 50q51 0 101 -17.5t89.5 -53t63.5 -89.5t24 -127v-491q0 -17 -12 -29t-29 -12t-29 12t-12 29v490q0 54 -16.5 92.5t-44 64t-63 37.5t-72.5 12t-72 -12t-62.5 -37t-44.5 -63.5t-17 -91.5v-229q0 -17 -12 -29t-29 -12t-29 12
t-12 29v455q0 17 12 29t29 12q26 0 36 -22zM427 741q5 7 10 9q12 5 26 0t21 -20q5 -10 3.5 -20.5t-10.5 -17.5l-111 -91q-11 -9 -19.5 -6.5t-13.5 11.5q-4 11 5 22z" />
    <glyph glyph-name="iotatonos" unicode="&#x3af;" horiz-adv-x="440" 
d="M66 497q0 17 12 29t29 12t29 -12t12 -29v-229q0 -53 17 -92t44.5 -64.5t62.5 -37.5t72 -12q17 0 29 -12t12 -29t-12 -29t-29 -12q-51 0 -101 17.5t-89 53.5t-63.5 90t-24.5 127v229zM184 771q5 7 10 9q12 5 26 0t21 -20q5 -10 3.5 -20.5t-10.5 -17.5l-111 -91
q-11 -9 -19.5 -6.5t-13.5 11.5q-4 11 5 22z" />
    </font>
</defs>
</svg>
