<?xml version="1.0" encoding="utf-8"?>
<!-- Generator: Adobe Illustrator 18.1.1, SVG Export Plug-In . SVG Version: 6.00 Build 0)  -->
<svg version="1.1" id="Capa_1" xmlns="http://www.w3.org/2000/svg" xmlns:xlink="http://www.w3.org/1999/xlink" x="0px" y="0px"
	 viewBox="0 0 100 100" enable-background="new 0 0 100 100" xml:space="preserve">
<g>
	<g>
		<path fill="#146BA7" d="M46.4,44.2c-0.3,0.3-0.7,0.4-1.1,0.4c0,0,0,0-0.1,0c-0.4,0-0.8-0.2-1.1-0.5l-7.4-8.4
			c-0.6-0.7-0.5-1.6,0.1-2.2c0.6-0.6,1.6-0.5,2.2,0.1l6.3,7.1l4.6-4.5V1.6l0,0L16.6,34.9L50,68.3l0,0V40.7L46.4,44.2z"/>
	</g>
	<g>
		<path fill="#155E91" d="M50,1.6v34.8l11.1-10.7c0.6-0.6,1.6-0.6,2.2,0c0.6,0.6,0.6,1.6,0,2.2L50,40.7v27.6l33.4-33.4L50,1.6z"/>
	</g>
</g>
<g>
	<path fill="#155E91" d="M82.6,92.8c-0.4,0.4-1,0.6-1.6,0.5l-10.6-2.8l-5.8,9c-0.3,0.5-0.8,0.7-1.3,0.7c-0.1,0-0.1,0-0.2,0
		c-0.6-0.1-1.1-0.5-1.3-1.1L53,71.8c-0.2-0.6,0-1.2,0.4-1.6l14.7-14.5c0.4-0.4,0.9-0.5,1.5-0.4c0.5,0.1,1,0.5,1.1,1l12.2,35
		C83.1,91.8,83,92.4,82.6,92.8z"/>
</g>
<g>
	<g>
		<path d="M82.9,91.2l-12.2-35c-0.2-0.5-0.6-0.9-1.1-1c-0.5-0.1-1.1,0-1.5,0.4L53.4,70.2c-0.4,0.4-0.6,1-0.4,1.6l8.8,27.3
			c0.2,0.6,0.7,1,1.3,1.1c0.1,0,0.1,0,0.2,0c0.5,0,1-0.3,1.3-0.7l5.8-9L81,93.3c0.6,0.1,1.2,0,1.6-0.5C83,92.4,83.1,91.8,82.9,91.2z
			 M70.1,87.2c-0.7-0.2-1.4,0.1-1.7,0.7L63.8,95l-7.5-23.3l12.2-12.1l10.4,29.8L70.1,87.2z"/>
	</g>
</g>
<g>
	<path fill="#155E91" d="M17.1,92.8c0.4,0.4,1,0.6,1.6,0.5l10.6-2.8l5.8,9c0.3,0.5,0.8,0.7,1.3,0.7c0.1,0,0.1,0,0.2,0
		c0.6-0.1,1.1-0.5,1.3-1.1l8.8-27.3c0.2-0.6,0-1.2-0.4-1.6L31.6,55.7c-0.4-0.4-0.9-0.5-1.5-0.4c-0.5,0.1-1,0.5-1.1,1l-12.2,35
		C16.6,91.8,16.7,92.4,17.1,92.8z"/>
</g>
<g>
	<g>
		<path d="M17.1,92.8c0.4,0.4,1,0.6,1.6,0.5l10.6-2.8l5.8,9c0.3,0.5,0.8,0.7,1.3,0.7c0.1,0,0.1,0,0.2,0c0.6-0.1,1.1-0.5,1.3-1.1
			l8.8-27.3c0.2-0.6,0-1.2-0.4-1.6L31.6,55.7c-0.4-0.4-0.9-0.5-1.5-0.4c-0.5,0.1-1,0.5-1.1,1l-12.2,35
			C16.6,91.8,16.7,92.4,17.1,92.8z M20.8,89.5l10.4-29.8l12.2,12.1L35.9,95l-4.6-7.2c-0.4-0.6-1.1-0.8-1.7-0.7L20.8,89.5z"/>
	</g>
</g>
<g>
	<path d="M50,69.9c-0.4,0-0.8-0.2-1.1-0.5L15.5,36c-0.6-0.6-0.6-1.6,0-2.2L48.9,0.4c0.6-0.6,1.6-0.6,2.2,0l33.4,33.4
		c0.3,0.3,0.5,0.7,0.5,1.1c0,0.4-0.2,0.8-0.5,1.1L51.1,69.4C50.8,69.7,50.4,69.9,50,69.9z M18.9,34.9L50,66l31.1-31.1L50,3.8
		L18.9,34.9z"/>
</g>
</svg>
