<?xml version="1.0" encoding="utf-8"?>
<!-- Generator: Adobe Illustrator 18.1.1, SVG Export Plug-In . SVG Version: 6.00 Build 0)  -->
<svg version="1.1" id="Capa_1" xmlns="http://www.w3.org/2000/svg" xmlns:xlink="http://www.w3.org/1999/xlink" x="0px" y="0px"
	 viewBox="0 0 100 100" enable-background="new 0 0 100 100" xml:space="preserve">
<g>
	<g>
		<g>
			<polygon fill="#146BA7" points="11.8,21.1 11.8,73.5 21.6,82.2 49.5,82.2 49.5,21.1 			"/>
		</g>
	</g>
	<g>
		<g>
			<rect x="49.5" y="21.1" fill="#155E91" width="38.7" height="61.1"/>
		</g>
	</g>
</g>
<g>
	<g>
		<g>
			<polygon fill="#124F7B" points="11.8,73.5 21.6,73.5 21.6,82.2 			"/>
		</g>
	</g>
	<g>
		<g>
			<path d="M21.6,83.6c-0.3,0-0.7-0.1-0.9-0.3l-9.8-8.7c-0.4-0.4-0.6-1-0.4-1.5c0.2-0.5,0.7-0.9,1.3-0.9h9.8c0.8,0,1.4,0.6,1.4,1.4
				v8.7c0,0.5-0.3,1-0.8,1.3C22,83.6,21.8,83.6,21.6,83.6z M15.5,74.9l4.8,4.2v-4.2H15.5z"/>
		</g>
	</g>
</g>
<g>
	<g>
		<g>
			<circle fill="#FFFFFF" cx="29.7" cy="29.7" r="3.3"/>
		</g>
	</g>
</g>
<g>
	<g>
		<g>
			<circle fill="#FFFFFF" cx="70.8" cy="29.7" r="3.3"/>
		</g>
	</g>
</g>
<g>
	<g>
		<g>
			<g>
				<path fill="#FFFFFF" d="M83.4,41H15.5c-0.8,0-1.4-0.6-1.4-1.4c0-0.8,0.6-1.4,1.4-1.4h67.9c0.8,0,1.4,0.6,1.4,1.4
					C84.8,40.4,84.2,41,83.4,41z"/>
			</g>
		</g>
	</g>
</g>
<g>
	<path fill="#FFFFFF" d="M79.8,49.7H20.4c-0.8,0-1.4,0.6-1.4,1.4v11.5c0,0.8,0.6,1.4,1.4,1.4h10V74c0,0.8,0.6,1.4,1.4,1.4h48
		c0.8,0,1.4-0.6,1.4-1.4V62.5V51.1C81.2,50.3,80.6,49.7,79.8,49.7z M33.2,52.5h8.9v8.7h-8.9V52.5z M53.7,61.1h-8.9v-8.7h8.9V61.1z
		 M44.8,63.9h8.9v8.7h-8.9V63.9z M56.5,63.9h9.3v8.7h-9.3V63.9z M65.7,61.1h-9.3v-8.7h9.3V61.1z M21.8,61.1v-8.7h8.6v8.7H21.8z
		 M33.2,63.9h8.9v8.7h-8.9V63.9z M78.4,72.6h-9.9v-8.7h9.9V72.6z M78.4,61.1h-9.9v-8.7h9.9V61.1z"/>
</g>
<g>
	<path fill="none" stroke="#1D1D1B" stroke-width="7" stroke-linecap="round" stroke-linejoin="round" stroke-miterlimit="10" d="
		M26.4,21.1"/>
</g>
<g>
	<path d="M66.4,22.7H34.2c-0.9,0-1.6-0.7-1.6-1.6c0-0.9,0.7-1.6,1.6-1.6h32.2c0.9,0,1.6,0.7,1.6,1.6C68,22,67.3,22.7,66.4,22.7z"/>
</g>
<g>
	<path d="M88.2,83.8H21.6c-0.9,0-1.6-0.7-1.6-1.6v-8.5h-8.2c-0.9,0-1.6-0.7-1.6-1.6v-51c0-0.9,0.7-1.6,1.6-1.6h13.1
		c0.9,0,1.6,0.7,1.6,1.6c0,0.9-0.7,1.6-1.6,1.6H13.4v47.8h8.2c0.9,0,1.6,0.7,1.6,1.6v8.5h63.4V22.7H75.3c-0.9,0-1.6-0.7-1.6-1.6
		c0-0.9,0.7-1.6,1.6-1.6h12.9c0.9,0,1.6,0.7,1.6,1.6v61.1C89.8,83.1,89.1,83.8,88.2,83.8z"/>
</g>
<g>
	<path d="M70.8,30c-0.9,0-1.6-0.7-1.6-1.6V17.8c0-0.9,0.7-1.6,1.6-1.6c0.9,0,1.6,0.7,1.6,1.6v10.6C72.4,29.3,71.7,30,70.8,30z"/>
</g>
<g>
	<path d="M29.7,30c-0.9,0-1.6-0.7-1.6-1.6V17.8c0-0.9,0.7-1.6,1.6-1.6c0.9,0,1.6,0.7,1.6,1.6v10.6C31.3,29.3,30.6,30,29.7,30z"/>
</g>
</svg>
