<?xml version="1.0" encoding="utf-8"?>
<!-- Generator: Adobe Illustrator 18.1.1, SVG Export Plug-In . SVG Version: 6.00 Build 0)  -->
<svg version="1.1" id="Capa_1" xmlns="http://www.w3.org/2000/svg" xmlns:xlink="http://www.w3.org/1999/xlink" x="0px" y="0px"
	 viewBox="0 0 100 100" enable-background="new 0 0 100 100" xml:space="preserve">
<g>
	<g>
		<polygon fill="#146BA7" points="15.2,1.8 15.2,85 23.9,92.7 47.5,92.7 47.5,1.8 		"/>
	</g>
	<g>
		<rect x="47.5" y="1.8" fill="#155E91" width="32.3" height="91"/>
	</g>
</g>
<g>
	<path d="M79.8,94.3H23.9c-0.4,0-0.8-0.1-1-0.4l-8.7-7.7c-0.3-0.3-0.5-0.7-0.5-1.2V1.8c0-0.9,0.7-1.6,1.6-1.6h64.6
		c0.9,0,1.6,0.7,1.6,1.6v91C81.4,93.6,80.7,94.3,79.8,94.3z M24.5,91.1h53.8V3.3H16.8v81L24.5,91.1z"/>
</g>
<g>
	<g>
		<g>
			<polygon fill="#124F7B" points="15.4,84.1 25.1,84.1 25.1,92.7 			"/>
		</g>
	</g>
	<g>
		<g>
			<path d="M25.1,94.1c-0.3,0-0.7-0.1-0.9-0.3l-9.7-8.6c-0.4-0.4-0.6-1-0.4-1.5c0.2-0.5,0.7-0.9,1.3-0.9h9.7c0.8,0,1.4,0.6,1.4,1.4
				v8.6c0,0.5-0.3,1-0.8,1.3C25.5,94.1,25.3,94.1,25.1,94.1z M19,85.5l4.7,4.2v-4.2H19z"/>
		</g>
	</g>
</g>
<g>
	<path d="M84.8,99.3H25.1c-0.9,0-1.6-0.7-1.6-1.6c0-0.9,0.7-1.6,1.6-1.6h58.1V6.7c0-0.9,0.7-1.6,1.6-1.6c0.9,0,1.6,0.7,1.6,1.6v91
		C86.4,98.5,85.7,99.3,84.8,99.3z"/>
</g>
<g>
	<path fill="#FFFFFF" d="M59.7,18.4H37.1c-0.9,0-1.6-0.7-1.6-1.6c0-0.9,0.7-1.6,1.6-1.6h22.6c0.9,0,1.6,0.7,1.6,1.6
		C61.2,17.7,60.5,18.4,59.7,18.4z"/>
</g>
<g>
	<path fill="#FFFFFF" d="M67.3,38.8H29.3c-0.9,0-1.6-0.7-1.6-1.6c0-0.9,0.7-1.6,1.6-1.6h38.1c0.9,0,1.6,0.7,1.6,1.6
		C68.9,38.1,68.2,38.8,67.3,38.8z"/>
</g>
<g>
	<path fill="#FFFFFF" d="M67.3,51.5H29.3c-0.9,0-1.6-0.7-1.6-1.6c0-0.9,0.7-1.6,1.6-1.6h38.1c0.9,0,1.6,0.7,1.6,1.6
		C68.9,50.8,68.2,51.5,67.3,51.5z"/>
</g>
<g>
	<path fill="#FFFFFF" d="M67.3,64.3H29.3c-0.9,0-1.6-0.7-1.6-1.6c0-0.9,0.7-1.6,1.6-1.6h38.1c0.9,0,1.6,0.7,1.6,1.6
		C68.9,63.6,68.2,64.3,67.3,64.3z"/>
</g>
</svg>
