<?xml version="1.0" encoding="utf-8"?>
<!-- Generator: Adobe Illustrator 18.1.1, SVG Export Plug-In . SVG Version: 6.00 Build 0)  -->
<svg version="1.1" id="Capa_1" xmlns="http://www.w3.org/2000/svg" xmlns:xlink="http://www.w3.org/1999/xlink" x="0px" y="0px"
	 viewBox="0 0 100 100" enable-background="new 0 0 100 100" xml:space="preserve">
<g>
	<g>
		<g>
			<polygon fill="#146BA7" points="10.5,21.9 10.5,75.6 11,84.5 20.6,84.5 49.1,84.5 49.1,21.9 			"/>
		</g>
	</g>
	<g>
		<g>
			<rect x="49.1" y="21.9" fill="#155E91" width="39.7" height="62.6"/>
		</g>
	</g>
</g>
<g>
	<g>
		<g>
			<circle fill="#FFFFFF" cx="28.9" cy="30.6" r="3.4"/>
		</g>
	</g>
</g>
<g>
	<g>
		<g>
			<circle fill="#FFFFFF" cx="71" cy="30.6" r="3.4"/>
		</g>
	</g>
</g>
<g>
	<path fill="none" stroke="#1D1D1B" stroke-width="7" stroke-linecap="round" stroke-linejoin="round" stroke-miterlimit="10" d="
		M25.5,21.9"/>
</g>
<g>
	<path fill="#1D1D1B" d="M66.5,23.5h-33c-0.9,0-1.6-0.7-1.6-1.6c0-0.9,0.7-1.6,1.6-1.6h33c0.9,0,1.6,0.7,1.6,1.6
		C68.1,22.8,67.4,23.5,66.5,23.5z"/>
</g>
<g>
	<path fill="#1D1D1B" d="M88.8,86.1H10.5c-0.9,0-1.6-0.7-1.6-1.6V21.9c0-0.9,0.7-1.6,1.6-1.6H24c0.9,0,1.6,0.7,1.6,1.6
		c0,0.9-0.7,1.6-1.6,1.6H12.2v59.4h75V23.5H75.6c-0.9,0-1.6-0.7-1.6-1.6c0-0.9,0.7-1.6,1.6-1.6h13.2c0.9,0,1.6,0.7,1.6,1.6v62.6
		C90.5,85.4,89.7,86.1,88.8,86.1z"/>
</g>
<g>
	<path fill="#1D1D1B" d="M71,30.9c-0.9,0-1.6-0.7-1.6-1.6V18.4c0-0.9,0.7-1.6,1.6-1.6c0.9,0,1.6,0.7,1.6,1.6v10.9
		C72.6,30.2,71.9,30.9,71,30.9z"/>
</g>
<g>
	<path fill="#1D1D1B" d="M28.9,30.9c-0.9,0-1.6-0.7-1.6-1.6V18.4c0-0.9,0.7-1.6,1.6-1.6c0.9,0,1.6,0.7,1.6,1.6v10.9
		C30.5,30.2,29.8,30.9,28.9,30.9z"/>
</g>
<g>
	<path fill="#FFFFFF" d="M49.1,77.2c-10.7,0-19.5-8.7-19.5-19.5c0-10.7,8.7-19.5,19.5-19.5c10.7,0,19.5,8.7,19.5,19.5
		C68.6,68.5,59.9,77.2,49.1,77.2z M49.1,41.5c-8.9,0-16.2,7.3-16.2,16.2c0,8.9,7.3,16.2,16.2,16.2c8.9,0,16.2-7.3,16.2-16.2
		C65.4,48.8,58.1,41.5,49.1,41.5z"/>
</g>
<g>
	<path fill="#FFFFFF" d="M43.1,65.6c-0.4,0-0.8-0.2-1.1-0.5c-0.6-0.6-0.7-1.7,0-2.3l5.6-5.7V46.2c0-0.9,0.7-1.6,1.6-1.6
		c0.9,0,1.6,0.7,1.6,1.6v12.2l-6.5,6.7C43.9,65.4,43.5,65.6,43.1,65.6z"/>
</g>
</svg>
