<?xml version="1.0" encoding="utf-8"?>
<!-- Generator: Adobe Illustrator 18.1.1, SVG Export Plug-In . SVG Version: 6.00 Build 0)  -->
<svg version="1.1" id="Capa_1" xmlns="http://www.w3.org/2000/svg" xmlns:xlink="http://www.w3.org/1999/xlink" x="0px" y="0px"
	 viewBox="0 0 100 100" enable-background="new 0 0 100 100" xml:space="preserve">
<g>
	<g>
		<path fill="none" d="M26.5,83.6c0,0.7,0.6,1.3,1.3,1.3H50v-2.6H27.8C27.1,82.3,26.5,82.8,26.5,83.6z"/>
		<path fill="none" d="M42.9,7.1c0,0.7,0.6,1.3,1.3,1.3H50V5.8h-5.8C43.5,5.8,42.9,6.4,42.9,7.1z"/>
		<path fill="none" d="M29.4,16.1v61.6c0,1.1,0.9,2,2.1,2H50V14.1H31.5C30.4,14.1,29.4,15,29.4,16.1z"/>
		<path fill="none" d="M45.8,91.5c0,2.3,1.9,4.3,4.2,4.3v-8.6C47.7,87.2,45.8,89.1,45.8,91.5z"/>
		<path fill="#146BA7" d="M45.8,91.5c0-2.3,1.9-4.3,4.2-4.3v-2.3H27.8c-0.7,0-1.3-0.6-1.3-1.3c0-0.7,0.6-1.3,1.3-1.3H50v-2.5H31.5
			c-1.2,0-2.1-0.9-2.1-2V16.1c0-1.1,0.9-2,2.1-2H50V8.4h-5.8c-0.7,0-1.3-0.6-1.3-1.3c0-0.7,0.6-1.3,1.3-1.3H50V1.2H32.8
			c-5.1,0-9.3,4.2-9.3,9.3v78.8c0,5.1,4.2,9.3,9.3,9.3H50v-2.9C47.7,95.7,45.8,93.8,45.8,91.5z"/>
		<path fill="#155E91" d="M76.5,89.4V10.5c0-5.1-4.2-9.3-9.3-9.3H50v4.6h5.9c0.7,0,1.3,0.6,1.3,1.3c0,0.7-0.6,1.3-1.3,1.3H50v5.7
			h18.9c1.2,0,2.1,0.9,2.1,2v61.6c0,1.1-0.9,2-2.1,2H50v2.5h22.3c0.7,0,1.3,0.6,1.3,1.3c0,0.7-0.6,1.3-1.3,1.3H50v2.3c0,0,0,0,0.1,0
			c2.4,0,4.3,1.9,4.3,4.3c0,2.4-1.9,4.3-4.3,4.3c0,0,0,0-0.1,0v2.9h17.2C72.4,98.6,76.5,94.5,76.5,89.4z M60.9,8.4
			c-0.7,0-1.3-0.6-1.3-1.3c0-0.7,0.6-1.3,1.3-1.3c0.7,0,1.3,0.6,1.3,1.3C62.2,7.8,61.7,8.4,60.9,8.4z"/>
	</g>
	<g>
		<path fill="#146BA7" d="M47.2,91.5c0,1.5,1.3,2.8,2.8,2.8v-5.6C48.5,88.7,47.2,89.9,47.2,91.5z"/>
		<path fill="#155E91" d="M52.8,91.5c0-1.5-1.3-2.8-2.8-2.8v5.6C51.5,94.3,52.8,93,52.8,91.5z"/>
	</g>
</g>
<g>
	<path d="M67.2,0H32.8c-5.8,0-10.6,4.7-10.6,10.6v78.8c0,5.8,4.7,10.6,10.6,10.6h34.5c5.8,0,10.6-4.7,10.6-10.6V10.6
		C77.8,4.7,73.1,0,67.2,0z M75.2,89.4c0,4.4-3.6,8-8,8H32.8c-4.4,0-8-3.6-8-8V10.6c0-4.4,3.6-8,8-8h34.5c4.4,0,8,3.6,8,8V89.4z"/>
</g>
</svg>
