<?xml version="1.0" encoding="utf-8"?>
<!-- Generator: Adobe Illustrator 18.1.1, SVG Export Plug-In . SVG Version: 6.00 Build 0)  -->
<svg version="1.1" id="Capa_1" xmlns="http://www.w3.org/2000/svg" xmlns:xlink="http://www.w3.org/1999/xlink" x="0px" y="0px"
	 viewBox="0 0 100 100" enable-background="new 0 0 100 100" xml:space="preserve">
<g>
	<g>
		<rect x="8" y="23.5" fill="#146BA7" width="41.7" height="54.9"/>
	</g>
	<g>
		<rect x="49.7" y="23.5" fill="#155E91" width="42.3" height="54.9"/>
	</g>
</g>
<g>
	<path d="M92,80.2H8c-1,0-1.7-0.8-1.7-1.7V23.5c0-1,0.8-1.7,1.7-1.7H92c1,0,1.7,0.8,1.7,1.7v54.9C93.7,79.4,92.9,80.2,92,80.2z
		 M9.8,76.7h80.5V25.2H9.8V76.7z"/>
</g>
<g>
	<path fill="#FFFFFF" d="M85.9,37.2H13.5c-1,0-1.7-0.8-1.7-1.7c0-1,0.8-1.7,1.7-1.7h72.5c1,0,1.7,0.8,1.7,1.7
		C87.7,36.5,86.9,37.2,85.9,37.2z"/>
</g>
<g>
	<path fill="#FFFFFF" d="M29.3,67.8H16c-1,0-1.7-0.8-1.7-1.7s0.8-1.7,1.7-1.7h13.3c1,0,1.7,0.8,1.7,1.7S30.2,67.8,29.3,67.8z"/>
</g>
<g>
	<path fill="#FFFFFF" d="M43.4,67.8h-6.6c-1,0-1.7-0.8-1.7-1.7s0.8-1.7,1.7-1.7h6.6c1,0,1.7,0.8,1.7,1.7S44.3,67.8,43.4,67.8z"/>
</g>
<g>
	<path fill="#FFFFFF" d="M80.2,61.2c-1.4,0-2.7,0.6-3.6,1.6c-0.9-1-2.2-1.6-3.6-1.6c-2.7,0-4.9,2.2-4.9,4.9s2.2,4.9,4.9,4.9
		c1.4,0,2.7-0.6,3.6-1.6c0.9,1,2.2,1.6,3.6,1.6c2.7,0,4.9-2.2,4.9-4.9S82.9,61.2,80.2,61.2z"/>
</g>
</svg>
